<svg width="210" height="222" viewBox="0 0 210 222" fill="none" xmlns="http://www.w3.org/2000/svg">
<g clip-path="url(#clip0)">
<path d="M209.921 45.8539C212.105 25.8467 168.626 -13.9395 132.53 4.96003C91.6538 26.3609 27.9841 9.70955 5.31078 79.2397C-13.1768 135.938 16.3638 204.036 97.7524 219.005C164.663 231.311 231.978 205.565 188.111 144.092C164.4 110.866 208.244 61.2178 209.921 45.8539Z" fill="white"/>
<path d="M156.986 154.149C180.945 130.227 180.945 91.4433 156.986 67.5221C133.028 43.6009 94.1831 43.6009 70.2246 67.5221C46.266 91.4433 46.266 130.227 70.2246 154.149C94.1831 178.07 133.028 178.07 156.986 154.149Z" fill="#2E88E8"/>
<path d="M137.814 129.415C154.276 112.979 154.276 86.3301 137.814 69.8937C121.352 53.4573 94.6614 53.4573 78.1993 69.8937C61.7373 86.3301 61.7373 112.979 78.1993 129.415C94.6614 145.852 121.352 145.852 137.814 129.415Z" fill="#409EF2"/>
<path d="M125.19 50.6809C91.9169 44.2941 59.7568 66.0468 53.36 99.2702C46.9613 132.492 68.7499 164.602 102.023 170.989C135.297 177.375 167.457 155.623 173.853 122.399C180.25 89.1797 158.464 57.0696 125.19 50.6809ZM172.541 122.148C166.283 154.647 134.824 175.926 102.275 169.678C69.7257 163.43 48.4134 132.02 54.6708 99.5215C60.9281 67.023 92.3874 45.7439 124.937 51.9915C157.486 58.2411 178.798 89.6513 172.541 122.148Z" fill="#2071D3"/>
<path d="M66.9881 146.106C67.3192 145.35 69.3675 145.062 69.7896 144.353C71.3133 141.784 71.4798 135.244 70.4904 132.426C69.2785 128.974 61.842 125.022 60.6862 121.553C60.0744 119.714 61.9446 115.692 61.387 113.836C60.7423 111.688 56.6746 108.879 55.784 106.821C55.2923 105.682 55.8092 102.916 55.0832 101.911C54.787 101.499 53.4317 101.012 53.0716 100.888C49.9545 119.741 55.8479 138.105 67.6909 151.467C67.9155 151.637 68.0394 151.72 68.0394 151.72C68.0394 151.72 66.4131 147.413 66.9881 146.106Z" fill="#9AC427"/>
<path d="M67.0887 75.2501C69.1158 73.8911 74.3606 73.8892 76.5426 72.7951C78.0469 72.0412 80.8 69.9419 81.7952 68.5849C82.7981 67.2201 85.4059 63.5067 84.2462 62.2715C83.2434 61.2025 79.5242 65.1982 78.6432 64.0248C77.8843 63.0138 80.4399 60.5839 81.4447 59.8146C82.3237 59.1419 84.5676 58.6606 85.646 58.4112C86.9374 58.1116 89.6653 58.1928 90.8986 57.7095C93.5917 56.654 100.352 51.0443 100.352 51.0443C100.352 51.0443 100.287 51.0462 100.159 51.052C82.8155 54.951 67.7954 66.2807 59.3832 82.1414C60.1557 81.6117 63.8361 79.0833 64.9862 78.053C65.6406 77.4711 66.3608 75.7391 67.0887 75.2501Z" fill="#9AC427"/>
<path d="M105.256 53.1514C106.124 54.0329 109.094 53.221 110.159 53.8531C110.914 54.2996 111.46 56.3003 112.259 56.6599C114.182 57.524 118.712 56.7565 120.664 55.9582C122.455 55.2256 126.617 51.0153 126.617 51.0153C126.617 51.0153 126.584 50.9941 126.518 50.9554C126.077 50.8607 125.636 50.7698 125.19 50.6848C118.604 49.4206 112.062 49.2601 105.754 50.072C105.473 50.1609 105.193 50.2518 104.906 50.3484C104.906 50.3446 104.759 52.6468 105.256 53.1514Z" fill="#9AC427"/>
<path d="M100.354 63.6749C102.697 62.9403 108.343 60.5143 108.408 58.0632C108.435 57.0658 106.219 55.8769 105.256 55.6082C103.814 55.2062 100.581 55.527 99.303 56.3099C98.2246 56.971 97.487 59.7257 96.5015 60.5182C95.185 61.5775 91.3632 61.7496 90.1977 62.9732C89.4329 63.7773 87.9577 66.4566 88.7979 67.1815C90.279 68.4611 93.8956 64.1234 95.8007 63.673C96.9081 63.412 99.2682 64.0151 100.354 63.6749Z" fill="#9AC427"/>
<path d="M129.022 55.3647C129.366 56.8377 133.395 58.2198 133.225 59.7218C133.099 60.8217 129.965 61.1329 129.508 62.142C129.153 62.921 130.451 64.8077 129.992 65.5307C129.698 65.9946 128.333 65.8515 127.891 66.1763C127.142 66.7272 126.245 68.4322 125.791 69.2421C125.357 70.0134 124.929 71.8112 124.337 72.4703C123.585 73.3035 121.549 74.4652 120.457 74.7301C118.962 75.0916 115.773 73.9201 114.315 74.4073C113.065 74.8248 111.421 77.1445 110.275 77.7959C109.531 78.2192 107.553 78.2386 107.044 78.9248C106.488 79.671 107.601 82.0467 106.881 82.6363C106.06 83.309 104.147 82.5686 103.251 83.1408C102.151 83.8406 100.742 85.7833 101.224 86.9953C101.518 87.7338 103.181 88.4993 103.971 88.6094C105.086 88.766 106.761 88.0759 107.45 87.1848C107.845 86.6744 108.017 85.4585 108.335 84.898C109.148 83.4656 112.344 81.5847 113.992 81.5093C115.202 81.4533 117.409 82.8547 118.356 83.6067C119.165 84.2504 120.029 86.3458 120.943 86.833C121.765 87.2718 123.763 87.4167 124.66 87.1558C125.49 86.9141 126.551 85.1802 127.407 85.0584C127.965 84.9772 129.19 85.4025 129.508 85.8645C129.827 86.3304 129.196 87.6526 129.508 88.1242C130.015 88.8936 131.984 89.6765 132.902 89.576C133.593 89.5006 134.482 87.8323 135.165 87.9619C135.968 88.1146 136.948 89.8891 136.942 90.7049C136.936 91.5767 135.817 93.2913 135.002 93.6103C134.034 93.9891 131.994 92.7636 130.962 92.6418C129.436 92.462 126.193 91.9556 124.821 92.6418C124.278 92.9124 123.914 94.3236 123.367 94.5787C122.706 94.8861 121.127 94.7063 120.457 94.4163C119.33 93.9292 117.824 91.8376 116.9 91.0277C116.209 90.4207 114.927 88.9458 114.037 88.7119C111.133 87.9503 104.695 89.0482 102.192 90.7049C100.436 91.8666 99.2315 96.3958 97.6652 97.805C96.5926 98.7715 93.3013 99.191 92.4939 100.388C90.2268 103.743 89.6131 112.802 91.2006 116.525C92.1009 118.636 96.1202 121.647 98.3118 122.334C100.321 122.964 104.724 122.374 106.716 121.688C107.818 121.309 109.431 119.154 110.596 119.105C112.259 119.038 116.023 120.718 116.414 122.334C116.689 123.464 113.777 125.044 113.828 126.205C113.917 128.27 118.71 130.615 118.999 132.66C119.291 134.738 115.653 138.312 115.766 140.406C115.965 144.084 119.376 152.155 122.877 153.317C126.584 154.546 134.6 149.858 137.101 146.862C138.381 145.329 137.889 140.748 139.041 139.116C139.713 138.165 142.317 137.529 142.919 136.534C144.516 133.895 142.615 126.907 144.212 124.269C145.116 122.774 149.012 121.814 150.03 120.395C151.492 118.357 154.144 112.699 152.617 110.712C151.73 109.56 148.071 111.416 146.799 110.712C144.131 109.235 138.185 102.545 140.334 100.384C142.073 98.6362 146.272 105.483 148.739 105.547C150.764 105.599 155.306 103.622 155.85 101.673C156.241 100.281 154.317 97.1246 152.94 96.6703C152.063 96.3803 150.377 98.526 149.546 98.122C147.854 97.3005 146.268 92.1817 147.606 90.8595C149.215 89.2686 154.09 92.9743 156.334 93.2797C157.534 93.444 160.119 92.6998 161.182 93.2797C162.953 94.2462 164.622 98.267 165.546 100.057C166.444 101.795 166.742 106.372 168.456 107.319C168.851 107.538 169.97 107.364 170.233 106.997C171.042 105.87 169.945 102.796 169.426 101.509C169.037 100.542 167.269 99.1272 167.002 98.1201C166.388 95.8081 165.648 89.1835 167.972 88.5978C169.397 88.2402 169.825 93.1772 171.265 93.4595C171.552 93.5155 172.235 92.8138 172.235 92.8138C172.235 92.8138 172.227 92.7636 172.21 92.6689C166.181 73.3325 150.692 57.5626 130.139 51.8446C129.994 52.1326 128.822 54.5142 129.022 55.3647Z" fill="#9AC427"/>
<path d="M150.777 140.143C151.715 140.435 151.616 143.031 151.478 144.001C151.174 146.135 149.362 150.436 147.627 151.718C146.772 152.35 144.301 153.023 143.426 152.42C142.689 151.911 142.317 149.708 142.725 148.911C143.207 147.97 145.92 147.985 146.576 147.158C147.132 146.456 146.855 144.44 147.277 143.649C147.86 142.559 149.593 139.775 150.777 140.143Z" fill="#9AC427"/>
<path d="M81.7952 68.5849C82.3373 67.8464 83.3479 66.4218 83.9791 65.0725C80.6607 67.3748 77.6907 70.141 75.1603 73.2783C75.6908 73.1411 76.1632 72.9845 76.5426 72.7951C78.047 72.0392 80.8001 69.9419 81.7952 68.5849Z" fill="#AED839"/>
<path d="M96.5016 60.5182C95.1851 61.5775 91.3633 61.7495 90.1978 62.9731C89.433 63.7773 87.9577 66.4565 88.798 67.1814C90.2791 68.4611 93.8957 64.1233 95.8008 63.6729C96.9082 63.412 99.2663 64.0151 100.352 63.6729C102.695 62.9384 108.341 60.5124 108.407 58.0612C108.41 57.9008 108.356 57.7346 108.259 57.5683C108.174 57.5683 108.091 57.5645 108.008 57.5645C104.422 57.5645 100.941 58.0129 97.6168 58.8538C97.2606 59.5516 96.9004 60.1953 96.5016 60.5182Z" fill="#AED839"/>
<path d="M129.992 65.5325C129.698 65.9964 128.333 65.8534 127.891 66.1781C127.142 66.7291 126.245 68.434 125.791 69.244C125.357 70.0153 124.929 71.813 124.337 72.4722C123.585 73.3053 121.549 74.4671 120.457 74.7319C118.962 75.0934 115.773 73.922 114.315 74.4091C113.065 74.8266 111.421 77.1463 110.275 77.7977C109.531 78.2211 107.553 78.2404 107.044 78.9266C106.488 79.6728 107.601 82.0485 106.881 82.6381C106.06 83.3108 104.147 82.5705 103.251 83.1426C102.151 83.8424 100.742 85.7851 101.224 86.9972C101.518 87.7356 103.181 88.5011 103.971 88.6113C105.086 88.7678 106.761 88.0777 107.45 87.1866C107.845 86.6763 108.017 85.4604 108.335 84.8998C109.148 83.4674 112.344 81.5865 113.992 81.5111C115.202 81.4551 117.409 82.8565 118.356 83.6085C119.165 84.2522 120.029 86.3477 120.943 86.8348C121.765 87.2736 123.763 87.4186 124.66 87.1576C125.49 86.916 126.551 85.182 127.407 85.0602C127.965 84.979 129.19 85.4043 129.508 85.8663C129.827 86.3322 129.196 87.6544 129.508 88.1261C130.015 88.8954 131.984 89.6783 132.902 89.5778C133.593 89.5024 134.482 87.8342 135.165 87.9637C135.968 88.1164 136.948 89.8909 136.942 90.7067C136.936 91.5785 135.817 93.2931 135.002 93.6121C134.034 93.991 131.994 92.7654 130.962 92.6436C129.436 92.4638 126.193 91.9574 124.821 92.6436C124.278 92.9142 123.914 94.3254 123.367 94.5805C122.706 94.8879 121.127 94.7081 120.457 94.4182C119.33 93.931 117.824 91.8395 116.9 91.0295C116.209 90.4225 114.927 88.9476 114.037 88.7137C111.133 87.9521 104.695 89.0501 102.192 90.7067C100.436 91.8685 99.2315 96.3976 97.6652 97.8068C96.5926 98.7733 93.3013 99.1928 92.4939 100.389C90.2268 103.745 89.6131 112.803 91.2006 116.527C92.1009 118.637 96.1202 121.649 98.3118 122.335C100.321 122.966 104.724 122.376 106.716 121.69C107.818 121.311 109.431 119.155 110.596 119.107C112.259 119.04 116.023 120.719 116.414 122.335C116.689 123.466 113.777 125.046 113.828 126.207C113.917 128.272 118.71 130.617 118.999 132.662C119.291 134.74 115.653 138.314 115.766 140.408C115.775 140.597 115.795 140.8 115.822 141.013C131.709 138.038 144.454 126.165 148.667 110.772C147.906 110.899 147.221 110.948 146.799 110.714C144.131 109.237 138.185 102.547 140.334 100.386C142.073 98.638 146.272 105.485 148.739 105.549C149.031 105.556 149.38 105.52 149.759 105.448C150.02 103.552 150.16 101.617 150.16 99.6471C150.16 99.129 150.146 98.6148 150.129 98.1006C149.91 98.1818 149.713 98.2031 149.548 98.1238C147.856 97.3023 146.27 92.1836 147.608 90.8613C147.976 90.496 148.518 90.4129 149.157 90.4999C146.621 79.0755 139.436 69.3986 129.684 63.5472C129.936 64.3108 130.257 65.115 129.992 65.5325Z" fill="#AED839"/>
<path d="M67.1333 148.751C56.6552 135.932 51.5382 118.894 54.3416 101.404C53.8537 101.164 53.2865 100.962 53.0716 100.888C51.5305 110.741 52.1132 120.59 55.4878 130.483C59.0037 140.831 65.96 150.293 68.0394 151.722C68.0374 151.718 67.4798 150.239 67.1333 148.751Z" fill="#87B71D"/>
<path d="M97.942 52.9792C99.3399 51.889 100.354 51.0461 100.354 51.0461C97.096 51.1177 85.4389 55.2776 76.5039 62.051C67.6948 68.7394 60.5681 78.598 59.3851 82.1432C59.7549 81.89 60.7927 81.1786 61.8982 80.3919C69.898 66.845 82.9317 57.0425 97.942 52.9792Z" fill="#87B71D"/>
<path d="M104.894 51.5333C111.715 50.5339 118.639 50.7214 125.5 52.1035C126.166 51.4675 126.615 51.0133 126.615 51.0133C125.721 50.4333 117.756 49.7027 116.586 49.6447C114.65 49.403 107.067 49.6079 104.904 50.3444C104.906 50.3444 104.871 50.905 104.894 51.5333Z" fill="#87B71D"/>
<path d="M129.579 53.0739C149.891 58.6488 165.176 74.2505 171.029 93.3762C171.501 93.6565 172.303 92.9509 172.212 92.6764C166.072 72.9921 150.348 57.4639 130.139 51.8445C130.077 51.9663 129.829 52.4708 129.579 53.0739Z" fill="#87B71D"/>
<path d="M114.544 193.321L114.528 191.989C115.858 191.974 117.183 191.927 118.499 191.848L118.577 193.18C117.241 193.259 115.895 193.306 114.544 193.321ZM110.509 193.265C109.171 193.213 107.83 193.128 106.48 193.01L106.594 191.682C107.921 191.8 109.243 191.879 110.559 191.931L110.509 193.265ZM122.604 192.838L122.459 191.516C123.781 191.371 125.092 191.195 126.395 190.988L126.604 192.304C125.277 192.511 123.945 192.691 122.604 192.838ZM102.471 192.56C101.144 192.378 99.8162 192.161 98.4861 191.92L98.7261 190.607C100.035 190.849 101.346 191.059 102.653 191.237L102.471 192.56ZM130.569 191.572L130.298 190.265C131.597 189.994 132.884 189.689 134.162 189.355L134.501 190.646C133.202 190.986 131.893 191.297 130.569 191.572ZM94.5365 191.083C93.22 190.773 91.9189 190.431 90.6314 190.06L91.0012 188.778C92.2674 189.146 93.5491 189.482 94.8443 189.786L94.5365 191.083ZM138.373 189.532L137.972 188.262C139.238 187.862 140.491 187.431 141.732 186.977L142.197 188.226C140.934 188.691 139.662 189.126 138.373 189.532ZM86.7845 188.852C85.5066 188.417 84.2443 187.951 82.9956 187.454L83.4912 186.215C84.7187 186.706 85.9597 187.162 87.2162 187.592L86.7845 188.852ZM145.945 186.739L145.418 185.515C146.64 184.992 147.846 184.446 149.035 183.87L149.62 185.067C148.41 185.653 147.184 186.209 145.945 186.739ZM79.286 185.877C78.0586 185.316 76.8485 184.729 75.654 184.118L76.2638 182.931C77.4429 183.538 78.6316 184.116 79.8378 184.665L79.286 185.877ZM153.201 183.219L152.564 182.048C153.728 181.415 154.872 180.75 156.003 180.064L156.696 181.199C155.55 181.903 154.384 182.575 153.201 183.219ZM72.111 182.175C70.9396 181.499 69.7896 180.795 68.6609 180.064L69.3908 178.945C70.4982 179.666 71.6269 180.358 72.777 181.025L72.111 182.175ZM65.327 177.783C64.235 176.995 63.1605 176.183 62.1092 175.342L62.9436 174.3C63.9794 175.125 65.0327 175.927 66.1091 176.701L65.327 177.783ZM59.0134 172.751C58.0028 171.862 57.0135 170.948 56.0512 170.008L56.9844 169.055C57.9312 169.979 58.9031 170.878 59.8982 171.752L59.0134 172.751ZM53.2265 167.132C52.3088 166.148 51.4143 165.141 50.547 164.115L51.5673 163.256C52.423 164.265 53.302 165.253 54.2062 166.222L53.2265 167.132ZM48.0146 160.975C47.1976 159.908 46.4057 158.822 45.6429 157.718L46.7407 156.958C47.4938 158.047 48.2721 159.116 49.0775 160.167L48.0146 160.975ZM43.4261 154.345C42.7175 153.204 42.0341 152.046 41.3797 150.869L42.5471 150.224C43.1918 151.38 43.8617 152.516 44.5606 153.641L43.4261 154.345ZM39.5075 147.307C38.9112 146.104 38.3458 144.886 37.8096 143.655L39.0351 143.124C39.5617 144.336 40.1193 145.534 40.7059 146.717L39.5075 147.307ZM36.2917 139.924C35.8173 138.67 35.372 137.404 34.9597 136.124L36.2297 135.716C36.6382 136.974 37.0738 138.219 37.5404 139.455L36.2917 139.924ZM33.8116 132.266C33.4631 130.972 33.1436 129.669 32.8571 128.357L34.1601 128.073C34.4408 129.366 34.7544 130.648 35.0991 131.92L33.8116 132.266ZM32.0962 124.404C31.8755 123.085 31.6858 121.757 31.5309 120.422L32.8571 120.269C33.01 121.582 33.194 122.888 33.4127 124.185L32.0962 124.404ZM31.1611 116.411C31.072 115.077 31.0139 113.735 30.9888 112.388L32.3227 112.365C32.3479 113.689 32.404 115.009 32.4931 116.322L31.1611 116.411ZM32.3518 108.4L31.0178 108.357C31.0604 107.022 31.1359 105.678 31.2424 104.335L32.5725 104.439C32.466 105.763 32.3924 107.086 32.3518 108.4ZM32.9868 100.5L31.6625 100.328C31.8348 99.0034 32.0401 97.6754 32.2763 96.3454L33.5909 96.5793C33.3547 97.888 33.1552 99.1948 32.9868 100.5ZM34.3808 92.692L33.0797 92.3943C33.3818 91.0779 33.7128 89.775 34.0729 88.4876L35.3585 88.8471C35.0022 90.1133 34.677 91.3968 34.3808 92.692ZM36.524 85.0564L35.2578 84.635C35.6857 83.3534 36.1426 82.0911 36.6286 80.8423L37.8715 81.3256C37.3933 82.5531 36.9441 83.796 36.524 85.0564ZM39.3991 77.6663L38.1813 77.1231C38.7311 75.8937 39.3119 74.6778 39.916 73.4851L41.1067 74.0863C40.5123 75.2616 39.9412 76.4543 39.3991 77.6663Z" fill="#FFC024"/>
<path d="M186.945 148.845L185.762 148.231C186.306 147.181 186.829 146.12 187.329 145.043L188.539 145.604C188.033 146.698 187.501 147.78 186.945 148.845ZM190.144 141.908L188.908 141.405C189.404 140.183 189.873 138.948 190.31 137.694L191.572 138.134C191.125 139.408 190.651 140.667 190.144 141.908ZM192.812 134.299L191.528 133.922C191.902 132.66 192.244 131.382 192.56 130.093L193.859 130.408C193.539 131.718 193.189 133.016 192.812 134.299ZM194.732 126.397L193.402 126.263C193.667 124.866 193.882 123.584 194.066 122.305L195.385 122.494C195.203 123.793 194.984 125.094 194.732 126.397ZM195.867 118.493L194.537 118.365C194.664 117.045 194.755 115.724 194.815 114.41L196.149 114.47C196.091 115.809 195.994 117.149 195.867 118.493ZM194.902 110.449C194.895 109.123 194.858 107.801 194.788 106.486L196.122 106.417C196.192 107.752 196.229 109.096 196.236 110.443L194.902 110.449ZM194.482 102.533C194.349 101.215 194.18 99.9042 193.983 98.6014L195.301 98.4003C195.505 99.7245 195.675 101.058 195.812 102.398L194.482 102.533ZM193.288 94.7043C193.025 93.4092 192.73 92.1217 192.405 90.8459L193.698 90.5173C194.029 91.8144 194.329 93.1231 194.599 94.4395L193.288 94.7043ZM191.33 87.0339C190.941 85.7697 190.523 84.519 190.07 83.278L191.327 82.8257C191.783 84.0841 192.207 85.358 192.606 86.6415L191.33 87.0339ZM188.632 79.5859C188.118 78.3642 187.578 77.1599 187.009 75.9672L188.213 75.395C188.792 76.6051 189.342 77.8307 189.861 79.0698L188.632 79.5859ZM185.22 72.4355C184.593 71.2718 183.937 70.1216 183.255 68.9908L184.397 68.3026C185.09 69.4528 185.756 70.6204 186.393 71.8015L185.22 72.4355ZM181.123 65.6447C180.384 64.5467 179.619 63.4661 178.829 62.4029L179.904 61.6084C180.703 62.6852 181.478 63.7851 182.229 64.8985L181.123 65.6447ZM176.384 59.2791C175.544 58.2565 174.678 57.2571 173.788 56.2771L174.779 55.3821C175.681 56.3776 176.562 57.3963 177.418 58.4344L176.384 59.2791ZM171.05 53.4046C170.117 52.4709 169.157 51.5585 168.175 50.6673L169.071 49.6815C170.07 50.5842 171.044 51.5121 171.995 52.4632L171.05 53.4046ZM165.164 48.0712C164.144 47.2323 163.099 46.4166 162.034 45.6279L162.831 44.557C163.914 45.3592 164.975 46.1885 166.014 47.0429L165.164 48.0712ZM158.789 43.3391C157.689 42.6046 156.57 41.8971 155.428 41.2147L156.117 40.0723C157.275 40.7662 158.413 41.4873 159.53 42.2315L158.789 43.3391ZM151.964 39.2565C150.801 38.6341 149.62 38.0387 148.421 37.4742L148.99 36.2699C150.21 36.846 151.412 37.451 152.595 38.0812L151.964 39.2565ZM79.2183 37.2887L78.649 36.0805C79.8668 35.5122 81.1001 34.9709 82.3489 34.4625L82.8542 35.6958C81.6267 36.1965 80.4147 36.7281 79.2183 37.2887ZM144.793 35.8659C143.575 35.3614 142.34 34.8859 141.087 34.4393L141.537 33.1848C142.809 33.639 144.065 34.1242 145.304 34.6346L144.793 35.8659ZM86.5618 34.2808L86.1184 33.0243C87.3846 32.5778 88.6663 32.1603 89.9557 31.7756L90.3371 33.0514C89.0671 33.4303 87.8086 33.8401 86.5618 34.2808ZM137.318 33.1964C136.059 32.8156 134.784 32.4618 133.494 32.139L133.817 30.8458C135.128 31.1744 136.425 31.5359 137.705 31.9225L137.318 33.1964ZM94.1686 32.0075L93.8511 30.7143C95.1541 30.3934 96.4687 30.1035 97.7929 29.8445L98.0485 31.1531C96.7455 31.4064 95.4522 31.6905 94.1686 32.0075ZM129.62 31.2633L128.952 31.1338C127.87 30.925 126.788 30.7395 125.709 30.5771L125.907 29.2607C127.006 29.425 128.104 29.6144 129.202 29.8251L129.879 29.9585L129.62 31.2633ZM101.963 30.4882L101.77 29.1679C103.1 28.9765 104.434 28.8161 105.779 28.6885L105.905 30.0165C104.581 30.1421 103.266 30.2987 101.963 30.4882ZM121.767 30.0784C120.445 29.945 119.123 29.8425 117.806 29.7729L117.88 28.443C119.218 28.5126 120.559 28.617 121.903 28.7542L121.767 30.0784ZM109.864 29.7401L109.806 28.4101C111.038 28.3541 112.275 28.327 113.514 28.3251H113.837V29.6589H113.514C112.298 29.6589 111.08 29.6879 109.864 29.7401Z" fill="#FFC024"/>
<path d="M45.5732 75.4742L44.4696 66.9184L36.9209 69.9707L36.4194 68.7355L45.5732 65.0337L46.8975 75.306L45.5732 75.4742Z" fill="#FFC024"/>
<path d="M182.213 154.944L181.354 144.627L182.682 144.515L183.402 153.112L191.081 150.401L191.524 151.656L182.213 154.944Z" fill="#FFC024"/>
<path d="M93.4672 44.1493C95.6941 30.4931 86.4116 17.6201 72.7341 15.3967C59.0566 13.1732 46.1635 22.4413 43.9366 36.0975C41.7096 49.7537 50.9922 62.6267 64.6697 64.8501C78.3472 67.0736 91.2403 57.8055 93.4672 44.1493Z" fill="#FFD833"/>
<path d="M74.3936 39.1077C74.3936 39.1077 79.5281 37.538 79.3751 33.1538C79.1776 27.4745 71.6986 27.7722 71.6986 27.7722H71.383V22.493H68.719V27.7722H65.7181V22.493H63.054V27.7722H56.4288V30.6273H60.3493V49.3007H56.3475V52.3994C56.3475 52.3994 59.5826 52.3994 63.056 52.3994V57.7501H65.72V52.3994C66.8081 52.3994 67.84 52.3994 68.7209 52.3994V57.7501H71.3849V52.3994C73.0519 52.3994 80.3528 52.3452 81.0033 46.2078C81.7526 39.1231 74.3936 39.1077 74.3936 39.1077ZM65.5729 31.7678C65.5729 31.7678 69.9097 31.7678 70.3917 31.7678C70.8738 31.7678 73.4546 31.9708 73.4546 34.7042C73.4546 37.4375 70.9726 37.8028 70.3917 37.8028C69.8109 37.8028 65.5729 37.8028 65.5729 37.8028V31.7678ZM71.1158 48.6879C70.6609 48.6879 65.5729 48.6879 65.5729 48.6879V41.7463C65.5729 41.7463 70.6144 41.7463 71.1158 41.7463C71.6173 41.7463 74.6395 41.9802 74.6395 45.1233C74.6375 48.2665 71.5708 48.6879 71.1158 48.6879Z" fill="white"/>
<path d="M68.6977 70.7074C51.8093 70.7074 38.0671 56.9865 38.0671 40.1226C38.0671 23.2586 51.8093 9.53772 68.6977 9.53772C85.5899 9.53772 99.3322 23.2586 99.3322 40.1226C99.3322 56.9865 85.5899 70.7074 68.6977 70.7074ZM68.6977 10.6048C52.3979 10.6048 39.1358 23.8462 39.1358 40.1226C39.1358 56.3989 52.3979 69.6403 68.6977 69.6403C84.9994 69.6403 98.2634 56.3989 98.2634 40.1226C98.2634 23.8462 85.0013 10.6048 68.6977 10.6048Z" fill="#FFC024"/>
<path d="M177.106 184.215C179.333 170.559 170.051 157.686 156.373 155.462C142.696 153.239 129.802 162.507 127.576 176.163C125.349 189.819 134.631 202.692 148.309 204.916C161.986 207.139 174.879 197.871 177.106 184.215Z" fill="#FFD833"/>
<path d="M158.032 179.167C158.032 179.167 163.166 177.598 163.013 173.214C162.816 167.534 155.337 167.832 155.337 167.832H155.021V162.551H152.357V167.83H149.356V162.551H146.692V167.83H140.067V170.685H143.988V189.358H139.986V192.457C139.986 192.457 143.221 192.457 146.694 192.457V197.808H149.358V192.457C150.446 192.457 151.478 192.457 152.359 192.457V197.808H155.023V192.457C156.69 192.457 163.991 192.403 164.642 186.266C165.391 179.181 158.032 179.167 158.032 179.167ZM149.211 171.828C149.211 171.828 153.548 171.828 154.03 171.828C154.512 171.828 157.093 172.03 157.093 174.764C157.093 177.495 154.611 177.863 154.03 177.863C153.449 177.863 149.211 177.863 149.211 177.863V171.828ZM154.754 188.748C154.299 188.748 149.211 188.748 149.211 188.748V181.806C149.211 181.806 154.253 181.806 154.754 181.806C155.256 181.806 158.278 182.04 158.278 185.183C158.276 188.326 155.209 188.748 154.754 188.748Z" fill="white"/>
<path d="M152.336 210.767C135.448 210.767 121.705 197.046 121.705 180.182C121.705 163.318 135.448 149.597 152.336 149.597C169.228 149.597 182.97 163.318 182.97 180.182C182.97 197.046 169.228 210.767 152.336 210.767ZM152.336 150.662C136.036 150.662 122.774 163.904 122.774 180.18C122.774 196.457 136.036 209.698 152.336 209.698C168.638 209.698 181.902 196.457 181.902 180.18C181.902 163.904 168.64 150.662 152.336 150.662Z" fill="#FFC024"/>
</g>
<defs>
<clipPath id="clip0">
<rect width="210" height="222" fill="white"/>
</clipPath>
</defs>
</svg>
