<svg width="276" height="55" viewBox="0 0 276 55" fill="none" xmlns="http://www.w3.org/2000/svg">
<path d="M26.564 29.3855C26.0768 28.5179 25.4389 27.805 24.6631 27.2367C22.695 29.1031 20.9608 30.428 17.5629 31.1746C17.6623 31.5512 17.7168 31.9648 17.7168 32.4255C17.7168 33.8884 17.3033 34.9981 16.4731 35.7514C15.6461 36.508 14.5658 36.8846 13.2323 36.8846C12.713 36.8846 11.9822 36.8275 11.0397 36.7064C10.3249 36.6156 9.68382 36.4643 9.11965 36.2524C9.07478 36.239 9.0299 36.2255 8.9754 36.2121V36.2154C8.9754 36.2154 8.96579 36.2121 8.95297 36.2053C7.74129 35.8892 4.35307 35.4184 2.08999 37.1503C1.41683 37.6682 0.907157 38.3508 0.554552 39.1848C0.506469 39.3025 0.461592 39.4236 0.419921 39.5513C0.407099 39.5917 0.391071 39.6321 0.378249 39.6724C0.137837 40.429 0 41.3034 0 42.3089C1.2213 42.6115 2.683 42.857 4.06778 43.0453V46.546H8.79269V43.5531C8.88565 43.5598 8.93694 43.5632 8.94656 43.5666C10.6198 43.7044 12.1392 43.7784 13.5176 43.7885V46.5494H18.2425V43.2639C19.1561 43.0251 20.028 42.7057 20.8486 42.3055C22.8713 41.3135 24.4644 39.9986 25.6184 38.3609C26.7756 36.7266 27.3525 34.9645 27.3525 33.0779C27.3622 31.5613 27.0961 30.3305 26.564 29.3855Z" fill="white"/>
<path d="M1.34139 34.9679C3.81283 33.0746 7.29401 33.3537 8.98331 33.7337V27.9295C9.74942 28.212 10.756 28.4675 11.4612 28.6525C12.426 28.9047 13.5159 29.0325 14.7372 29.0325C15.4616 29.0325 16.17 28.9686 16.8656 28.8543C17.6157 28.7063 18.2761 28.5382 18.8691 28.3398C18.9813 28.3028 19.0903 28.2658 19.196 28.2254C19.2217 28.2153 19.2473 28.2052 19.273 28.1952C19.7442 28.0136 20.2058 27.8051 20.6642 27.5663C20.818 27.4856 20.9623 27.3982 21.1129 27.3107C22.0714 26.7256 22.8856 26.016 23.7767 25.172C24.296 24.607 24.7704 23.9815 25.1935 23.2955C26.3507 21.4258 26.9277 19.1929 26.9277 16.5968C26.9277 14.6094 26.5495 12.8237 25.7962 11.2364C25.0397 9.65256 24.0363 8.30406 22.783 7.19097C21.5296 6.07788 20.1256 5.23717 18.5678 4.66213V0.468689H13.8428V3.80461C13.8204 3.80461 13.7948 3.80461 13.7723 3.80461H9.11794V0.472052H4.39303V4.39983C2.87362 4.6016 1.40871 4.84708 0.00469971 5.13629V36.3836C0.373332 35.8422 0.818897 35.3681 1.34139 34.9679ZM8.98331 12.6488H12.7145C14.1281 12.6488 15.3078 12.9616 16.2566 13.5837C17.2022 14.2092 17.6766 15.2113 17.6766 16.5934C17.6766 17.8074 17.2022 18.8768 16.2566 19.8049C15.3078 20.7331 14.1281 21.1938 12.7145 21.1938C12.0061 21.1938 11.3426 21.1265 10.7143 20.992C10.2912 20.9012 9.57312 20.77 8.98331 20.6322V12.6488Z" fill="white"/>
<path d="M44.2903 16.9061V42.7528H35.9816V24.0017H31.9716V16.9061H44.2903ZM39.6039 2.41235C40.5367 2.41235 41.3989 2.64775 42.1875 3.12191C42.9761 3.59607 43.6139 4.22828 44.0948 5.0219C44.5788 5.81553 44.8192 6.70331 44.8192 7.6819C44.8192 8.62685 44.5788 9.50454 44.0948 10.3183C43.6107 11.1288 42.9761 11.7711 42.1875 12.2452C41.3989 12.7194 40.5367 12.9548 39.6039 12.9548C38.2191 12.9548 37.0106 12.4403 35.9816 11.4079C34.9495 10.3789 34.4366 9.13463 34.4366 7.6819C34.4366 6.19553 34.9527 4.94456 35.9816 3.93235C37.0106 2.92014 38.2191 2.41235 39.6039 2.41235Z" fill="white"/>
<path d="M62.113 9.3028V16.9028H68.5849V23.7428H62.113V30.9896C62.113 32.2406 62.363 33.2293 62.863 33.9557C63.3631 34.682 64.0619 35.0452 64.9659 35.0452C66.3827 35.0452 67.6873 34.6753 68.8798 33.9287V40.7183C68.3637 41.4615 67.5527 42.1105 66.4404 42.6687C65.3281 43.227 63.9689 43.5061 62.3598 43.5061C60.8147 43.5061 59.3979 43.1328 58.1093 42.3896C56.8207 41.6464 55.7821 40.5838 54.9935 39.1983C54.205 37.8128 53.8107 36.1415 53.8107 34.181V23.7428H49.6564V18.4228C51.2335 17.9856 52.7881 17.0306 54.3172 15.561C55.8462 14.0915 56.9649 12.0065 57.6733 9.3028H62.113Z" fill="white"/>
<path d="M82.7398 6.26282V27.2939L90.6125 16.9061H100.662L90.7118 28.0539L101.098 42.7494H90.6157L85.3971 34.033L82.7398 36.9721V42.7494H74.4311V6.26282H82.7398Z" fill="white"/>
<path d="M113.029 6.26282V27.2939L120.902 16.9061H130.951L121.002 28.0539L131.387 42.7494H120.905L115.687 34.033L113.029 36.9721V42.7494H104.721V6.26282H113.029Z" fill="white"/>
<path d="M142.497 16.1461C143.785 16.1461 145.048 16.442 146.289 17.0339C147.529 17.6258 148.552 18.3757 149.357 19.2904V16.9095H157.665V42.7561H149.357V38.4484C148.744 39.8675 147.812 41.068 146.555 42.0466C145.298 43.0252 143.785 43.5161 142.013 43.5161C140.176 43.5161 138.455 43.0252 136.842 42.0466C135.23 41.068 133.919 39.5547 132.906 37.5101C131.89 35.4655 131.383 32.8896 131.383 29.7824C131.383 26.8769 131.89 24.4119 132.906 22.3842C133.922 20.3564 135.272 18.8095 136.964 17.7468C138.657 16.6774 140.5 16.1461 142.497 16.1461ZM144.234 24.6608C143.042 24.6608 142.051 25.1686 141.263 26.1808C140.474 27.193 140.08 28.3935 140.08 29.779C140.08 31.1645 140.481 32.3314 141.288 33.2763C142.093 34.2213 143.157 34.6954 144.478 34.6954C145.186 34.6954 145.911 34.5004 146.651 34.1137C147.392 33.7269 148.026 33.1351 148.558 32.3415C149.091 31.5478 149.357 30.5255 149.357 29.2746V26.7928C148.648 26.1841 147.85 25.6764 146.965 25.2728C146.081 24.8626 145.17 24.6608 144.234 24.6608Z" fill="white"/>
<path d="M179.693 16.1461C182.207 16.1461 184.258 17.0407 185.851 18.833C187.444 20.6254 188.243 23.2753 188.243 26.7895V42.7528H179.934L179.886 28.1581C179.886 26.8735 179.546 25.9723 178.87 25.4477C178.193 24.9231 177.437 24.6608 176.6 24.6608C175.699 24.6608 174.94 24.9063 174.331 25.3939C173.718 25.8849 173.186 26.4666 172.738 27.1426V42.7528H164.429V6.26617H172.738V20.2521C173.51 19.1357 174.452 18.1739 175.565 17.3635C176.674 16.5497 178.052 16.1461 179.693 16.1461Z" fill="white"/>
<path d="M207.351 8.79834C209.22 8.79834 211.005 9.24559 212.714 10.1401C214.419 11.0346 215.829 12.3192 216.942 13.9905C218.054 15.6619 218.608 17.6661 218.608 19.9965C218.608 21.9907 218.076 23.8301 217.015 25.5216C215.951 27.2131 214.512 28.5717 212.691 29.6007C210.87 30.6331 208.851 31.1476 206.629 31.1476C204.988 31.1476 203.482 30.9694 202.113 30.6163C200.744 30.2632 199.641 29.8799 198.805 29.4763V42.7527H194.458V8.79834H207.351ZM198.802 13.1061V25.3199C199.67 25.6931 200.805 26.0395 202.209 26.359C203.61 26.6818 205.036 26.8399 206.485 26.8399C208.931 26.8399 210.825 26.174 212.162 24.839C213.499 23.504 214.166 21.8932 214.166 19.9999C214.166 18.5472 213.787 17.313 213.031 16.3008C212.274 15.2886 211.284 14.5017 210.059 13.9435C208.835 13.3852 207.53 13.1061 206.145 13.1061H198.802Z" fill="white"/>
<path d="M233.148 16.9061C234.533 16.9061 235.94 17.2524 237.376 17.9452C238.809 18.6379 240.04 19.593 241.072 20.8069V17.4105H245.034V42.7494H241.072V38.4416C240.236 39.7934 239.098 40.9771 237.668 41.9893C236.235 43.0016 234.6 43.5093 232.764 43.5093C230.702 43.5093 228.818 42.9612 227.112 41.8616C225.404 40.7653 224.045 39.2352 223.032 37.2747C222.016 35.3141 221.509 33.051 221.509 30.4851C221.509 27.6805 222.016 25.266 223.032 23.2383C224.048 21.2105 225.439 19.6501 227.212 18.5505C228.978 17.4542 230.959 16.9061 233.148 16.9061ZM233.876 20.9616C232.139 20.9616 230.654 21.419 229.433 22.3303C228.209 23.2416 227.266 24.4186 226.606 25.8512C225.945 27.2871 225.615 28.834 225.615 30.4885C225.615 32.1094 225.936 33.6058 226.58 34.9745C227.224 36.3432 228.135 37.4327 229.308 38.2432C230.484 39.0536 231.844 39.4605 233.389 39.4605C234.87 39.4605 236.19 39.0536 237.351 38.2432C238.511 37.4327 239.428 36.3095 240.104 34.8736C240.781 33.4377 241.101 31.8235 241.069 30.0345L241.021 25.1685C240.021 23.8503 238.95 22.8213 237.809 22.0781C236.668 21.3315 235.357 20.9616 233.876 20.9616Z" fill="white"/>
<path d="M254.6 17.4138L263.053 36.064L271.265 17.4138H276L258.222 54.916H253.632L260.54 41.2327L249.866 17.4138H254.6Z" fill="white"/>
</svg>
