<svg width="286" height="56" viewBox="0 0 286 56" fill="none" xmlns="http://www.w3.org/2000/svg">
<path d="M63.1385 15.2347C65.3858 15.2347 67.3421 15.5644 69.0074 16.2236C70.6727 16.8828 71.9716 17.8047 72.9066 18.9892C73.8417 20.1736 74.3078 21.5484 74.3078 23.108C74.3078 24.4801 73.9764 25.6672 73.3135 26.6615C72.6506 27.6583 71.791 28.4516 70.7347 29.0438C71.5728 29.3413 72.3596 29.7245 73.0898 30.1934C73.8201 30.6651 74.4102 31.2761 74.8575 32.0318C75.3048 32.7848 75.5285 33.7683 75.5285 34.9796C75.5285 36.4883 75.0408 37.8952 74.0653 39.2003C73.0898 40.5054 71.7506 41.5558 70.0449 42.3491C68.3392 43.1423 66.3909 43.5416 64.1975 43.5416C62.9525 43.5416 61.5567 43.4799 60.0154 43.3594C58.474 43.2388 57.0027 43.0833 55.6096 42.8957C54.2138 42.7082 53.0847 42.5179 52.2197 42.3303V16.2825C53.8716 15.9583 55.6177 15.7037 57.4581 15.5161C59.2932 15.3285 61.1875 15.2347 63.1385 15.2347ZM63.4214 22.0575C62.0418 22.0575 60.8345 22.1647 59.8079 22.3818V27.0259H63.6262C64.5208 27.0259 65.278 26.8115 65.9005 26.3801C66.523 25.9486 66.8355 25.3162 66.8355 24.4828C66.8355 23.7565 66.5176 23.1697 65.8816 22.7248C65.243 22.28 64.4238 22.0575 63.4214 22.0575ZM59.8079 36.3945C60.3765 36.5821 61.0528 36.7107 61.837 36.7777C62.6211 36.8447 63.2301 36.8796 63.6639 36.8796C64.7741 36.8796 65.6741 36.6652 66.364 36.2337C67.0538 35.8023 67.3987 35.1699 67.3987 34.3364C67.3987 33.5298 67.0053 32.951 66.2212 32.5999C65.4343 32.2515 64.4885 32.0747 63.3783 32.0747H59.8052V36.3945H59.8079Z" fill="white"/>
<path d="M89.3305 22.3416V42.9386H82.346V27.996H78.975V22.3416H89.3305ZM85.391 10.7916C86.1751 10.7916 86.9 10.9792 87.5628 11.3571C88.2257 11.7349 88.762 12.2387 89.1662 12.8712C89.573 13.5036 89.7751 14.2111 89.7751 14.9909C89.7751 15.7439 89.573 16.4433 89.1662 17.0919C88.7593 17.7377 88.2257 18.2495 87.5628 18.6274C86.9 19.0052 86.1751 19.1928 85.391 19.1928C84.2269 19.1928 83.211 18.7828 82.346 17.9601C81.4783 17.1401 81.0472 16.1486 81.0472 14.9909C81.0472 13.8064 81.481 12.8095 82.346 12.0029C83.211 11.1963 84.2269 10.7916 85.391 10.7916Z" fill="white"/>
<path d="M104.316 16.2826V22.339H109.756V27.7897H104.316V33.5647C104.316 34.5616 104.526 35.3494 104.946 35.9283C105.366 36.5071 105.954 36.7965 106.714 36.7965C107.905 36.7965 109.002 36.5018 110.004 35.9068V41.3174C109.57 41.9096 108.888 42.4268 107.953 42.8717C107.018 43.3165 105.876 43.5389 104.523 43.5389C103.224 43.5389 102.033 43.2415 100.95 42.6492C99.8667 42.057 98.9936 41.2102 98.3307 40.1061C97.6678 39.002 97.3364 37.6702 97.3364 36.1078V27.7897H93.8441V23.5502C95.1699 23.2019 96.4768 22.4408 97.7621 21.2697C99.0475 20.0986 99.9879 18.4372 100.583 16.2826H104.316Z" fill="white"/>
<path d="M121.656 13.86V30.6196L128.274 22.3416H136.721L128.357 31.2252L137.088 42.936H128.276L123.889 35.9899L121.656 38.3321V42.936H114.671V13.86H121.656Z" fill="white"/>
<path d="M147.115 13.86V30.6196L153.733 22.3416H162.181L153.816 31.2252L162.547 42.936H153.736L149.349 35.9899L147.115 38.3321V42.936H140.13V13.86H147.115Z" fill="white"/>
<path d="M171.887 21.736C172.97 21.736 174.032 21.9718 175.075 22.4434C176.117 22.9151 176.977 23.5127 177.653 24.2416V22.3443H184.638V42.9413H177.653V39.5085C177.139 40.6393 176.355 41.596 175.298 42.3759C174.242 43.1557 172.97 43.5469 171.48 43.5469C169.936 43.5469 168.489 43.1557 167.133 42.3759C165.778 41.596 164.676 40.3901 163.824 38.7608C162.97 37.1315 162.544 35.0787 162.544 32.6026C162.544 30.2872 162.97 28.3229 163.824 26.707C164.679 25.0911 165.813 23.8584 167.236 23.0116C168.659 22.1594 170.208 21.736 171.887 21.736ZM173.35 28.5212C172.348 28.5212 171.515 28.9259 170.852 29.7325C170.189 30.5391 169.858 31.4958 169.858 32.5999C169.858 33.704 170.195 34.6339 170.874 35.3869C171.55 36.1399 172.445 36.5178 173.555 36.5178C174.15 36.5178 174.759 36.3624 175.382 36.0542C176.004 35.746 176.538 35.2744 176.985 34.6419C177.432 34.0095 177.656 33.1948 177.656 32.1979V30.2202C177.06 29.7352 176.39 29.3305 175.646 29.009C174.899 28.682 174.134 28.5212 173.35 28.5212Z" fill="white"/>
<path d="M203.155 21.736C205.268 21.736 206.993 22.4488 208.332 23.8771C209.671 25.3055 210.342 27.4172 210.342 30.2176V42.9386H203.358L203.317 31.3082C203.317 30.2845 203.031 29.5664 202.463 29.1483C201.894 28.7303 201.258 28.5212 200.555 28.5212C199.798 28.5212 199.159 28.7169 198.647 29.1054C198.133 29.4967 197.685 29.9603 197.308 30.4989V42.9386H190.323V13.8627H197.308V25.008C197.957 24.1183 198.75 23.3519 199.685 22.706C200.617 22.0575 201.776 21.736 203.155 21.736Z" fill="white"/>
<path d="M228.291 15.8806C229.862 15.8806 231.363 16.237 232.799 16.9498C234.233 17.6626 235.419 18.6863 236.354 20.0182C237.289 21.35 237.755 22.9472 237.755 24.8043C237.755 26.3934 237.308 27.8593 236.416 29.2073C235.521 30.5552 234.311 31.6378 232.781 32.4579C231.25 33.2806 229.552 33.6906 227.685 33.6906C226.305 33.6906 225.039 33.5485 223.888 33.2672C222.738 32.9858 221.811 32.6803 221.107 32.3587V42.9386H217.453V15.8806H228.291ZM221.105 19.3134V29.0465C221.835 29.3439 222.789 29.6199 223.969 29.8745C225.147 30.1318 226.346 30.2577 227.564 30.2577C229.62 30.2577 231.212 29.7271 232.336 28.6632C233.46 27.5994 234.02 26.3157 234.02 24.807C234.02 23.6493 233.702 22.6658 233.066 21.8592C232.43 21.0526 231.598 20.4255 230.568 19.9807C229.539 19.5358 228.442 19.3134 227.278 19.3134H221.105Z" fill="black"/>
<path d="M249.981 22.3416C251.145 22.3416 252.328 22.6176 253.535 23.1697C254.739 23.7217 255.774 24.4828 256.642 25.4502V22.7436H259.972V42.936H256.642V39.5031C255.938 40.5804 254.982 41.5237 253.78 42.3303C252.576 43.1369 251.201 43.5416 249.657 43.5416C247.925 43.5416 246.34 43.1048 244.907 42.2285C243.47 41.3549 242.328 40.1356 241.476 38.5732C240.622 37.0109 240.196 35.2074 240.196 33.1627C240.196 30.9277 240.622 29.0036 241.476 27.3877C242.33 25.7718 243.5 24.5283 244.99 23.652C246.475 22.7784 248.137 22.3416 249.981 22.3416ZM250.59 25.5735C249.129 25.5735 247.881 25.9379 246.855 26.6641C245.825 27.3904 245.033 28.3283 244.478 29.4699C243.923 30.6142 243.645 31.8469 243.645 33.1654C243.645 34.457 243.915 35.6496 244.457 36.7402C244.998 37.8309 245.763 38.6992 246.75 39.345C247.739 39.9908 248.881 40.3151 250.18 40.3151C251.425 40.3151 252.535 39.9908 253.511 39.345C254.486 38.6992 255.257 37.8041 255.825 36.6598C256.394 35.5156 256.663 34.2293 256.636 32.8036L256.596 28.9259C255.755 27.8754 254.855 27.0554 253.896 26.4632C252.937 25.8682 251.835 25.5735 250.59 25.5735Z" fill="black"/>
<path d="M268.011 22.7462L275.116 37.6084L282.02 22.7462H286L271.055 52.6315H267.197L273.004 41.7273L264.031 22.7462H268.011Z" fill="black"/>
<path d="M34.055 35.1403C33.4299 34.0845 32.6107 33.2216 31.6191 32.5302C29.0942 34.7973 26.8711 36.4079 22.5192 37.3164C22.6459 37.7719 22.7186 38.2757 22.7186 38.8358C22.7186 40.6125 22.1878 41.9631 21.1261 42.877C20.0644 43.7961 18.6793 44.2517 16.9709 44.2517C16.3054 44.2517 15.3676 44.182 14.1604 44.0373C13.2442 43.9301 12.4224 43.7452 11.6975 43.488C11.6409 43.4719 11.5816 43.4558 11.5116 43.437V43.4424C11.5116 43.4424 11.5008 43.437 11.4819 43.4317C9.9298 43.0485 5.58332 42.475 2.68117 44.5813C1.81619 45.2084 1.16408 46.0391 0.71138 47.0521C0.649403 47.1968 0.592815 47.3442 0.536227 47.497C0.517365 47.5452 0.501197 47.5961 0.485029 47.6443C0.177838 48.5635 0.00268555 49.6274 0.00268555 50.8467C1.56559 51.2138 3.44107 51.5113 5.21685 51.7444V56H11.2744V52.3608C11.3903 52.3688 11.4604 52.3742 11.4711 52.3742C13.6188 52.543 15.5643 52.6315 17.332 52.6449V55.9973H23.3896V52.0017C24.5618 51.7096 25.6774 51.3264 26.7283 50.836C29.3232 49.6274 31.3631 48.0302 32.8451 46.0445C34.3272 44.0588 35.0682 41.9176 35.0682 39.6237C35.0736 37.7826 34.7341 36.2873 34.055 35.1403Z" fill="white"/>
<path d="M1.7165 41.923C4.88541 39.621 9.35046 39.9613 11.5116 40.4223V33.369C12.4924 33.712 13.7859 34.0229 14.6886 34.248C15.9254 34.5562 17.3239 34.7089 18.8895 34.7089C19.8165 34.7089 20.7246 34.6339 21.6165 34.4892C22.5758 34.3123 23.4246 34.1033 24.1845 33.8648C24.3274 33.8192 24.4675 33.7737 24.6022 33.7281C24.6372 33.7174 24.6696 33.704 24.7019 33.6933C25.3055 33.4735 25.8983 33.2189 26.4858 32.9268C26.6825 32.8304 26.8684 32.7232 27.0597 32.6187C28.2912 31.9085 29.334 31.0456 30.4766 30.0192C31.1421 29.3305 31.7484 28.5721 32.2928 27.736C33.7748 25.4636 34.5159 22.7489 34.5159 19.5948C34.5159 17.1776 34.0308 15.0069 33.0634 13.0828C32.0961 11.1587 30.808 9.51869 29.202 8.16806C27.596 6.81744 25.7959 5.79375 23.7992 5.097V0H17.7416V4.05455C17.712 4.05455 17.6823 4.05187 17.65 4.05187H11.6813V0H5.62375V4.77542C3.67551 5.02197 1.79734 5.31942 0 5.67316V43.6514C0.474259 42.9868 1.04553 42.4107 1.7165 41.923ZM11.5116 14.8006H16.2946C18.1054 14.8006 19.6198 15.1784 20.8351 15.9368C22.0504 16.6952 22.6567 17.9145 22.6567 19.5921C22.6567 21.066 22.0477 22.3684 20.8351 23.4939C19.6198 24.6221 18.1054 25.1849 16.2946 25.1849C15.3892 25.1849 14.535 25.1045 13.7293 24.9383C13.1876 24.8284 12.2661 24.6677 11.5089 24.4988V14.8006H11.5116Z" fill="#231F20"/>
</svg>
