<svg width="198" height="38" viewBox="0 0 198 38" fill="none" xmlns="http://www.w3.org/2000/svg">
<path d="M19.0549 20.1829C18.7054 19.5774 18.2477 19.0798 17.6912 18.6831C16.2792 19.9858 15.0351 20.9105 12.5975 21.4316C12.6688 21.6945 12.7079 21.9832 12.7079 22.3047C12.7079 23.3257 12.4112 24.1003 11.8156 24.626C11.2223 25.1541 10.4473 25.417 9.49066 25.417C9.11812 25.417 8.5938 25.3771 7.9177 25.2926C7.40488 25.2292 6.94495 25.1236 6.54021 24.9758C6.50801 24.9664 6.47582 24.957 6.43672 24.9476V24.9499C6.43672 24.9499 6.42983 24.9476 6.42063 24.9429C5.55136 24.7223 3.12063 24.3937 1.49707 25.6024C1.01415 25.9639 0.648502 26.4404 0.39554 27.0225C0.361045 27.1046 0.32885 27.1891 0.298955 27.2783C0.289756 27.3065 0.278258 27.3346 0.269059 27.3628C0.098885 27.8932 0 28.5035 0 29.2029C0.876167 29.4142 1.92481 29.5855 2.91826 29.717V32.1603H6.30794V30.0714C6.37463 30.0761 6.41143 30.0784 6.41833 30.0808C7.61875 30.177 8.70878 30.2286 9.69763 30.2357V32.1627H13.0873V29.8695C13.7427 29.7029 14.3682 29.4799 14.9569 29.2006C16.408 28.5082 17.5509 27.5905 18.3788 26.4474C19.209 25.3067 19.6229 24.0768 19.6229 22.7601C19.6252 21.7015 19.4344 20.8425 19.0549 20.1829Z" fill="white"/>
<path d="M0.958955 24.0792C2.73199 22.7578 5.22941 22.9526 6.44132 23.2178V19.1667C6.99094 19.3638 7.71303 19.5422 8.21895 19.6713C8.91115 19.8473 9.69303 19.9365 10.5692 19.9365C11.0889 19.9365 11.5971 19.8919 12.0962 19.8121C12.6343 19.7088 13.108 19.5915 13.5334 19.453C13.6139 19.4272 13.6921 19.4014 13.768 19.3732C13.7864 19.3662 13.8048 19.3591 13.8232 19.3521C14.1613 19.2253 14.4924 19.0798 14.8213 18.9132C14.9316 18.8568 15.0351 18.7958 15.1432 18.7348C15.8308 18.3264 16.4149 17.8311 17.0542 17.242C17.4268 16.8477 17.7671 16.4111 18.0707 15.9323C18.9008 14.625 19.3171 13.0665 19.3171 11.2545C19.3171 9.86733 19.0457 8.621 18.5053 7.51316C17.9626 6.40766 17.2428 5.46646 16.3436 4.68956C15.4445 3.91266 14.4372 3.32588 13.3196 2.92452V0H9.92759V2.32835C9.9115 2.32835 9.8931 2.32835 9.877 2.32835H6.53791V0H3.14822V2.74145C2.05819 2.88462 1.00725 3.05361 0 3.25781V25.0673C0.26446 24.6894 0.584111 24.3585 0.958955 24.0792ZM6.44132 8.5013H9.11812C10.1323 8.5013 10.9785 8.71958 11.6592 9.1538C12.3376 9.59037 12.678 10.2898 12.678 11.2545C12.678 12.1018 12.3376 12.8482 11.6592 13.496C10.9785 14.1438 10.1323 14.4654 9.11812 14.4654C8.60989 14.4654 8.13387 14.4184 7.68314 14.3245C7.37958 14.2612 6.86446 14.1696 6.44132 14.0734V8.5013Z" fill="white"/>
<path d="M31.7697 11.4726V29.5126H25.809V16.425H22.9321V11.4726H31.7697ZM28.4076 1.35645C29.0768 1.35645 29.6954 1.52074 30.2611 1.85169C30.8268 2.18263 31.2845 2.62389 31.6294 3.17782C31.9767 3.73174 32.1491 4.35138 32.1491 5.03439C32.1491 5.69394 31.9767 6.30654 31.6294 6.87454C31.2822 7.4402 30.8268 7.8885 30.2611 8.21945C29.6954 8.55039 29.0768 8.71469 28.4076 8.71469C27.4142 8.71469 26.5472 8.35558 25.809 7.63501C25.0685 6.91679 24.7006 6.04835 24.7006 5.03439C24.7006 3.99696 25.0708 3.12383 25.809 2.41735C26.5495 1.71086 27.4142 1.35645 28.4076 1.35645Z" fill="white"/>
<path d="M44.5581 6.16553V11.47H49.2011V16.2441H44.5581V21.3022C44.5581 22.1753 44.7375 22.8653 45.0962 23.3723C45.455 23.8793 45.9563 24.1328 46.6048 24.1328C47.6212 24.1328 48.5572 23.8746 49.4126 23.3535V28.0924C49.0424 28.6111 48.4606 29.0641 47.6626 29.4537C46.8646 29.8434 45.8896 30.0382 44.7352 30.0382C43.6267 30.0382 42.6103 29.7776 41.6858 29.2589C40.7614 28.7402 40.0163 27.9985 39.4506 27.0315C38.8848 26.0645 38.602 24.898 38.602 23.5296V16.2464H35.6216V12.5333C36.7531 12.2282 37.8684 11.5616 38.9653 10.5359C40.0623 9.51018 40.8648 8.05497 41.3731 6.16787H44.5581V6.16553Z" fill="white"/>
<path d="M59.3563 4.04395V18.7229L65.0043 11.4726H72.2137L65.0756 19.2533L72.5264 29.5103H65.0066L61.2627 23.4289L59.3563 25.4803V29.5126H53.3956V4.04395H59.3563Z" fill="white"/>
<path d="M81.0857 4.04395V18.7229L86.7336 11.4726H93.9431L86.8049 19.2533L94.2558 29.5103H86.7359L82.9921 23.4265L81.0857 25.4779V29.5103H75.125V4.04395H81.0857Z" fill="white"/>
<path d="M102.226 10.9419C103.151 10.9419 104.057 11.1484 104.947 11.5615C105.837 11.9746 106.57 12.498 107.148 13.1365V11.4747H113.108V29.5147H107.148V26.508C106.708 27.4985 106.039 28.3365 105.138 29.0195C104.236 29.7025 103.151 30.0452 101.879 30.0452C100.561 30.0452 99.3266 29.7025 98.1699 29.0195C97.0131 28.3365 96.0726 27.2803 95.3459 25.8532C94.6169 24.4261 94.2535 22.6282 94.2535 20.4595C94.2535 18.4316 94.6169 16.7111 95.3459 15.2958C96.0749 13.8805 97.043 12.8032 98.2572 12.0591C99.4715 11.3127 100.794 10.9419 102.226 10.9419ZM103.473 16.8848C102.617 16.8848 101.907 17.2392 101.341 17.9457C100.775 18.6522 100.492 19.4901 100.492 20.4572C100.492 21.4242 100.78 22.2386 101.359 22.8982C101.937 23.5577 102.7 23.8887 103.648 23.8887C104.156 23.8887 104.676 23.7525 105.207 23.4826C105.738 23.2127 106.193 22.7996 106.575 22.2457C106.957 21.6917 107.148 20.9782 107.148 20.1051V18.3729C106.639 17.9481 106.067 17.5937 105.432 17.312C104.795 17.0257 104.142 16.8848 103.473 16.8848Z" fill="white"/>
<path d="M128.909 10.9422C130.712 10.9422 132.184 11.5665 133.327 12.8175C134.47 14.0685 135.042 15.9181 135.042 18.3708V29.5126H129.082L129.047 19.3261C129.047 18.4295 128.804 17.8005 128.318 17.4343C127.833 17.0682 127.29 16.8851 126.69 16.8851C126.044 16.8851 125.499 17.0564 125.062 17.3968C124.623 17.7394 124.241 18.1455 123.919 18.6173V29.5126H117.958V4.04395H123.919V13.8056C124.473 13.0264 125.149 12.3551 125.947 11.7895C126.745 11.2238 127.732 10.9422 128.909 10.9422Z" fill="white"/>
<path d="M148.753 5.81348C150.094 5.81348 151.375 6.12564 152.6 6.74998C153.824 7.37432 154.836 8.27092 155.634 9.43744C156.432 10.604 156.829 12.0029 156.829 13.6294C156.829 15.0213 156.448 16.3051 155.686 17.4857C154.923 18.6664 153.89 19.6146 152.584 20.3328C151.278 21.0534 149.829 21.4125 148.236 21.4125C147.058 21.4125 145.977 21.2881 144.995 21.0416C144.013 20.7952 143.222 20.5276 142.622 20.246V29.5124H139.504V5.81348H148.753ZM142.617 8.82015V17.3449C143.241 17.6054 144.055 17.8472 145.062 18.0702C146.067 18.2955 147.09 18.4058 148.13 18.4058C149.884 18.4058 151.243 17.9411 152.202 17.0093C153.161 16.0775 153.64 14.9532 153.64 13.6318C153.64 12.6178 153.368 11.7564 152.826 11.0499C152.283 10.3434 151.572 9.79421 150.694 9.40458C149.815 9.01496 148.879 8.82015 147.886 8.82015H142.617Z" fill="white"/>
<path d="M167.261 11.4727C168.254 11.4727 169.264 11.7144 170.294 12.1979C171.322 12.6814 172.205 13.348 172.945 14.1953V11.8247H175.788V29.5103H172.945V26.5037C172.345 27.4472 171.529 28.2734 170.503 28.9799C169.475 29.6864 168.302 30.0408 166.985 30.0408C165.506 30.0408 164.154 29.6582 162.93 28.8907C161.705 28.1255 160.73 27.0576 160.003 25.6892C159.274 24.3208 158.911 22.7412 158.911 20.9504C158.911 18.9929 159.274 17.3076 160.003 15.8923C160.732 14.477 161.73 13.3879 163.002 12.6204C164.269 11.8552 165.69 11.4727 167.261 11.4727ZM167.78 14.3033C166.534 14.3033 165.469 14.6225 164.593 15.2586C163.714 15.8946 163.038 16.7161 162.565 17.716C162.091 18.7182 161.854 19.7979 161.854 20.9527C161.854 22.084 162.084 23.1285 162.546 24.0838C163.009 25.0391 163.662 25.7995 164.503 26.3652C165.347 26.9308 166.322 27.2148 167.431 27.2148C168.493 27.2148 169.441 26.9308 170.273 26.3652C171.106 25.7995 171.763 25.0156 172.249 24.0134C172.734 23.0111 172.964 21.8845 172.941 20.6358L172.906 17.2395C172.189 16.3195 171.421 15.6013 170.602 15.0825C169.786 14.5615 168.843 14.3033 167.78 14.3033Z" fill="white"/>
<path d="M182.648 11.8271L188.712 24.8442L194.603 11.8271H198L185.248 37.9999H181.955L186.911 28.4494L179.253 11.8247H182.648V11.8271Z" fill="white"/>
</svg>
