<svg width="277" height="307" viewBox="0 0 277 307" fill="none" xmlns="http://www.w3.org/2000/svg">
<path d="M175.782 247.91C175.653 246.303 174.01 244.914 171.232 243.799C174.254 242.135 175.923 240.35 175.782 238.6C175.356 233.306 158.576 230.338 138.308 231.971C118.038 233.604 101.952 239.221 102.379 244.515C102.508 246.123 104.149 247.512 106.929 248.627C103.907 250.292 102.238 252.075 102.379 253.825C102.508 255.43 104.149 256.821 106.929 257.936C103.907 259.6 102.238 261.385 102.379 263.135C102.508 264.742 104.149 266.131 106.929 267.246C103.907 268.912 102.238 270.694 102.379 272.444C102.569 274.787 105.958 276.67 111.432 277.905C111.362 279.636 111.401 281.531 111.57 283.626C112.363 293.383 123.345 301.031 137.867 301.031C152.392 301.031 164.962 290.602 165.105 280.815C165.14 278.416 165.037 276.305 164.821 274.429C171.769 272.109 176.003 269.277 175.78 266.529C175.651 264.922 174.008 263.533 171.23 262.418C174.252 260.752 175.921 258.97 175.78 257.22C175.651 255.613 174.008 254.223 171.23 253.108C174.254 251.443 175.925 249.66 175.782 247.91Z" fill="url(#paint0_linear)"/>
<path d="M128.929 280.009C122.909 280.009 117.4 279.566 112.85 278.694C112.585 278.643 112.414 278.39 112.463 278.125C112.515 277.86 112.768 277.689 113.033 277.739C120.155 279.102 129.665 279.402 139.815 278.584C148.121 277.914 155.887 276.577 162.277 274.712C162.535 274.637 162.805 274.785 162.882 275.042C162.957 275.3 162.81 275.569 162.552 275.647C156.1 277.528 148.266 278.879 139.895 279.554C136.123 279.859 132.438 280.009 128.929 280.009Z" fill="#91B3FA"/>
<path d="M129.03 270.692C121.207 270.692 114.219 269.956 109.289 268.553C109.031 268.48 108.881 268.211 108.954 267.951C109.029 267.693 109.296 267.543 109.557 267.616C116.582 269.614 127.895 270.235 139.818 269.274C151.611 268.323 162.61 265.931 169.242 262.877C169.486 262.764 169.777 262.872 169.889 263.116C170.002 263.359 169.894 263.65 169.65 263.762C162.922 266.864 151.799 269.286 139.897 270.247C136.18 270.546 132.523 270.692 129.03 270.692Z" fill="#91B3FA"/>
<path d="M128.929 261.392C120.483 261.392 113.094 260.527 108.12 258.89C107.864 258.805 107.726 258.531 107.81 258.276C107.895 258.021 108.169 257.882 108.424 257.967C115.347 260.249 127.082 260.996 139.815 259.972C151.609 259.021 162.608 256.629 169.24 253.574C169.484 253.462 169.774 253.57 169.887 253.813C169.999 254.057 169.891 254.347 169.648 254.46C162.917 257.562 151.797 259.986 139.895 260.944C136.123 261.242 132.436 261.392 128.929 261.392Z" fill="#91B3FA"/>
<path d="M128.995 252.077C122.295 252.077 116.202 251.536 111.467 250.484C111.205 250.426 111.038 250.166 111.097 249.903C111.155 249.641 111.416 249.475 111.678 249.533C118.8 251.115 129.058 251.524 139.815 250.658C151.504 249.716 162.446 247.35 169.09 244.328C169.334 244.215 169.622 244.325 169.734 244.569C169.847 244.813 169.737 245.101 169.493 245.213C162.753 248.28 151.689 250.676 139.895 251.628C136.168 251.93 132.497 252.077 128.995 252.077Z" fill="#91B3FA"/>
<path d="M88.7753 200.922C86.3139 192.207 82.1319 184.064 76.5011 176.971C64.4332 161.774 44.7467 130.865 42.3228 88.6813C38.7995 27.3207 93.2527 -3.39822 142.945 0.77167C192.635 4.94156 241.668 41.9153 236.3 98.9983C232.997 134.121 213.325 160.762 198.678 176.062C189.376 185.776 182.742 197.677 179.151 210.634C174.756 226.494 164.296 246.259 139.431 247.463C107.259 249.023 93.8974 219.056 88.7753 200.922Z" fill="#FFF100"/>
<path d="M147.65 235.229L165.036 122.22C165.395 119.885 166.546 118.318 167.603 118.718C168.663 119.119 169.23 121.337 168.872 123.671C168.862 123.734 168.848 123.809 168.839 123.87L149.035 235.829C148.887 236.67 148.458 237.202 148.079 237.017C147.711 236.836 147.525 236.044 147.65 235.229Z" fill="url(#paint1_linear)"/>
<path d="M129.602 236.127L112.215 123.118C111.856 120.782 110.705 119.215 109.648 119.616C108.588 120.016 108.021 122.235 108.38 124.568C108.389 124.629 108.403 124.706 108.412 124.767L128.216 236.726C128.366 237.567 128.793 238.099 129.173 237.914C129.541 237.734 129.728 236.942 129.602 236.127Z" fill="url(#paint2_linear)"/>
<path opacity="0.76" d="M164.912 112.515C164.472 111.805 163.45 111.541 162.629 111.923L152.948 116.444L149.586 106.874C149.408 106.375 148.995 105.932 148.409 105.691C147.296 105.232 145.964 105.642 145.434 106.607L145.418 106.638L137.457 121.145L130.068 100.493L130.056 100.458C129.876 99.954 129.494 99.5019 128.938 99.1973C127.698 98.5203 126.062 98.8436 125.284 99.9165L114.153 115.23C113.701 115.858 113.856 116.699 114.545 117.163C115.281 117.657 116.341 117.542 116.913 116.905L126.714 105.979L135.537 125.625L135.544 125.639C135.685 125.953 135.952 126.227 136.323 126.4C137.15 126.787 138.184 126.519 138.632 125.803L147.146 112.147L150.35 119.053L150.378 119.114C150.402 119.164 150.428 119.213 150.458 119.262C150.899 119.972 151.921 120.237 152.739 119.855L164.23 114.488C165.048 114.111 165.353 113.225 164.912 112.515Z" fill="white"/>
<path d="M199.056 162.401C198.409 162.401 197.759 162.202 197.201 161.787C195.821 160.763 195.532 158.812 196.557 157.432C199.496 153.473 202.192 149.383 204.564 145.276C205.425 143.789 207.328 143.278 208.819 144.138C210.31 144.998 210.819 146.902 209.958 148.39C207.467 152.702 204.639 156.994 201.559 161.143C200.947 161.968 200.007 162.401 199.056 162.401Z" fill="white"/>
<path opacity="0.66" d="M213.36 137.872C212.947 137.872 212.525 137.79 212.12 137.614C210.542 136.93 209.818 135.096 210.502 133.519C228.714 91.6046 213.036 56.4815 212.874 56.1301C212.157 54.5675 212.844 52.7192 214.408 52.0024C215.976 51.2879 217.821 51.9719 218.538 53.5344C219.239 55.0665 235.524 91.5577 216.217 135.995C215.709 137.171 214.562 137.872 213.36 137.872Z" fill="white"/>
<path d="M225.829 176.991L208.777 177.202L214.745 171.589C216.229 170.193 218.494 169.968 220.205 171.078C221.208 171.727 222.296 172.61 223.236 173.779C223.236 173.779 233.874 169.895 239.029 161.202C240.635 163.586 242.512 166.831 244.139 170.867C239.519 173.578 233.527 175.712 225.829 176.991Z" fill="url(#paint3_linear)"/>
<path d="M203.655 298.52C208.196 298.911 216.074 299.548 222.284 299.823C226.018 299.987 228.168 299.621 229.406 299.127C229.404 299.267 229.399 299.399 229.394 299.52C229.364 300.174 228.834 300.696 228.173 300.734C216.435 301.387 207.101 300.961 203.779 300.757C203.092 300.715 202.682 299.97 203.034 299.384C203.21 299.089 203.423 298.803 203.655 298.52Z" fill="#91B3FA"/>
<path d="M222.284 299.823C216.072 299.549 208.193 298.912 203.655 298.52C208.118 293.048 222.284 289.358 222.284 289.358H226.286C229.038 293.322 229.436 297.096 229.406 299.125C228.168 299.621 226.019 299.987 222.284 299.823Z" fill="url(#paint4_linear)"/>
<path d="M226.959 282.832L226.584 290.237C226.544 291.038 225.944 291.713 225.14 291.827C224.34 291.942 223.269 291.956 222.134 291.579C221.436 291.347 220.918 290.759 220.789 290.04L219.495 282.832H226.959Z" fill="url(#paint5_linear)"/>
<path d="M273.397 304.885C275.366 304.566 276.257 303.376 276.63 302.104C276.632 302.116 276.634 302.127 276.637 302.139C276.927 303.481 276.255 304.871 274.911 305.534C273.289 306.332 271.515 306.468 270.139 306.403C268.662 306.332 267.305 305.62 266.559 304.482L266.547 304.465C268.034 305.316 270.115 305.416 273.397 304.885Z" fill="#91B3FA"/>
<path d="M264.116 285.113H267.417C272.443 284.994 275.598 297.328 276.632 302.104C276.259 303.376 275.369 304.566 273.4 304.885C270.115 305.417 268.034 305.318 266.552 304.463C263.838 300.305 262.49 294.217 261.843 290.663C261.104 286.622 264.116 285.113 264.116 285.113Z" fill="url(#paint6_linear)"/>
<path d="M266.993 278.24L268.826 285.523C269.051 286.416 268.622 287.339 267.797 287.763C266.772 288.287 265.328 288.84 264.001 288.681C263.378 288.606 262.86 288.168 262.654 287.58L259.962 279.917L266.993 278.24Z" fill="url(#paint7_linear)"/>
<path d="M202.537 182.321C202.537 182.321 218.911 284.605 218.641 285.167C218.641 285.167 223.163 287.221 228.093 285.429C228.093 285.429 226.612 230.75 223.142 209.786C223.142 209.786 251.087 258.658 259.963 283.009C259.963 283.009 264.59 282.459 268.423 279.938C268.423 279.938 238.333 191.972 230.306 180.254L202.537 182.321Z" fill="url(#paint8_linear)"/>
<path d="M222.491 209.563C222.634 209.563 222.779 209.526 222.91 209.444C223.281 209.212 223.393 208.725 223.161 208.355L217.043 198.588C216.928 198.403 216.74 198.274 216.527 198.232L212.024 197.326C211.595 197.237 211.177 197.518 211.091 197.944C211.004 198.373 211.283 198.79 211.71 198.876L215.88 199.715L221.818 209.193C221.968 209.43 222.226 209.563 222.491 209.563Z" fill="url(#paint9_linear)"/>
<path d="M200.863 116.225C203.617 110.453 227.395 109.844 244.814 115.595C248.481 116.806 251.451 119.515 252.979 123.024C257.691 133.83 265.321 158.442 244.142 170.865C242.515 166.829 240.637 163.582 239.031 161.199C242.442 155.451 243.452 147.598 237.4 137.372C232.986 149.282 230.916 166.658 230.484 174.349C230.341 176.881 230.787 179.406 231.781 181.744L231.888 182C232.102 182.501 231.809 183.075 231.274 183.194C219.352 185.87 206.951 185.143 203.245 184.839C202.584 184.785 202.033 184.312 201.883 183.672C196.083 159.26 196.716 124.917 200.863 116.225Z" fill="url(#paint10_linear)"/>
<path d="M226.891 96.6812C226.891 96.6812 228.098 109.425 229.16 113.197C229.322 113.768 229.073 114.373 228.553 114.668C226.75 115.696 222.427 117.376 216.513 114.48C215.554 114.012 214.98 113.014 215.024 111.957L215.545 99.6422L226.891 96.6812Z" fill="url(#paint11_linear)"/>
<path d="M215.285 80.376C215.285 80.376 211.426 89.2311 211.168 93.8813C210.908 98.529 209.907 101.546 215.285 102.481C220.662 103.418 225.193 100.74 227.648 96.1091C227.648 96.1091 231.495 88.9734 230.632 86.0522C229.767 83.1309 215.285 80.376 215.285 80.376Z" fill="url(#paint12_linear)"/>
<path d="M225.81 92.7806L225.503 92.6447C225.114 92.4737 224.947 92.0099 225.142 91.6304C225.901 90.1662 227.378 86.8092 225.468 86.0268C223.006 85.0171 213.257 83.0306 211.152 79.5728C209.131 76.251 210.922 71.9616 213.613 70.7411C213.794 70.6591 214.005 70.7247 214.098 70.8981L214.323 71.3221C214.478 71.6126 214.907 71.5681 214.999 71.2518C215.085 70.9496 215.489 70.8911 215.657 71.1581C216.304 72.1936 218.051 73.8685 222.718 74.7306C229.352 75.9535 233.74 78.6381 233.848 83.2203C233.855 83.5108 234.165 83.6724 234.413 83.5225C234.903 83.225 235.686 83.0844 236.734 83.9653C238.555 85.4974 237.81 89.4681 233.815 92.7361C233.626 92.8907 233.628 93.1882 233.832 93.3217C234.556 93.7926 235.634 94.9147 232.838 96.407C229.945 97.9531 227.784 97.8266 226.952 97.6884C226.745 97.6533 226.612 97.4541 226.656 97.2503L227.545 93.2234C227.594 92.9961 227.42 92.7806 227.188 92.7806H225.81Z" fill="url(#paint13_linear)"/>
<path d="M225.644 93.6313C225.644 93.6313 227.116 87.9738 229.654 89.5598C232.193 91.1457 228.337 95.8989 226.298 96.1098L225.644 93.6313Z" fill="url(#paint14_linear)"/>
<path d="M232.972 170.13C232.972 170.13 231.52 167.712 228.135 167.712C224.75 167.712 220.88 173.995 220.88 173.995C220.88 173.995 226.199 176.41 228.135 178.345C230.069 180.278 232.972 173.995 232.972 170.13Z" fill="url(#paint15_linear)"/>
<path d="M159.652 32.1138C144.848 37.4128 130.486 50.6768 132.485 67.6117C134.185 82.0119 150.721 86.2614 160.751 87.7794C163.548 88.2035 166.092 89.6348 167.906 91.8041C172.25 96.9954 181.556 105.644 191.77 99.8862C192.513 99.4669 192.18 98.326 191.327 98.3588C188.612 98.4665 184.758 98.0753 182.135 95.5265C178.563 92.0548 179.857 86.0295 184.472 84.1531C193.209 80.6016 209.691 70.9312 207.558 49.0182C204.672 19.3816 159.652 32.1138 159.652 32.1138Z" fill="white"/>
<path d="M138.156 55.3572C138.031 55.3572 137.905 55.3338 137.785 55.2822C137.302 55.0761 137.077 54.5209 137.284 54.0383C142.783 41.1023 155.934 35.3464 165.995 32.7953C166.504 32.6641 167.02 32.9733 167.149 33.4817C167.278 33.99 166.97 34.5054 166.462 34.6343C156.815 37.08 144.227 42.5594 139.03 54.7809C138.875 55.1393 138.526 55.3572 138.156 55.3572Z" fill="#BDD0FB"/>
<path d="M135.983 68.5604C135.518 68.5604 135.113 68.2207 135.045 67.7475C135.033 67.6702 134.773 65.8195 135.033 62.9592C135.08 62.4368 135.542 62.0502 136.065 62.0994C136.587 62.1463 136.972 62.6078 136.925 63.1302C136.683 65.7703 136.923 67.457 136.925 67.4734C137 67.9912 136.641 68.4737 136.121 68.5487C136.074 68.5557 136.029 68.5604 135.983 68.5604Z" fill="#BDD0FB"/>
<path d="M168.816 77.3177V74.8673C166.258 74.7642 163.729 74.1622 161.933 73.375C161.291 73.0939 160.965 72.3747 161.148 71.7001L161.771 69.416C162.001 68.5773 162.91 68.1439 163.712 68.4813C165.494 69.2286 167.695 69.8189 170.067 69.8189C172.531 69.8189 174.367 68.9849 174.367 67.2748C174.367 65.731 172.948 64.8127 169.523 63.8968C164.64 62.5615 161.134 60.4343 161.134 56.138C161.134 52.2586 163.972 49.2951 168.898 48.5033V46.0506C168.898 45.2611 169.538 44.6216 170.328 44.6216H171.769C172.559 44.6216 173.199 45.2611 173.199 46.0506V48.2527C175.564 48.3464 177.287 48.7516 178.654 49.2319C179.355 49.4779 179.737 50.2322 179.543 50.9467L178.971 53.0574C178.75 53.8726 177.878 54.3177 177.088 54.0202C175.829 53.5447 174.05 53.0504 171.739 53.0504C168.815 53.0504 167.981 54.2592 167.981 55.3438C167.981 56.6791 169.734 57.5974 173.532 58.764C178.959 60.3898 181.214 62.6434 181.214 66.6892C181.214 70.4022 178.46 73.7405 173.115 74.5745V77.3177C173.115 78.1072 172.475 78.7467 171.685 78.7467H170.243C169.455 78.7467 168.816 78.1072 168.816 77.3177Z" fill="#91B3FA"/>
<path d="M93.4594 227.426C109.926 227.426 123.275 214.086 123.275 197.63C123.275 181.175 109.926 167.834 93.4594 167.834C76.9925 167.834 63.6436 181.175 63.6436 197.63C63.6436 214.086 76.9925 227.426 93.4594 227.426Z" fill="url(#paint16_linear)"/>
<path d="M93.4592 226.436C109.378 226.436 122.283 213.539 122.283 197.631C122.283 181.722 109.378 168.826 93.4592 168.826C77.54 168.826 64.635 181.722 64.635 197.631C64.635 213.539 77.54 226.436 93.4592 226.436Z" fill="url(#paint17_linear)"/>
<path opacity="0.78" d="M69.689 186.327C69.5882 186.327 69.4874 186.304 69.3913 186.257C69.0655 186.093 68.9342 185.695 69.0983 185.369C73.7679 176.125 83.1025 170.381 93.4568 170.381C95.1094 170.381 96.7644 170.531 98.3749 170.824C98.7335 170.889 98.9726 171.234 98.907 171.592C98.8414 171.95 98.4968 172.187 98.1381 172.124C96.605 171.845 95.0297 171.702 93.4568 171.702C83.6041 171.702 74.722 177.167 70.2798 185.964C70.1649 186.194 69.9305 186.327 69.689 186.327Z" fill="white"/>
<path opacity="0.78" d="M111.335 215.496C120.862 205.975 120.862 190.539 111.335 181.018C101.808 171.498 86.3611 171.498 76.8339 181.018C67.3068 190.539 67.3068 205.975 76.8339 215.496C86.3611 225.017 101.808 225.017 111.335 215.496Z" fill="white"/>
<path d="M91.6916 216.383V213.731C88.9254 213.621 86.1874 212.967 84.2441 212.117C83.5502 211.812 83.1962 211.035 83.3955 210.304L84.0706 207.832C84.3191 206.926 85.3036 206.457 86.171 206.82C88.1003 207.628 90.4796 208.268 93.0465 208.268C95.7119 208.268 97.6997 207.366 97.6997 205.515C97.6997 203.845 96.1643 202.852 92.4605 201.859C87.1767 200.413 83.3814 198.113 83.3814 193.463C83.3814 189.265 86.4523 186.06 91.783 185.202V182.551C91.783 181.698 92.4745 181.004 93.3302 181.004H94.8891C95.7423 181.004 96.4362 181.695 96.4362 182.551V184.933C98.9961 185.036 100.86 185.472 102.339 185.992C103.096 186.259 103.511 187.074 103.3 187.85L102.679 190.134C102.44 191.014 101.497 191.497 100.642 191.174C99.2797 190.658 97.3551 190.124 94.8515 190.124C91.6892 190.124 90.7867 191.434 90.7867 192.607C90.7867 194.053 92.6832 195.044 96.7949 196.309C102.667 198.068 105.107 200.507 105.107 204.885C105.107 208.903 102.126 212.515 96.3448 213.417V216.385C96.3448 217.238 95.6533 217.931 94.7976 217.931H93.2387C92.3854 217.929 91.6916 217.238 91.6916 216.383Z" fill="url(#paint18_linear)"/>
<path d="M121.819 246.275H65.099C64.6278 246.275 64.248 245.893 64.248 245.425V236.008C64.248 235.537 64.6302 235.157 65.099 235.157H121.819C122.29 235.157 122.67 235.539 122.67 236.008V245.425C122.67 245.893 122.288 246.275 121.819 246.275Z" fill="url(#paint19_linear)"/>
<path d="M121.864 259.481H65.1437C64.6725 259.481 64.2927 259.099 64.2927 258.631V249.213C64.2927 248.742 64.6748 248.363 65.1437 248.363H121.864C122.335 248.363 122.715 248.745 122.715 249.213V258.631C122.717 259.099 122.335 259.481 121.864 259.481Z" fill="url(#paint20_linear)"/>
<path d="M121.911 272.686H65.1905C64.7194 272.686 64.3396 272.304 64.3396 271.836V262.418C64.3396 261.947 64.7217 261.568 65.1905 261.568H121.911C122.382 261.568 122.762 261.95 122.762 262.418V271.836C122.762 272.304 122.379 272.686 121.911 272.686Z" fill="url(#paint21_linear)"/>
<path d="M121.955 285.892H65.2374C64.7662 285.892 64.3865 285.51 64.3865 285.041V275.624C64.3865 275.153 64.7686 274.773 65.2374 274.773H121.957C122.429 274.773 122.808 275.155 122.808 275.624V285.041C122.808 285.512 122.426 285.892 121.955 285.892Z" fill="url(#paint22_linear)"/>
<path d="M122.002 299.099H65.2821C64.8109 299.099 64.4312 298.717 64.4312 298.249V288.831C64.4312 288.36 64.8133 287.981 65.2821 287.981H122.002C122.473 287.981 122.853 288.363 122.853 288.831V298.249C122.853 298.717 122.473 299.099 122.002 299.099Z" fill="url(#paint23_linear)"/>
<path d="M30.1659 240.634C46.6327 240.634 59.9817 227.294 59.9817 210.838C59.9817 194.382 46.6327 181.042 30.1659 181.042C13.6991 181.042 0.350098 194.382 0.350098 210.838C0.350098 227.294 13.6991 240.634 30.1659 240.634Z" fill="url(#paint24_linear)"/>
<path d="M30.1658 239.643C46.0849 239.643 58.9899 226.747 58.9899 210.838C58.9899 194.93 46.0849 182.033 30.1658 182.033C14.2466 182.033 1.34155 194.93 1.34155 210.838C1.34155 226.747 14.2466 239.643 30.1658 239.643Z" fill="url(#paint25_linear)"/>
<path opacity="0.78" d="M6.39801 199.533C6.29721 199.533 6.19641 199.509 6.1003 199.462C5.77446 199.299 5.64318 198.9 5.80728 198.575C10.4769 189.331 19.8115 183.586 30.1658 183.586C31.8184 183.586 33.4734 183.736 35.0839 184.029C35.4426 184.095 35.6817 184.439 35.616 184.798C35.5504 185.156 35.2058 185.395 34.8471 185.329C33.314 185.051 31.7387 184.908 30.1658 184.908C20.3131 184.908 11.431 190.373 6.98875 199.17C6.87154 199.399 6.63946 199.533 6.39801 199.533Z" fill="white"/>
<path opacity="0.78" d="M33.3949 235.713C46.7917 234.275 56.4854 222.257 55.0464 208.869C53.6074 195.481 41.5807 185.794 28.184 187.232C14.7872 188.67 5.09352 200.688 6.5325 214.076C7.97147 227.464 19.9982 237.151 33.3949 235.713Z" fill="white"/>
<path d="M28.4006 229.588V226.937C25.6344 226.826 22.8964 226.173 20.9531 225.323C20.2592 225.018 19.9052 224.24 20.1045 223.509L20.7796 221.038C21.0281 220.131 22.0126 219.663 22.88 220.026C24.8092 220.834 27.1886 221.474 29.7555 221.474C32.4208 221.474 34.4087 220.572 34.4087 218.721C34.4087 217.051 32.8733 216.057 29.1694 215.064C23.8856 213.619 20.0904 211.318 20.0904 206.668C20.0904 202.47 23.1613 199.265 28.492 198.408V195.756C28.492 194.903 29.1835 194.21 30.0391 194.21H31.598C32.4513 194.21 33.1452 194.901 33.1452 195.756V198.139C35.7051 198.242 37.5687 198.677 39.0479 199.197C39.805 199.465 40.22 200.28 40.009 201.055L39.3878 203.339C39.1487 204.22 38.2063 204.703 37.3507 204.379C35.9887 203.864 34.0641 203.33 31.5605 203.33C28.3982 203.33 27.4957 204.639 27.4957 205.813C27.4957 207.258 29.3921 208.252 33.5039 209.514C39.3761 211.274 41.8164 213.712 41.8164 218.091C41.8164 222.108 38.8345 225.721 33.0538 226.623V229.591C33.0538 230.444 32.3622 231.137 31.5066 231.137H29.9477C29.0921 231.135 28.4006 230.444 28.4006 229.588Z" fill="url(#paint26_linear)"/>
<path d="M58.5257 259.48H1.80797C1.33679 259.48 0.957031 259.099 0.957031 258.63V249.213C0.957031 248.742 1.33914 248.362 1.80797 248.362H58.5281C58.9992 248.362 59.379 248.744 59.379 249.213V258.63C59.379 259.099 58.9969 259.48 58.5257 259.48Z" fill="url(#paint27_linear)"/>
<path d="M58.5728 272.686H1.85265C1.38147 272.686 1.00171 272.304 1.00171 271.836V262.418C1.00171 261.947 1.38381 261.568 1.85265 261.568H58.5728C59.0439 261.568 59.4237 261.95 59.4237 262.418V271.836C59.4237 272.304 59.0439 272.686 58.5728 272.686Z" fill="url(#paint28_linear)"/>
<path d="M58.6173 285.892H1.89953C1.42834 285.892 1.04858 285.51 1.04858 285.041V275.624C1.04858 275.153 1.43069 274.773 1.89953 274.773H58.6196C59.0908 274.773 59.4706 275.155 59.4706 275.624V285.041C59.4706 285.512 59.0885 285.892 58.6173 285.892Z" fill="url(#paint29_linear)"/>
<path d="M58.664 299.099H1.94396C1.47278 299.099 1.09302 298.717 1.09302 298.249V288.831C1.09302 288.36 1.47512 287.981 1.94396 287.981H58.664C59.1352 287.981 59.515 288.363 59.515 288.831V298.249C59.515 298.717 59.1352 299.099 58.664 299.099Z" fill="url(#paint30_linear)"/>
<defs>
<linearGradient id="paint0_linear" x1="139.228" y1="226.755" x2="138.927" y2="285.996" gradientUnits="userSpaceOnUse">
<stop stop-color="#4F52FF"/>
<stop offset="1" stop-color="#4042E2"/>
</linearGradient>
<linearGradient id="paint1_linear" x1="353.796" y1="-79.4257" x2="270.669" y2="29.704" gradientUnits="userSpaceOnUse">
<stop stop-color="#E1473D"/>
<stop offset="1" stop-color="#E9605A"/>
</linearGradient>
<linearGradient id="paint2_linear" x1="330.053" y1="-97.5118" x2="246.925" y2="11.618" gradientUnits="userSpaceOnUse">
<stop stop-color="#E1473D"/>
<stop offset="1" stop-color="#E9605A"/>
</linearGradient>
<linearGradient id="paint3_linear" x1="204.28" y1="139.785" x2="219.702" y2="162.933" gradientUnits="userSpaceOnUse">
<stop stop-color="#FEBBBA"/>
<stop offset="1" stop-color="#FF928E"/>
</linearGradient>
<linearGradient id="paint4_linear" x1="202.994" y1="255.496" x2="209.02" y2="274.22" gradientUnits="userSpaceOnUse">
<stop stop-color="#4F52FF"/>
<stop offset="1" stop-color="#4042E2"/>
</linearGradient>
<linearGradient id="paint5_linear" x1="226.959" y1="287.364" x2="219.495" y2="287.364" gradientUnits="userSpaceOnUse">
<stop stop-color="#FEBBBA"/>
<stop offset="1" stop-color="#FF928E"/>
</linearGradient>
<linearGradient id="paint6_linear" x1="250.985" y1="240.051" x2="257.011" y2="258.775" gradientUnits="userSpaceOnUse">
<stop stop-color="#4F52FF"/>
<stop offset="1" stop-color="#4042E2"/>
</linearGradient>
<linearGradient id="paint7_linear" x1="268.883" y1="283.474" x2="259.962" y2="283.474" gradientUnits="userSpaceOnUse">
<stop stop-color="#FEBBBA"/>
<stop offset="1" stop-color="#FF928E"/>
</linearGradient>
<linearGradient id="paint8_linear" x1="196.726" y1="187.27" x2="272.816" y2="311.996" gradientUnits="userSpaceOnUse">
<stop stop-color="#09005D"/>
<stop offset="1" stop-color="#1A0F91"/>
</linearGradient>
<linearGradient id="paint9_linear" x1="301.378" y1="39.8199" x2="199.321" y2="238.397" gradientUnits="userSpaceOnUse">
<stop stop-color="#4F52FF"/>
<stop offset="1" stop-color="#4042E2"/>
</linearGradient>
<linearGradient id="paint10_linear" x1="277.349" y1="81.3478" x2="183.202" y2="190.313" gradientUnits="userSpaceOnUse">
<stop stop-color="#4F52FF"/>
<stop offset="1" stop-color="#4042E2"/>
</linearGradient>
<linearGradient id="paint11_linear" x1="228.22" y1="130.119" x2="218.691" y2="96.5538" gradientUnits="userSpaceOnUse">
<stop stop-color="#FEBBBA"/>
<stop offset="1" stop-color="#FF928E"/>
</linearGradient>
<linearGradient id="paint12_linear" x1="214.475" y1="88.1714" x2="236.518" y2="105.049" gradientUnits="userSpaceOnUse">
<stop stop-color="#FEBBBA"/>
<stop offset="1" stop-color="#FF928E"/>
</linearGradient>
<linearGradient id="paint13_linear" x1="230" y1="74.8196" x2="209.477" y2="101.26" gradientUnits="userSpaceOnUse">
<stop stop-color="#09005D"/>
<stop offset="1" stop-color="#1A0F91"/>
</linearGradient>
<linearGradient id="paint14_linear" x1="217.211" y1="84.5993" x2="239.254" y2="101.477" gradientUnits="userSpaceOnUse">
<stop stop-color="#FEBBBA"/>
<stop offset="1" stop-color="#FF928E"/>
</linearGradient>
<linearGradient id="paint15_linear" x1="225.601" y1="176.249" x2="258.193" y2="106.442" gradientUnits="userSpaceOnUse">
<stop stop-color="#FEBBBA"/>
<stop offset="1" stop-color="#FF928E"/>
</linearGradient>
<linearGradient id="paint16_linear" x1="52.6581" y1="244.958" x2="92.6205" y2="198.542" gradientUnits="userSpaceOnUse">
<stop stop-color="#E1473D"/>
<stop offset="1" stop-color="#E9605A"/>
</linearGradient>
<linearGradient id="paint17_linear" x1="115.25" y1="164.734" x2="-2.90114" y2="343.345" gradientUnits="userSpaceOnUse">
<stop stop-color="#FF928E"/>
<stop offset="1" stop-color="#FE7062"/>
</linearGradient>
<linearGradient id="paint18_linear" x1="111.722" y1="169.849" x2="48.8124" y2="275.533" gradientUnits="userSpaceOnUse">
<stop stop-color="#FF928E"/>
<stop offset="1" stop-color="#FE7062"/>
</linearGradient>
<linearGradient id="paint19_linear" x1="95.6428" y1="230.31" x2="89.868" y2="257.853" gradientUnits="userSpaceOnUse">
<stop stop-color="#FF928E"/>
<stop offset="1" stop-color="#FE7062"/>
</linearGradient>
<linearGradient id="paint20_linear" x1="95.6888" y1="243.516" x2="89.9139" y2="271.059" gradientUnits="userSpaceOnUse">
<stop stop-color="#FF928E"/>
<stop offset="1" stop-color="#FE7062"/>
</linearGradient>
<linearGradient id="paint21_linear" x1="95.7347" y1="256.722" x2="89.9598" y2="284.265" gradientUnits="userSpaceOnUse">
<stop stop-color="#FF928E"/>
<stop offset="1" stop-color="#FE7062"/>
</linearGradient>
<linearGradient id="paint22_linear" x1="95.7805" y1="269.928" x2="90.0057" y2="297.471" gradientUnits="userSpaceOnUse">
<stop stop-color="#FF928E"/>
<stop offset="1" stop-color="#FE7062"/>
</linearGradient>
<linearGradient id="paint23_linear" x1="95.8266" y1="283.134" x2="90.0517" y2="310.677" gradientUnits="userSpaceOnUse">
<stop stop-color="#FF928E"/>
<stop offset="1" stop-color="#FE7062"/>
</linearGradient>
<linearGradient id="paint24_linear" x1="-10.6339" y1="258.164" x2="29.3285" y2="211.748" gradientUnits="userSpaceOnUse">
<stop stop-color="#E1473D"/>
<stop offset="1" stop-color="#E9605A"/>
</linearGradient>
<linearGradient id="paint25_linear" x1="51.9575" y1="177.94" x2="-66.1932" y2="356.551" gradientUnits="userSpaceOnUse">
<stop stop-color="#FF928E"/>
<stop offset="1" stop-color="#FE7062"/>
</linearGradient>
<linearGradient id="paint26_linear" x1="48.4297" y1="183.055" x2="-14.4797" y2="288.74" gradientUnits="userSpaceOnUse">
<stop stop-color="#FF928E"/>
<stop offset="1" stop-color="#FE7062"/>
</linearGradient>
<linearGradient id="paint27_linear" x1="32.3509" y1="243.516" x2="26.576" y2="271.059" gradientUnits="userSpaceOnUse">
<stop stop-color="#FF928E"/>
<stop offset="1" stop-color="#FE7062"/>
</linearGradient>
<linearGradient id="paint28_linear" x1="32.3969" y1="256.722" x2="26.6221" y2="284.265" gradientUnits="userSpaceOnUse">
<stop stop-color="#FF928E"/>
<stop offset="1" stop-color="#FE7062"/>
</linearGradient>
<linearGradient id="paint29_linear" x1="32.4428" y1="269.928" x2="26.668" y2="297.471" gradientUnits="userSpaceOnUse">
<stop stop-color="#FF928E"/>
<stop offset="1" stop-color="#FE7062"/>
</linearGradient>
<linearGradient id="paint30_linear" x1="32.4886" y1="283.134" x2="26.7137" y2="310.677" gradientUnits="userSpaceOnUse">
<stop stop-color="#FF928E"/>
<stop offset="1" stop-color="#FE7062"/>
</linearGradient>
</defs>
</svg>
