<svg width="53" height="86" viewBox="0 0 53 86" fill="none" xmlns="http://www.w3.org/2000/svg">
<path d="M51.27 54.89C50.34 53.32 49.13 52.03 47.66 51C43.92 54.38 40.62 56.78 34.16 58.14C34.35 58.82 34.45 59.57 34.45 60.4C34.45 63.05 33.66 65.06 32.09 66.43C30.52 67.8 28.46 68.48 25.93 68.48C24.94 68.48 23.55 68.37 21.76 68.16C20.4 68 19.18 67.72 18.11 67.34C18.02 67.32 17.94 67.29 17.83 67.27V67.28C17.83 67.28 17.81 67.27 17.79 67.26C15.49 66.69 9.04001 65.83 4.74001 68.97C3.46001 69.91 2.49001 71.14 1.82001 72.66C1.73001 72.88 1.64001 73.1 1.56001 73.32C1.53001 73.39 1.51001 73.47 1.48001 73.54C1.03001 74.91 0.76001 76.5 0.76001 78.32C3.08001 78.87 5.86001 79.31 8.49001 79.66V86H17.48V80.57C17.65 80.58 17.76 80.59 17.77 80.59C20.95 80.84 23.84 80.97 26.46 80.99V85.99H35.45V80.03C37.19 79.6 38.84 79.02 40.4 78.29C44.25 76.49 47.27 74.11 49.47 71.14C51.67 68.18 52.77 64.99 52.77 61.56C52.78 58.83 52.28 56.6 51.27 54.89Z" fill="#141DF0"/>
<path d="M3.31002 63.04C8.01002 59.61 14.63 60.11 17.84 60.8V50.29C19.3 50.8 21.21 51.26 22.55 51.6C24.38 52.06 26.46 52.29 28.78 52.29C30.15 52.29 31.5 52.18 32.83 51.96C34.25 51.69 35.51 51.39 36.64 51.03C36.85 50.96 37.06 50.89 37.26 50.82C37.31 50.8 37.36 50.78 37.41 50.77C38.3 50.44 39.19 50.06 40.05 49.63C40.34 49.48 40.62 49.33 40.9 49.17C42.72 48.11 44.27 46.82 45.97 45.29C46.96 44.26 47.86 43.13 48.67 41.89C50.87 38.5 51.97 34.45 51.97 29.75C51.97 26.15 51.25 22.91 49.82 20.04C48.38 17.17 46.48 14.73 44.09 12.71C41.71 10.69 39.04 9.17002 36.07 8.13002V0.53002H27.08V6.58002C27.04 6.58002 26.99 6.58002 26.95 6.58002H18.1V0.52002H9.11002V7.64002C6.22002 8.00002 3.43002 8.45002 0.77002 8.97002V65.61C1.47002 64.63 2.31002 63.77 3.31002 63.04ZM17.84 22.59H24.94C27.63 22.59 29.87 23.16 31.67 24.29C33.47 25.42 34.37 27.24 34.37 29.74C34.37 31.94 33.47 33.88 31.67 35.56C29.87 37.24 27.62 38.08 24.94 38.08C23.6 38.08 22.33 37.96 21.14 37.71C20.34 37.55 18.97 37.31 17.85 37.06V22.59H17.84Z" fill="#231F20"/>
</svg>
