<svg width="271" height="236" viewBox="0 0 271 236" fill="none" xmlns="http://www.w3.org/2000/svg">
<g clip-path="url(#clip0)">
<path d="M9.68848 14.8876C-12.4608 40.7658 6.78396 68.9631 33.2217 89.2896C83.8044 128.181 80.5494 161.183 99.1051 201.527C121.029 249.203 189.894 251.35 209.299 183.099C216.337 158.354 229.06 140.186 249.095 120.221C299.624 69.8706 253.146 26.4892 206.347 22.2542C166.2 18.6243 158.698 29.8166 109.672 16.4712C71.4913 6.09148 34.3205 -13.891 9.68848 14.8876Z" fill="white"/>
<path d="M63.1334 72.7531C74.7395 72.7531 84.1481 63.3579 84.1481 51.7682C84.1481 40.1786 74.7395 30.7833 63.1334 30.7833C51.5272 30.7833 42.1186 40.1786 42.1186 51.7682C42.1186 63.3579 51.5272 72.7531 63.1334 72.7531Z" fill="#141DF0"/>
<path d="M75.7672 50.3506H75.5949C76.5334 50.3506 77.3293 49.6566 77.4481 48.7254C77.5907 47.6103 76.7235 46.6258 75.5949 46.6258H74.6446L68.3544 46.0445C67.6179 45.9792 67.0892 45.3149 67.1843 44.5854C67.2853 43.7847 67.3744 42.8416 67.4041 41.946C67.4694 39.7455 66.0082 37.023 63.9768 38.0017C63.1512 38.3991 63.6501 41.1334 63.2522 42.2129C62.8542 43.2983 59.0766 46.4893 58.0133 48.7492C57.3719 49.022 56.9501 49.6507 56.9501 50.3506V58.4943C56.9501 58.9569 57.1343 59.3958 57.461 59.722L58.34 60.5999C58.9459 61.2049 59.7656 61.5429 60.6209 61.5429H68.9009H72.4053H73.5338C74.4723 61.5429 75.2682 60.849 75.387 59.9178C75.5296 58.8027 74.6624 57.8181 73.5338 57.8181H74.9119C75.8503 57.8181 76.6463 57.1241 76.7651 56.1929C76.9076 55.0778 76.0404 54.0932 74.9119 54.0932H75.7672C76.7057 54.0932 77.5016 53.3993 77.6204 52.4681C77.7629 51.3411 76.8957 50.3506 75.7672 50.3506Z" fill="#007CFF"/>
<path d="M54.6396 61.6972H49.7274C49.1156 61.6972 48.6226 61.2049 48.6226 60.594V48.8322C48.6226 48.2213 49.1156 47.729 49.7274 47.729H54.6396C55.2514 47.729 55.7443 48.2213 55.7443 48.8322V60.594C55.7443 61.199 55.2514 61.6972 54.6396 61.6972Z" fill="#007CFF"/>
<path d="M210.13 44.538C210.088 39.7989 206.233 35.9673 201.476 35.9673C200.329 35.9673 199.236 36.1927 198.238 36.596C196.54 33.1262 192.97 30.73 188.836 30.73C183.84 30.73 179.665 34.2294 178.625 38.9033C173.927 39.2058 170.209 43.1026 170.209 47.8714C170.209 52.8359 174.236 56.8573 179.207 56.8573H207.849C211.371 56.8573 214.228 54.0043 214.228 50.4871C214.24 47.7765 212.535 45.4574 210.13 44.538Z" fill="#141DF0"/>
<path d="M227.509 171.651C227.486 168.757 225.127 166.414 222.217 166.414C221.516 166.414 220.851 166.551 220.239 166.8C219.2 164.676 217.02 163.217 214.489 163.217C211.436 163.217 208.882 165.358 208.247 168.217C205.372 168.401 203.103 170.785 203.103 173.698C203.103 176.735 205.568 179.19 208.603 179.19H226.113C228.27 179.19 230.016 177.446 230.016 175.293C230.022 173.627 228.976 172.209 227.509 171.651Z" fill="#141DF0"/>
<path d="M253.478 169.487C262.447 169.487 269.717 162.226 269.717 153.27C269.717 144.315 262.447 137.054 253.478 137.054C244.509 137.054 237.239 144.315 237.239 153.27C237.239 162.226 244.509 169.487 253.478 169.487Z" fill="#141DF0"/>
<path d="M261.378 147.523C259.198 145.346 255.658 145.346 253.478 147.523C251.298 145.346 247.758 145.346 245.578 147.523C243.398 149.7 243.398 153.235 245.578 155.412L253.478 163.3L261.378 155.412C263.563 153.235 263.563 149.7 261.378 147.523Z" fill="#007CFF"/>
<path d="M106.018 18.814C106.042 15.9077 108.406 13.5589 111.322 13.5589C112.023 13.5589 112.694 13.6953 113.306 13.9445C114.346 11.8151 116.537 10.3501 119.068 10.3501C122.127 10.3501 124.687 12.4913 125.322 15.362C128.203 15.5459 130.478 17.9362 130.478 20.8603C130.478 23.9031 128.007 26.3705 124.96 26.3705H107.402C105.24 26.3705 103.494 24.6208 103.494 22.4677C103.5 20.7951 104.545 19.3716 106.018 18.814Z" fill="#141DF0"/>
<path d="M31.3083 195.353V182.518C31.3083 180.875 32.6566 179.528 34.3019 179.528H61.2267C62.872 179.528 64.2203 180.875 64.2203 182.518V195.353C64.2203 196.996 62.872 198.342 61.2267 198.342H34.3019C32.6566 198.348 31.3083 197.002 31.3083 195.353Z" fill="#141DF0"/>
<path d="M47.7613 191.77C47.6485 191.77 47.5416 191.741 47.4406 191.675L33.6129 182.933C33.3337 182.755 33.2506 182.387 33.4288 182.108C33.607 181.83 33.9752 181.747 34.2544 181.924L47.7613 190.465L61.2683 181.924C61.5474 181.747 61.9157 181.83 62.0939 182.108C62.2721 182.387 62.1889 182.755 61.9097 182.933L48.0821 191.675C47.987 191.741 47.8742 191.77 47.7613 191.77Z" fill="#007CFF"/>
<path d="M28.0355 79.9122H49.1631C51.5865 79.9122 53.5704 81.8933 53.5704 84.3132V96.9469V101.045L49.466 96.9469H28.0355C25.6121 96.9469 23.6282 94.9658 23.6282 92.5459V84.3132C23.6282 81.8992 25.6121 79.9122 28.0355 79.9122Z" fill="#141DF0"/>
<path d="M28.772 85.9503H48.7355C49.1394 85.9503 49.472 85.6182 49.472 85.2148C49.472 84.8115 49.1394 84.4794 48.7355 84.4794H28.772C28.3681 84.4794 28.0355 84.8115 28.0355 85.2148C28.0355 85.6182 28.3681 85.9503 28.772 85.9503Z" fill="#007CFF"/>
<path d="M28.772 89.3311H48.7355C49.1394 89.3311 49.472 88.9989 49.472 88.5956C49.472 88.1923 49.1394 87.8601 48.7355 87.8601H28.772C28.3681 87.8601 28.0355 88.1923 28.0355 88.5956C28.0355 88.9989 28.3681 89.3311 28.772 89.3311Z" fill="#007CFF"/>
<path d="M35.5671 92.7119H48.7355C49.1394 92.7119 49.472 92.3798 49.472 91.9764C49.472 91.5731 49.1394 91.241 48.7355 91.241H35.5671C35.1632 91.241 34.8306 91.5731 34.8306 91.9764C34.8306 92.3798 35.1632 92.7119 35.5671 92.7119Z" fill="#007CFF"/>
<path d="M261.966 30.736H237.827C235.059 30.736 232.79 33.0017 232.79 35.7657V46.3471V51.0269L237.476 46.3471H261.966C264.734 46.3471 267.003 44.0814 267.003 41.3174V35.7657C267.003 33.0017 264.74 30.736 261.966 30.736Z" fill="#141DF0"/>
<path d="M261.128 37.6281H238.32C237.856 37.6281 237.482 37.2485 237.482 36.7918C237.482 36.3291 237.862 35.9554 238.32 35.9554H261.128C261.591 35.9554 261.966 36.335 261.966 36.7918C261.966 37.2544 261.586 37.6281 261.128 37.6281Z" fill="#141DF0"/>
<path d="M253.359 41.5012H238.32C237.856 41.5012 237.482 41.1216 237.482 40.6649C237.482 40.2023 237.862 39.8286 238.32 39.8286H253.359C253.822 39.8286 254.196 40.2082 254.196 40.6649C254.202 41.1216 253.822 41.5012 253.359 41.5012Z" fill="#141DF0"/>
<path d="M79.1944 189.487C55.0969 189.487 35.4899 169.908 35.4899 145.844C35.4899 121.781 55.0969 102.202 79.1944 102.202C103.292 102.202 122.899 121.781 122.899 145.844C122.899 169.908 103.292 189.487 79.1944 189.487Z" fill="#141DF0"/>
<path d="M119.953 145.844C119.953 162.588 109.831 176.972 95.3564 183.217C92.44 184.475 89.3454 185.406 86.1201 185.958C83.8689 186.343 81.5524 186.545 79.1944 186.545C78.3984 186.545 77.6025 186.521 76.8185 186.474C74.0328 186.32 71.3302 185.881 68.7286 185.193C51.2895 180.584 38.436 164.706 38.436 145.844C38.436 123.365 56.6828 105.144 79.1944 105.144C101.706 105.144 119.953 123.365 119.953 145.844Z" fill="white"/>
<path d="M91.7628 123.537H91.7807C86.8507 121.763 92.8914 112.955 84.0174 108.934C74.9356 104.812 65.7468 110.346 67.4693 115.002C64.4817 115.85 63.6976 123.05 67.3387 126.414C66.1686 127.926 65.4677 129.812 65.4677 131.864C65.4677 136.443 68.9186 140.21 73.3556 140.72C73.3616 140.72 73.3616 140.72 73.3675 140.72C73.3972 140.732 73.4269 140.732 73.4507 140.732H73.4566C73.7655 140.767 74.0743 140.785 74.3951 140.785C74.9059 140.785 75.4048 140.744 75.8919 140.655H75.8978C76.373 140.577 76.8422 140.459 77.2877 140.299H77.2937C78.9746 139.723 80.4239 138.656 81.4812 137.28C82.5087 138.614 83.9105 139.652 85.5261 140.239C85.5261 140.239 85.5261 140.239 85.5321 140.245C85.6449 140.281 85.7518 140.322 85.8706 140.352C86.2626 140.483 86.6725 140.583 87.0883 140.649C87.5694 140.732 88.0564 140.773 88.5613 140.773C89.2741 140.773 89.969 140.69 90.6343 140.53C94.5664 139.599 97.4947 136.07 97.4947 131.853C97.4947 128.056 95.1128 124.824 91.7628 123.537Z" fill="#1A2E35"/>
<path d="M71.5321 148.899C71.5143 148.502 71.4965 148.169 71.4549 147.677C71.3005 145.951 69.8037 144.634 68.0574 144.723C66.4359 144.806 65.1529 146.058 64.9866 147.612C64.9806 147.618 64.9806 147.624 64.9866 147.63C64.9628 147.796 64.9628 147.962 64.9687 148.128L64.9747 148.264C64.9866 148.454 64.9984 148.804 64.9984 149.089L65.0044 150.014C65.0044 150.631 64.9806 151.266 64.945 151.894C64.8915 152.891 64.8084 153.899 64.6896 154.896C64.6599 155.157 64.6302 155.423 64.5945 155.684C64.2619 158.211 63.7511 160.714 63.0264 163.158C62.8542 163.769 62.6344 164.368 62.4503 164.979C62.2543 165.584 62.0107 166.171 61.791 166.77L61.5415 167.452C61.4821 167.6 61.4227 167.707 61.4227 167.743C61.3277 167.719 61.2208 167.677 61.1079 167.618C60.6921 167.434 60.2169 167.126 59.7477 166.776C58.8092 166.082 57.8232 165.169 56.9501 164.303L56.8729 164.231C56.8372 164.202 56.8135 164.178 56.7778 164.142H56.7719C56.3086 163.763 55.6612 163.644 55.0731 163.899C54.2535 164.261 53.8733 165.222 54.2356 166.046C54.5148 166.675 54.8059 167.221 55.1325 167.784C55.1801 167.873 55.2335 167.962 55.287 168.051C55.6612 168.698 56.1007 169.32 56.5878 169.937C57.0867 170.548 57.645 171.153 58.3697 171.729C59.0943 172.274 59.9912 172.873 61.393 173.087C62.0939 173.176 62.9195 173.111 63.6679 172.826C64.4163 172.553 65.0341 172.108 65.5033 171.657C65.9785 171.207 66.3111 170.744 66.5903 170.299C66.7269 170.08 66.8516 169.86 66.9585 169.647C67.0179 169.534 67.0595 169.439 67.0952 169.356C67.1011 169.35 67.0952 169.35 67.0952 169.35C67.1308 169.273 67.1664 169.208 67.2021 169.125C67.8317 167.802 68.4019 166.456 68.889 165.08C68.9959 164.783 69.0968 164.486 69.1978 164.184C69.2513 164.03 69.3047 163.87 69.3523 163.709C70.0828 161.473 70.6293 159.184 70.9976 156.865C71.0094 156.776 71.0273 156.693 71.0391 156.604C71.0688 156.402 71.0985 156.2 71.1282 155.999V155.957C71.1461 155.862 71.1639 155.756 71.1758 155.655V155.637C71.3302 154.51 71.4371 153.377 71.4906 152.238C71.5024 152.031 71.5143 151.817 71.5203 151.61C71.544 151.082 71.5559 150.554 71.5559 150.026C71.5618 149.652 71.55 149.279 71.5321 148.899Z" fill="#FF8B7B"/>
<path d="M68.0277 141.782C72.8092 139.575 75.9632 149.071 75.096 156.853C68.3009 157.808 62.6285 153.692 62.6285 153.692C62.6285 153.692 62.4384 144.362 68.0277 141.782Z" fill="#007CFF"/>
<path d="M64.9865 146.556C64.9212 151.278 65.6102 160.874 68.782 180.335H94.6258C94.2337 170.797 94.1862 164.581 97.9401 147.393C98.6232 144.267 96.479 141.23 93.2953 140.821C91.7331 140.619 89.9868 140.447 88.2287 140.358C83.8808 140.15 80.317 140.008 76.4918 140.358C74.0981 140.577 71.5499 140.957 69.5364 141.289C66.9466 141.728 65.0222 143.941 64.9865 146.556Z" fill="#007CFF"/>
<path opacity="0.2" d="M92.7251 150.234L97.0729 151.473C96.479 154.409 96.0038 156.995 95.6355 159.326C92.434 158.3 89.4641 152.6 92.7251 150.234Z" fill="black"/>
<path d="M54.9484 160.139L52.6379 157.488C52.0201 156.776 50.8619 156.977 50.5174 157.855L49.175 161.272C49.0146 161.687 49.08 162.156 49.3591 162.505L51.6875 165.465C51.6875 165.465 53.5882 167.808 56.2255 167.992L57.2411 165.18L54.9484 160.139Z" fill="#FF8B7B"/>
<path d="M74.2703 150.412L74.8881 151.361L75.8681 150.797C81.0535 147.796 84.5936 144.498 86.2448 142.796C86.9041 142.12 87.1833 141.194 87.0645 140.311C83.2393 140.133 79.9725 140.05 76.5037 140.364C75.5058 140.453 74.4842 140.572 73.4863 140.708C73.4269 140.779 73.3615 140.85 73.3081 140.927C72.5003 142.09 70.9857 145.352 74.2703 150.412Z" fill="white"/>
<path d="M84.9975 127.641C84.4154 131.004 83.8867 136.841 85.6687 139.824C86.0785 140.512 85.9478 141.39 85.3895 141.965C83.768 143.638 80.3229 146.841 75.2682 149.765C72.4112 145.364 73.5457 142.659 74.2822 141.592C74.496 141.283 74.799 141.052 75.1554 140.939C78.8974 139.747 78.7014 136.746 77.9351 133.94L84.9975 127.641Z" fill="#FF8B7B"/>
<path opacity="0.2" d="M83.2037 130.648L77.9352 133.934C78.1252 134.622 78.2796 135.322 78.345 136.004C79.5686 135.975 82.5147 134.729 83.3403 132.683C83.6492 131.9 83.3522 131.04 83.2037 130.648Z" fill="black"/>
<path d="M85.5499 117.333C87.1239 123.442 87.9198 125.992 85.8825 130.043C82.8235 136.141 74.9712 136.734 71.6034 131.218C68.5741 126.253 66.5131 117.101 71.6093 112.819C76.6284 108.602 83.9758 111.223 85.5499 117.333Z" fill="#FF8B7B"/>
<path d="M81.1426 114.931C82.1821 119.231 86.6072 121.58 86.6072 121.58C86.6072 121.58 88.5198 118.24 87.2071 114.931C85.8944 111.621 81.1426 114.931 81.1426 114.931Z" fill="#1A2E35"/>
<path d="M84.261 117.878C82.877 119.326 83.0611 121.58 83.0611 121.58C83.0611 121.58 84.8015 121.491 85.74 120.18C86.6844 118.875 84.261 117.878 84.261 117.878Z" fill="#1A2E35"/>
<path d="M84.3382 116.811C82.6513 117.884 82.2949 120.12 82.2949 120.12C82.2949 120.12 84.0056 120.447 85.2292 119.397C86.4527 118.353 84.3382 116.811 84.3382 116.811Z" fill="#1A2E35"/>
<path d="M68.9305 115.031C67.6832 119.035 87.7001 117.7 85.9063 114.438C84.1065 111.176 79.4557 109.497 76.4621 109.794C73.4685 110.091 69.8928 112.214 68.9305 115.031Z" fill="#1A2E35"/>
<path d="M69.6789 113.982C68.1287 114.308 67.1545 120.209 68.1584 119.913C69.1562 119.616 75.0603 112.849 69.6789 113.982Z" fill="#1A2E35"/>
<path d="M87.706 180.335C87.706 180.335 87.6466 180.744 87.5397 181.497C87.3556 182.85 87.0111 185.317 86.5715 188.567C84.1719 188.977 81.7069 189.19 79.1944 189.19C78.345 189.19 77.5016 189.167 76.6641 189.113C73.7001 188.947 70.8194 188.484 68.0515 187.749C68.3247 184.908 68.5385 182.731 68.6632 181.497C68.7405 180.744 68.782 180.335 68.782 180.335H87.706Z" fill="#1A2E35"/>
<path opacity="0.1" d="M87.706 180.335C87.706 180.335 87.6466 180.744 87.5397 181.497C87.3556 182.85 87.0111 185.317 86.5715 188.567C84.1719 188.977 81.7069 189.19 79.1944 189.19C78.345 189.19 77.5016 189.167 76.6641 189.113C73.7001 188.947 70.8194 188.484 68.0515 187.749C68.3247 184.908 68.5385 182.731 68.6632 181.497C68.7405 180.744 68.782 180.335 68.782 180.335H87.706Z" fill="white"/>
<path d="M95.1307 181.497C95.6474 182.767 96.0632 184.155 96.4077 185.649C93.3012 186.99 90.0047 187.98 86.5715 188.567C84.1719 188.977 81.7069 189.19 79.1944 189.19C78.345 189.19 77.5016 189.167 76.6641 189.113C76.2305 185.608 75.9097 182.927 75.7434 181.497C75.6543 180.744 75.6068 180.335 75.6068 180.335H94.6258C94.804 180.709 94.9762 181.1 95.1307 181.497Z" fill="#1A2E35"/>
<path opacity="0.1" d="M95.1307 181.497C95.6474 182.767 96.0632 184.155 96.4077 185.649C93.3012 186.99 90.0047 187.98 86.5715 188.567C84.1719 188.977 81.7069 189.19 79.1944 189.19C78.345 189.19 77.5016 189.167 76.6641 189.113C76.2305 185.608 75.9097 182.927 75.7434 181.497C75.6543 180.744 75.6068 180.335 75.6068 180.335H94.6258C94.804 180.709 94.9762 181.1 95.1307 181.497Z" fill="white"/>
<path d="M87.9495 121.289C88.0802 122.588 87.5991 123.828 86.9101 124.652C85.8647 125.886 84.4391 125.174 83.9699 123.721C83.5482 122.41 83.5779 120.186 84.9915 119.48C86.3814 118.786 87.801 119.806 87.9495 121.289Z" fill="#FF8B7B"/>
<path d="M100.316 155.75C100.055 154.338 99.7577 152.932 99.431 151.544C99.3182 151.058 99.1994 150.578 99.0806 150.097C98.7539 148.834 98.4332 147.6 98.0649 146.349V146.343C97.8867 145.738 97.6966 145.133 97.4887 144.51C96.9482 142.867 95.1901 141.924 93.5091 142.404C91.7807 142.897 90.7768 144.694 91.2758 146.42L91.2877 146.467C91.6559 147.772 92.0479 149.13 92.4103 150.495C92.5172 150.898 92.6241 151.307 92.7251 151.71C92.9983 152.778 93.2597 153.852 93.5151 154.919C93.6814 155.619 93.8417 156.319 93.9962 157.019C94.115 157.565 94.2278 158.104 94.3347 158.65C94.5842 159.878 94.8099 161.1 95.0059 162.322C95.0416 162.571 95.0772 162.826 95.1128 163.075C95.2376 163.994 95.3504 164.908 95.4336 165.809C95.2316 165.785 95.0238 165.75 94.8159 165.708C94.7268 165.69 94.6377 165.673 94.5486 165.655C93.0815 165.323 91.4896 164.801 89.9275 164.214C88.3594 163.632 86.7794 162.98 85.2054 162.31C83.6967 161.681 82.188 160.993 80.709 160.329C80.6377 160.299 80.5665 160.263 80.4952 160.234L80.4655 160.222C79.7883 159.919 78.9687 160.109 78.5054 160.732C77.9708 161.444 78.1193 162.458 78.838 162.992C79.0281 163.134 79.2181 163.276 79.4141 163.407C79.4201 163.407 79.4201 163.407 79.4201 163.407C80.6793 164.326 81.9623 165.163 83.2631 165.999C84.7777 166.942 86.322 167.838 87.9377 168.68C89.5592 169.498 91.2104 170.293 93.1052 170.898C93.5507 171.035 93.9962 171.165 94.4773 171.272C95.0416 171.402 95.6593 171.503 96.3721 171.539C97.0433 171.551 97.8214 171.557 98.8668 171.118C99.3776 170.892 99.9537 170.536 100.417 169.991C100.88 169.463 101.177 168.828 101.338 168.259C101.385 168.063 101.421 167.849 101.427 167.642V167.529C101.516 163.437 101.011 159.558 100.316 155.75Z" fill="#FF8B7B"/>
<path d="M92.0777 140.678C97.3106 141.26 98.748 142.867 101.433 150.222C95.7722 154.089 90.2839 156.479 90.2839 156.479C90.2839 156.479 85.9597 139.996 92.0777 140.678Z" fill="#007CFF"/>
<path d="M95.0119 178.822L95.6712 181.13C95.7603 181.308 95.5464 181.492 95.2495 181.492H68.6514C68.4197 181.492 68.2237 181.379 68.2118 181.231L67.9802 178.923C67.9623 178.763 68.1643 178.627 68.4197 178.627H94.5901C94.7802 178.627 94.9525 178.71 95.0119 178.822Z" fill="#1A2E35"/>
<path d="M91.4955 181.746H92.1964C92.339 181.746 92.44 181.675 92.434 181.586L92.1073 178.585C92.0955 178.496 91.9767 178.425 91.8341 178.425H91.1332C90.9907 178.425 90.8897 178.496 90.8956 178.585L91.2223 181.586C91.2342 181.675 91.353 181.746 91.4955 181.746Z" fill="#1A2E35"/>
<path opacity="0.1" d="M91.4955 181.746H92.1964C92.339 181.746 92.44 181.675 92.434 181.586L92.1073 178.585C92.0955 178.496 91.9767 178.425 91.8341 178.425H91.1332C90.9907 178.425 90.8897 178.496 90.8956 178.585L91.2223 181.586C91.2342 181.675 91.353 181.746 91.4955 181.746Z" fill="white"/>
<path d="M70.6233 181.746H71.3242C71.4668 181.746 71.5678 181.675 71.5618 181.586L71.2351 178.585C71.2233 178.496 71.1045 178.425 70.9619 178.425H70.261C70.1244 178.425 70.0175 178.496 70.0234 178.585L70.3501 181.586C70.362 181.675 70.4808 181.746 70.6233 181.746Z" fill="#1A2E35"/>
<path opacity="0.1" d="M70.6233 181.746H71.3242C71.4668 181.746 71.5678 181.675 71.5618 181.586L71.2351 178.585C71.2233 178.496 71.1045 178.425 70.9619 178.425H70.261C70.1244 178.425 70.0175 178.496 70.0234 178.585L70.3501 181.586C70.362 181.675 70.4808 181.746 70.6233 181.746Z" fill="white"/>
<path d="M81.0594 181.746H81.7603C81.9029 181.746 82.0039 181.675 81.9979 181.586L81.6712 178.585C81.6594 178.496 81.5406 178.425 81.398 178.425H80.6971C80.5546 178.425 80.4536 178.496 80.4595 178.585L80.7862 181.586C80.7981 181.675 80.9169 181.746 81.0594 181.746Z" fill="#1A2E35"/>
<path opacity="0.1" d="M81.0594 181.746H81.7603C81.9029 181.746 82.0039 181.675 81.9979 181.586L81.6712 178.585C81.6594 178.496 81.5406 178.425 81.398 178.425H80.6971C80.5546 178.425 80.4536 178.496 80.4595 178.585L80.7862 181.586C80.7981 181.675 80.9169 181.746 81.0594 181.746Z" fill="white"/>
<path d="M75.5058 164.32H70.3382C69.8334 164.32 69.3879 163.97 69.2691 163.478L66.6734 152.66C66.5428 152.108 66.9348 151.604 67.4931 151.604H72.6547C73.1656 151.604 73.611 151.954 73.7358 152.452L76.3314 163.265C76.4562 163.816 76.0641 164.32 75.5058 164.32Z" fill="black"/>
<path d="M74.894 164.32H69.7324C69.2216 164.32 68.7761 163.97 68.6514 163.472L66.0557 152.66C65.925 152.108 66.317 151.604 66.8754 151.604H72.037C72.5478 151.604 72.9933 151.954 73.118 152.452L75.7137 163.265C75.8444 163.816 75.4523 164.32 74.894 164.32Z" fill="#1A2E35"/>
<path d="M81.0297 163.134L80.8753 160.518L77.1748 156.313C76.6343 155.696 75.8978 155.281 75.09 155.127L72.7082 154.682C71.8707 154.528 71.0985 155.18 71.1282 156.034L71.2292 159.397C71.247 159.919 71.5677 160.388 72.0548 160.59L76.2423 162.316C77.3709 162.974 79.3904 163.876 81.0297 163.134Z" fill="#FF8B7B"/>
<path d="M268.755 103.673C268.755 124.177 254.494 141.36 235.332 145.862C232.13 146.621 228.786 147.019 225.347 147.019C218.053 147.019 211.181 145.222 205.146 142.048C191.348 134.789 181.94 120.328 181.94 103.673C181.94 79.7343 201.375 60.3271 225.347 60.3271C249.32 60.3271 268.755 79.7343 268.755 103.673Z" fill="#141DF0"/>
<path d="M225.347 62.4861C202.604 62.4861 184.102 80.962 184.102 103.673C184.102 126.384 202.604 144.86 225.347 144.86C248.091 144.86 266.593 126.384 266.593 103.673C266.593 80.962 248.091 62.4861 225.347 62.4861Z" fill="white"/>
<path d="M223.791 72.5812C218.463 69.7994 215.327 76.7153 216.616 81.5612C217.905 86.407 221.267 89.4854 221.267 89.4854C221.267 89.4854 226.351 82.1602 226.369 78.7201C226.399 74.4614 225.781 73.6192 223.791 72.5812Z" fill="#1A2E35"/>
<path d="M220.714 87.5221C220.548 86.4663 217.447 87.1425 218.208 88.2872C218.974 89.432 220.792 88.0203 220.714 87.5221Z" fill="#1A2E35"/>
<path d="M220.453 87.6763C219.473 87.2493 218.38 90.2268 219.752 90.1971C221.13 90.1675 220.916 87.878 220.453 87.6763Z" fill="#1A2E35"/>
<path d="M222.318 73.7852C219.835 71.3297 225.615 69.2241 231.239 70.2087C236.864 71.1992 238.688 76.1222 236.71 78.5362C235.124 80.4579 225.365 76.7983 222.318 73.7852Z" fill="#1A2E35"/>
<path d="M222.086 72.3083C222.971 71.7093 221.041 69.1944 220.334 70.3688C219.621 71.5432 221.671 72.593 222.086 72.3083Z" fill="#1A2E35"/>
<path d="M238.634 119.569C238.617 120.12 238.599 120.69 238.575 121.271C238.557 121.585 238.545 121.912 238.528 122.238C238.48 123.086 238.427 123.958 238.361 124.854C238.337 125.233 238.308 125.613 238.272 125.998C238.272 126.052 238.266 126.105 238.26 126.158C238.231 126.55 238.201 126.947 238.159 127.351C238.029 128.804 237.868 130.316 237.678 131.882C237.161 136.129 236.401 140.791 235.332 145.862C232.13 146.621 228.786 147.019 225.347 147.019C218.053 147.019 211.181 145.222 205.146 142.048C205.485 139.219 205.93 135.536 206.299 131.277C206.501 128.964 206.685 126.473 206.815 123.863C206.821 123.667 206.833 123.466 206.839 123.27C206.869 122.635 206.898 121.995 206.922 121.348C206.934 120.951 206.946 120.553 206.958 120.15C206.976 119.61 206.988 119.065 206.999 118.513L207.017 117.161V116.591C207.023 116.289 207.023 115.98 207.023 115.672C207.023 114.634 207.011 113.59 206.988 112.534V112.481C206.928 109.753 206.786 106.971 206.536 104.165C206.524 103.999 206.512 103.827 206.495 103.661C206.364 102.249 206.821 100.915 207.659 99.9007C208.538 98.8271 209.851 98.1094 211.347 98.0145C211.377 98.0145 211.413 98.0145 211.442 98.0086C212.125 97.9671 212.856 97.9374 213.593 97.9137C214.264 97.8959 214.947 97.884 215.63 97.89H216.016C216.378 97.8959 216.764 97.9018 217.156 97.9137C217.572 97.9256 218.006 97.9374 218.445 97.9493C218.814 97.9552 219.182 97.9671 219.556 97.9789C221.671 98.0561 223.922 98.1747 225.9 98.3526C226.03 98.3645 226.161 98.3763 226.286 98.3882C227.046 98.4594 227.753 98.5424 228.394 98.6314C228.519 98.6492 228.644 98.667 228.763 98.6848C229.279 98.7619 229.79 98.8508 230.289 98.9517C230.372 98.9635 230.455 98.9813 230.533 98.9991C231.352 99.1593 232.136 99.3372 232.867 99.5092C235.427 100.132 237.286 100.767 237.286 100.767C237.286 100.767 237.292 100.779 237.298 100.802C237.363 101.075 237.809 102.896 238.177 106.2C238.427 108.46 238.646 111.419 238.682 115.043C238.682 115.043 238.682 115.043 238.682 115.049C238.7 116.455 238.688 117.961 238.634 119.569Z" fill="#1A2E35"/>
<path d="M248.013 131.52C247.96 130.731 247.853 130.215 247.734 129.711C247.485 128.667 247.271 128.092 247.051 127.333L245.732 122.979L243.101 114.242C242.222 111.33 241.313 108.412 240.375 105.529L232.231 107.997C233.081 110.974 234.001 113.898 234.976 116.817C235.944 119.741 236.959 122.647 238.029 125.542C238.088 125.708 238.153 125.874 238.213 126.04L235.457 128.489C236.265 129.937 237.155 131.236 238.189 132.546C238.724 133.187 239.258 133.845 239.947 134.486C240.292 134.812 240.666 135.144 241.171 135.5C241.438 135.678 241.729 135.874 242.186 136.07C242.299 136.117 242.418 136.165 242.573 136.212L242.792 136.283L243.077 136.348C243.44 136.42 244.004 136.503 244.758 136.348C244.96 136.307 245.156 136.248 245.352 136.176C245.572 136.093 245.786 135.987 245.994 135.862C246.386 135.631 246.802 135.263 247.039 134.949C247.609 134.225 247.746 133.691 247.877 133.217C248.073 132.363 248.025 131.936 248.013 131.52Z" fill="#FFC3BD"/>
<path d="M231.554 103.94C229.357 108.827 236.3 122.849 236.3 122.849L245.732 120.251C245.732 120.251 246.077 111.906 242.572 105.915C238.979 99.7703 233.972 98.5721 231.554 103.94Z" fill="#1A2E35"/>
<path d="M232.024 100.233C231.78 99.5923 231.204 99.1297 230.533 98.9992C230.449 98.9814 230.372 98.9695 230.289 98.9517C229.79 98.8509 229.279 98.7679 228.757 98.6848C225.294 98.151 219.473 97.9375 215.63 97.89C215.63 97.8959 215.63 97.89 215.63 97.896L216.842 99.3491C218.469 101.283 221.492 104.883 227.147 105.589C227.575 105.642 227.979 105.672 228.359 105.672C230.556 105.672 231.548 104.741 231.994 103.952C232.635 102.819 232.481 101.425 232.024 100.233Z" fill="#007CFF"/>
<path opacity="0.2" d="M212.209 110.346L206.988 112.368C206.988 112.428 206.994 112.475 206.982 112.534C207.047 115.565 207.017 118.519 206.91 121.348C212.357 119.094 212.452 112.327 212.209 110.346Z" fill="black"/>
<path d="M220.655 90.1793C220.863 93.1213 220.34 96.253 218.107 98.2756C217.917 98.4476 217.887 98.7323 218.053 98.928C220.043 101.253 222.692 103.821 227.301 104.403C232.018 104.996 231.62 101.769 230.556 99.8711C230.503 99.7762 230.408 99.705 230.301 99.6635C226.482 98.3052 226.909 95.6717 227.355 92.7772C227.45 92.1663 227.141 91.5613 226.589 91.2766L222.312 89.0821C221.528 88.6847 220.59 89.2956 220.655 90.1793Z" fill="#FFC3BD"/>
<path opacity="0.2" d="M227.331 92.9492L222.692 92.7831C222.763 92.9966 222.853 93.2161 222.942 93.4237C223.571 94.9421 225.341 96.1639 227.23 96.8164C226.921 95.6716 227.123 94.3371 227.331 92.9492Z" fill="black"/>
<path d="M221.772 79.0047C220.192 84.3429 218.992 87.3856 220.655 91.0215C223.156 96.4961 230.479 96.4486 233.627 91.6918C236.461 87.4094 238.569 79.4021 234.209 75.4638C229.915 71.5847 223.352 73.6666 221.772 79.0047Z" fill="#FFC3BD"/>
<path d="M220.489 84.1294C224.272 86.1401 229.38 72.8658 223.922 72.8658C218.463 72.8658 218.719 83.1863 220.489 84.1294Z" fill="#1A2E35"/>
<path d="M217.756 81.834C217.703 83.3346 218.35 84.7166 219.212 85.6063C220.5 86.9409 221.605 85.9325 222.033 84.2302C222.419 82.694 222.686 80.2326 221.011 79.5327C219.36 78.8446 217.816 80.1199 217.756 81.834Z" fill="#FFC3BD"/>
<path d="M225.086 117.042C223.185 117.861 221.261 118.727 219.324 119.504C217.4 120.31 215.475 121.081 213.557 121.799C211.638 122.499 209.72 123.169 207.884 123.614C207.475 123.715 207.065 123.81 206.673 123.881C206.833 123.264 207.017 122.641 207.213 122.019C207.789 120.227 208.556 118.442 209.381 116.668C210.231 114.901 211.157 113.145 212.161 111.425C212.654 110.559 213.165 109.705 213.694 108.863L214.495 107.611C214.751 107.208 215.048 106.757 215.268 106.437L208.377 101.443C207.98 101.983 207.683 102.41 207.35 102.884C207.035 103.353 206.732 103.827 206.429 104.302C205.829 105.251 205.253 106.212 204.695 107.184C203.602 109.142 202.592 111.158 201.707 113.258C200.816 115.352 200.062 117.534 199.474 119.812C199.171 120.951 198.951 122.125 198.779 123.323C198.731 123.62 198.696 123.922 198.666 124.231L198.619 124.688L198.595 124.913L198.565 125.316C198.529 125.838 198.565 126.52 198.737 127.25C198.927 128.009 199.343 128.881 199.979 129.575C200.62 130.287 201.375 130.708 202.034 130.969C202.711 131.236 203.246 131.313 203.768 131.372C204.766 131.461 205.532 131.378 206.245 131.271C207.653 131.046 208.805 130.684 209.934 130.293C212.149 129.48 214.163 128.543 216.111 127.517C220.019 125.482 223.643 123.193 227.195 120.66L225.086 117.042Z" fill="#FFC3BD"/>
<path d="M210.403 98.2637C205.081 98.9636 200.775 114.557 200.775 114.557L211.514 118.056C211.514 118.056 213.135 114.729 216.438 108.632C220.037 101.994 216.853 97.4155 210.403 98.2637Z" fill="#1A2E35"/>
<path d="M231.424 114.189L228.727 114.029C228.246 113.999 227.777 114.159 227.414 114.474L223.524 117.825L225.05 120.868C227.325 122.469 231.115 118.875 231.115 118.875L232.499 118.549C233.586 118.294 234.085 117.03 233.461 116.099L232.653 114.901C232.38 114.48 231.923 114.219 231.424 114.189Z" fill="#FFC3BD"/>
<path d="M234.78 127.315L230.224 126.621C229.755 126.55 229.475 126.052 229.66 125.613L234.156 114.919C234.287 114.61 234.607 114.426 234.94 114.48L239.496 115.174C239.965 115.245 240.244 115.743 240.06 116.182L235.564 126.876C235.433 127.185 235.112 127.368 234.78 127.315Z" fill="white"/>
<path d="M235.391 127.404L230.836 126.71C230.366 126.639 230.087 126.141 230.271 125.702L234.768 115.008C234.898 114.699 235.219 114.515 235.552 114.569L240.107 115.263C240.577 115.334 240.856 115.832 240.672 116.271L236.175 126.965C236.051 127.274 235.724 127.451 235.391 127.404Z" fill="#007CFF"/>
<path d="M239.508 126.236L234.797 120.542L232.178 126.366C232.178 126.366 233.734 128.549 236.306 128.887L239.508 126.236Z" fill="#FFC3BD"/>
<path d="M229.44 121.342L229.719 123.264C229.808 123.863 230.093 124.415 230.539 124.824L232.184 126.36L234.803 120.536L231.156 119.747C230.182 119.533 229.297 120.358 229.44 121.342Z" fill="#FFC3BD"/>
<path d="M230.176 76.2111C228.614 79.6157 238.979 83.6371 238.967 78.8268C238.955 74.0165 230.907 74.6156 230.176 76.2111Z" fill="#1A2E35"/>
<path d="M223.761 74.2242C222.419 78.2871 241.236 80.4757 240.315 75.102C239.389 69.7283 224.391 72.3202 223.761 74.2242Z" fill="#1A2E35"/>
<path d="M229.368 75.3867C230.931 78.7912 240.749 73.5895 237.096 70.4518C233.443 67.3201 228.638 73.7911 229.368 75.3867Z" fill="#1A2E35"/>
<path d="M110.841 66.383H110.218V58.7673C110.218 53.4884 114.518 49.1882 119.81 49.1882V49.811C114.868 49.811 110.841 53.8265 110.841 58.7673V66.383Z" fill="#141DF0"/>
<path d="M110.841 71.0925H110.218V76.0333H110.841V71.0925Z" fill="#141DF0"/>
<path d="M184.375 195.442H120.161C116.039 195.442 112.665 192.073 112.665 187.957V59.4079C112.665 55.2916 116.039 51.9226 120.161 51.9226H184.375C188.497 51.9226 191.871 55.2916 191.871 59.4079V187.957C191.871 192.073 188.497 195.442 184.375 195.442Z" fill="white"/>
<path d="M184.731 196.397H119.81C115.504 196.397 111.999 192.897 111.999 188.597V58.7673C111.999 54.4671 115.504 50.9677 119.81 50.9677H184.731C189.038 50.9677 192.542 54.4671 192.542 58.7673V188.603C192.542 192.897 189.038 196.397 184.731 196.397ZM119.81 51.5904C115.848 51.5904 112.623 54.8111 112.623 58.7673V188.603C112.623 192.559 115.848 195.78 119.81 195.78H184.731C188.693 195.78 191.918 192.559 191.918 188.603V58.7673C191.918 54.8111 188.693 51.5904 184.731 51.5904H119.81Z" fill="#141DF0"/>
<path d="M184.731 51.276H119.81C115.688 51.276 112.314 54.645 112.314 58.7613H192.233C192.227 54.645 188.854 51.276 184.731 51.276Z" fill="#141DF0"/>
<path d="M124.568 55.0246C124.568 56.282 123.552 57.2963 122.293 57.2963C121.034 57.2963 120.018 56.282 120.018 55.0246C120.018 53.7672 121.034 52.7529 122.293 52.7529C123.546 52.7529 124.568 53.7672 124.568 55.0246Z" fill="white"/>
<path d="M183.348 55.0246C183.348 55.3093 183.116 55.5347 182.837 55.5347C182.552 55.5347 182.326 55.3034 182.326 55.0246C182.326 54.7399 182.558 54.5145 182.837 54.5145C183.116 54.5086 183.348 54.7399 183.348 55.0246Z" fill="white"/>
<path d="M183.348 56.8692C183.348 57.1539 183.116 57.3793 182.837 57.3793C182.552 57.3793 182.326 57.148 182.326 56.8692C182.326 56.5845 182.558 56.3591 182.837 56.3591C183.116 56.3532 183.348 56.5845 183.348 56.8692Z" fill="white"/>
<path d="M182.837 53.6841C183.119 53.6841 183.348 53.4557 183.348 53.174C183.348 52.8923 183.119 52.6639 182.837 52.6639C182.555 52.6639 182.326 52.8923 182.326 53.174C182.326 53.4557 182.555 53.6841 182.837 53.6841Z" fill="white"/>
<path opacity="0.2" d="M142.922 56.0922H127.746C127.158 56.0922 126.671 55.6118 126.671 55.0186C126.671 54.4314 127.152 53.9451 127.746 53.9451H142.922C143.51 53.9451 143.997 54.4255 143.997 55.0186C143.997 55.6118 143.51 56.0922 142.922 56.0922Z" fill="white"/>
<path d="M184.844 86.6917H144.08C142.589 86.6917 141.377 85.4817 141.377 83.993V69.0877C141.377 67.593 142.589 66.3889 144.08 66.3889H184.844C186.335 66.3889 187.547 67.5989 187.547 69.0877V83.993C187.547 85.4817 186.335 86.6917 184.844 86.6917Z" fill="#141DF0"/>
<path d="M160.462 101.799H119.697C118.206 101.799 116.995 100.589 116.995 99.1V93.8567C116.995 92.362 118.206 91.158 119.697 91.158H160.462C161.953 91.158 163.164 92.3679 163.164 93.8567V99.1C163.17 100.589 161.959 101.799 160.462 101.799Z" fill="#E1E1E1"/>
<path d="M160.462 156.539H119.697C118.206 156.539 116.995 155.329 116.995 153.84V124.071C116.995 122.582 118.206 121.372 119.697 121.372H160.462C161.953 121.372 163.164 122.582 163.164 124.071V153.84C163.17 155.329 161.959 156.539 160.462 156.539Z" fill="#E1E1E1"/>
<path d="M184.844 171.201H168.54C167.043 171.201 165.837 169.991 165.837 168.502V163.259C165.837 161.764 167.049 160.56 168.54 160.56H184.844C186.335 160.56 187.547 161.77 187.547 163.259V168.502C187.547 169.991 186.335 171.201 184.844 171.201Z" fill="#141DF0"/>
<path d="M178.061 165.186C178.061 165.94 177.449 166.557 176.689 166.557C175.929 166.557 175.317 165.946 175.317 165.186C175.317 164.433 175.929 163.816 176.689 163.816C177.449 163.816 178.061 164.427 178.061 165.186Z" fill="white"/>
<path d="M173.511 165.874C173.511 166.628 172.899 167.245 172.139 167.245C171.385 167.245 170.767 166.634 170.767 165.874C170.767 165.121 171.379 164.504 172.139 164.504C172.899 164.51 173.511 165.121 173.511 165.874Z" fill="white"/>
<path d="M182.605 166.568C182.605 167.322 181.993 167.939 181.233 167.939C180.479 167.939 179.861 167.328 179.861 166.568C179.861 165.809 180.473 165.198 181.233 165.198C181.993 165.198 182.605 165.815 182.605 166.568Z" fill="white"/>
<path d="M184.844 116.906H144.08C142.589 116.906 141.377 115.696 141.377 114.207V108.964C141.377 107.475 142.589 106.265 144.08 106.265H184.844C186.335 106.265 187.547 107.475 187.547 108.964V114.207C187.547 115.696 186.335 116.906 184.844 116.906Z" fill="#141DF0"/>
<path d="M119.466 191.409C120.834 191.409 121.943 190.301 121.943 188.935C121.943 187.569 120.834 186.462 119.466 186.462C118.098 186.462 116.989 187.569 116.989 188.935C116.989 190.301 118.098 191.409 119.466 191.409Z" fill="#141DF0"/>
<path d="M126.956 191.409C128.324 191.409 129.433 190.301 129.433 188.935C129.433 187.569 128.324 186.462 126.956 186.462C125.588 186.462 124.479 187.569 124.479 188.935C124.479 190.301 125.588 191.409 126.956 191.409Z" fill="#E1E1E1"/>
<path d="M134.446 191.409C135.814 191.409 136.923 190.301 136.923 188.935C136.923 187.569 135.814 186.462 134.446 186.462C133.078 186.462 131.969 187.569 131.969 188.935C131.969 190.301 133.078 191.409 134.446 191.409Z" fill="#ECECEC"/>
<path d="M185.07 191.409H164.816C163.455 191.409 162.339 190.294 162.339 188.935C162.339 187.577 163.455 186.462 164.816 186.462H185.07C186.43 186.462 187.547 187.577 187.547 188.935C187.547 190.299 186.436 191.409 185.07 191.409Z" fill="#ECECEC"/>
<path d="M192.227 178.502H112.308V179.125H192.227V178.502Z" fill="#141DF0"/>
</g>
<defs>
<clipPath id="clip0">
<rect width="271" height="236" fill="white"/>
</clipPath>
</defs>
</svg>
