<svg width="317" height="236" viewBox="0 0 317 236" fill="none" xmlns="http://www.w3.org/2000/svg">
<g clip-path="url(#clip0)">
<path d="M307.466 199.746C292.105 231.12 248.001 246.347 216.751 228.229C196.158 216.29 184.672 204.155 164.29 198.236C141.118 191.508 125.609 198.111 106.67 217.443C91.2246 233.211 56.4568 244.929 35.5711 225.015C13.8674 204.323 22.4386 179.176 27.374 164.311C32.3095 149.445 44.7997 119.346 21.603 93.3304C-1.54939 67.3647 -10.1649 29.3991 16.3718 10.1554C45.7428 -11.1432 82.0352 -0.24816 106.019 55.2521C125.186 99.6027 165.905 78.579 201.839 70.1986C235.674 62.3086 274.431 72.7957 292.411 93.4786C309.745 113.418 328.977 155.811 307.466 199.746Z" fill="white"/>
<path d="M166.617 162.84L163.184 232.762L166.029 232.764L175.321 162.031L166.617 162.84Z" fill="#184655"/>
<path d="M185.332 107.476L190.32 121.597C190.32 121.597 194.721 112.425 197.497 101.863C201.862 103.423 204.688 105.186 208.135 108.191C204.105 118 196.509 134.068 190.509 134.952C185.839 135.64 181.075 112.641 181.075 112.641L185.332 107.476Z" fill="#F7A491"/>
<path d="M182.987 99.3124C182.404 98.6993 180.987 98.0316 180.271 98.6828C179.556 99.334 179.847 100.399 179.443 100.926C179.082 101.399 178.672 102.228 178.432 102.986C178.365 103.198 177.892 104.812 177.75 105.272C177.609 105.733 181.073 112.639 181.073 112.639L186.123 110.049C186.124 110.05 183.57 99.9256 182.987 99.3124Z" fill="#F7A491"/>
<path d="M199.283 96.59C199.283 96.59 195.696 106.121 194.778 109.131C193.86 112.141 192.024 116.487 192.024 116.487L201.952 122.924L208.96 108.042L199.283 96.59Z" fill="#FAE0B2"/>
<path d="M182.304 100.465V100.757C182.304 101.55 182.418 102.338 182.625 103.103C182.863 103.981 183.084 105.165 182.69 105.562C182.035 106.219 181.563 104.735 181.563 104.735C181.563 104.735 182.777 106.043 182.499 106.619C182.133 107.375 181.077 106.619 181.077 106.619C181.077 106.619 181.792 107.612 181.077 107.885C180.361 108.158 178.912 105.703 178.912 105.703L178.067 104.481L181.562 100.241L182.304 100.465Z" fill="#F47458"/>
<path d="M178.596 106.041L176.517 105.985L177.054 104.02L178.664 104.075C179.426 104.101 180.075 103.24 180.112 102.157L180.179 100.192C180.216 99.1073 179.627 98.2053 178.865 98.1787L176.795 98.1077L176.862 96.1428L178.932 96.2138C180.455 96.2657 181.633 98.071 181.559 100.239L181.492 102.204C181.418 104.372 180.118 106.094 178.596 106.041Z" fill="#FAE0B2"/>
<path d="M166.694 95.8957L166.387 104.893C166.316 106.959 167.93 108.692 169.993 108.763L173.194 108.874C175.256 108.944 176.986 107.327 177.056 105.259L177.403 95.1204L166.734 94.7543L166.694 95.8957Z" fill="#FAE0B2"/>
<path d="M180.045 99.258C180.045 99.258 183.042 103.834 182.653 104.632C182.264 105.43 179.178 101.324 179.178 101.324C179.178 101.324 179.265 99.0907 180.045 99.258Z" fill="#F7A491"/>
<path d="M178.298 102.51C178.298 102.51 181.414 106.774 181.936 106.403C182.762 105.818 179.326 101.092 179.326 101.092C179.326 101.092 178.298 100.911 178.298 102.51Z" fill="#F7A491"/>
<path d="M177.747 104.044C177.747 104.044 180.413 107.564 181.074 106.9C181.735 106.237 178.257 102.454 178.257 102.454C178.257 102.454 177.343 103.369 177.747 104.044Z" fill="#F7A491"/>
<path d="M184.791 104.973C184.791 104.973 185.007 101.315 184.599 100.906C184.19 100.497 181.347 98.8335 180.934 99.2491C180.519 99.6646 183.355 102.454 183.355 102.454L184.791 104.973Z" fill="#F7A491"/>
<path d="M251.617 232.377L231.619 176.637L227.831 178.065L247.295 232.377H251.617Z" fill="#3C8F7C"/>
<path d="M176.072 167.854H230.424C235.082 167.854 238.856 171.637 238.856 176.304V178.779C238.856 183.447 235.082 187.23 230.424 187.23H176.072C171.414 187.23 167.639 183.447 167.639 178.779V176.304C167.639 171.638 171.414 167.854 176.072 167.854Z" fill="#3C8F7C"/>
<path d="M268.922 232.484L248.914 176.712L245.128 178.14L264.63 232.483L268.922 232.484Z" fill="#3C8F7C"/>
<path d="M188.418 232.762L207.968 179.278L204.182 177.849L183.939 232.761L188.418 232.762Z" fill="#3C8F7C"/>
<path d="M218.126 169.473H225.634L245.225 115.411C245.993 113.372 247.899 112.02 250.034 111.999L273.521 111.662C277.136 111.625 280.528 116.803 278.525 123.45L263.535 167.811H263.542L259.408 181.114L215.379 181.578L218.126 169.473Z" fill="#50BFA5"/>
<path d="M209.951 169.975L248.161 169.891L265.801 118.836C267.006 115.352 264.455 111.704 260.84 111.74L235.36 111.999C233.223 112.02 231.317 113.373 230.551 115.411L209.951 169.975Z" fill="#3C8F7C"/>
<path d="M192.1 167.868C192.1 167.868 218.015 173.006 225.116 171.861C234.204 170.395 248.864 167.855 248.864 167.855C253.881 167.855 259.75 171.651 259.75 176.318V178.792C259.75 183.458 255.682 187.242 250.664 187.242H192.1C187.083 187.242 183.015 183.459 183.015 178.792V176.318C183.015 171.651 187.083 167.868 192.1 167.868Z" fill="#50BFA5"/>
<path d="M186.647 211.022C185.591 215.791 185.176 224.64 185.392 225.67C185.456 225.969 185.136 227.184 184.975 227.458C178.81 230.858 172.622 229.407 167.589 227.52C171.068 226.314 175.682 224.757 176.379 224.307C178.195 223.134 177.294 217.112 176.992 209.484C179.465 212.215 183.14 209.809 186.647 211.022Z" fill="#F7A491"/>
<path d="M185.38 225.575C186.286 227.871 186.075 232.69 185.6 232.762C185.032 232.848 164.576 233.672 161.779 231.641C160.053 230.388 163.312 229.093 167.588 227.518C172.622 229.406 185.083 227.118 185.38 225.575Z" fill="#F7CC7F"/>
<path d="M215.464 144.954L215.011 151.006C215.011 151.006 172.785 156.897 172.106 164.652C171.427 172.409 175.991 219.664 175.991 219.664L186.342 220.324C186.342 220.324 191.691 194.741 191.19 185.879C190.735 177.824 188.942 173.443 188.942 173.443C188.942 173.443 234.342 171.288 237.229 169.975C240.117 168.661 242.17 165.04 239.286 153.489C236.401 141.937 234.874 138.967 234.874 138.967L215.464 144.954Z" fill="#FF3B3B"/>
<path d="M188.425 80.6578C187.429 76.4885 186.454 72.2927 189.079 67.7129C191.203 64.0061 194.875 61.8739 199.124 61.409C211.166 60.0927 208.592 70.4481 225.421 72.6905C230.649 73.3872 235.508 74.0561 239.873 76.453C247.756 80.7794 248.083 93.2023 245.504 99.0248C233.166 126.887 201.278 103.207 197.396 97.7554C194.51 93.6989 189.066 83.3423 188.425 80.6578Z" fill="#13375B"/>
<path d="M196.864 105.117C197.244 101.513 199.283 96.5063 199.283 96.5063C199.725 92.8768 211.372 91.6428 214.384 92.2433C225.065 95.617 232.945 125.591 237.524 144.073L215.259 147.609C215.259 147.609 207.786 123.258 200.539 119.676C195.491 117.183 196.297 110.465 196.864 105.117Z" fill="#F7CC7F"/>
<path d="M204.316 82.5251C204.316 82.5251 204.364 82.7734 204.449 83.1978C204.859 85.2299 206.139 91.2805 207.205 93.1339C208.493 95.3725 204.292 105.45 198.807 104.579C197.174 104.319 199.735 99.1617 199.182 96.6659C198.87 95.2534 197.924 90.8573 197.161 87.3025C196.574 84.5711 196.095 82.3376 196.095 82.3376L204.316 82.5251Z" fill="#F7A491"/>
<path d="M204.449 83.1979C204.363 82.7748 204.316 82.5252 204.316 82.5252L196.095 82.3364C196.095 82.3364 196.574 84.5699 197.161 87.3013C197.367 88.2565 197.584 89.2738 197.801 90.2759C199.07 90.1036 200.396 89.5373 201.726 88.4668C203.176 87.3 204.125 85.8976 204.699 84.4014C204.597 83.9251 204.512 83.5121 204.449 83.1979Z" fill="#F47458"/>
<path d="M199.371 64.5255C199.371 64.5255 202.723 64.9537 205.152 67.8421C207.58 70.7306 210.199 79.6608 204.165 84.5167C198.132 89.3726 192.17 83.8756 191.286 78.048C190.403 72.2217 190.582 64.3152 199.371 64.5255Z" fill="#F7A491"/>
<path d="M189.356 76.0579C190.076 77.345 191.285 78.0583 192.056 77.6503C192.827 77.2424 192.869 75.8679 192.148 74.5807C191.429 73.2936 190.219 72.5803 189.448 72.9883C188.677 73.3962 188.636 74.7707 189.356 76.0579Z" fill="#F7A491"/>
<path d="M198.349 64.3912C198.349 64.3912 203.526 72.8843 207.229 73.277C210.932 73.6697 211.418 78.1823 211.418 78.1823C211.418 78.1823 210.095 67.7839 206.429 65.7784C202.763 63.7717 198.349 64.3912 198.349 64.3912Z" fill="#13375B"/>
<path d="M206.018 75.3002C205.717 76.8091 206.322 78.1912 207.37 78.3901C208.418 78.5877 209.513 77.5261 209.814 76.0173C210.115 74.5097 209.509 73.1263 208.461 72.9274C207.413 72.7297 206.319 73.7914 206.018 75.3002Z" fill="#F7A491"/>
<path d="M209.314 104.617C210.501 115.72 208.043 131.368 208.043 131.368L185.267 138.81C185.267 138.81 181.379 137.268 180.137 137.761C178.895 138.255 176.166 139.028 176.591 139.729C177.016 140.431 179.331 139.124 179.932 139.37C180.534 139.614 178.326 141.656 177.398 142.22C176.47 142.784 169.608 141.631 168.581 141.731C168.028 141.786 168.589 142.201 169.44 142.579C168.452 142.368 167.445 142.254 167.086 142.553C166.302 143.204 171.11 144.559 171.11 144.559C171.11 144.559 164.761 143.355 167.637 144.663C167.637 144.663 174.322 148.024 178.093 146.168C181.864 144.312 182.902 144.089 184.167 143.559C184.535 143.406 212.785 142.059 214.8 140.232C219.591 135.887 221.645 116.965 221.949 106.033C217.504 104.678 214.119 104.224 209.314 104.617Z" fill="#F7A491"/>
<path d="M207.25 101.063C207.42 97.8467 208.159 93.7091 211.589 92.5778C213.714 91.876 216.169 92.2674 217.889 93.5812C219.934 95.1445 222.307 98.3218 222.583 100.926C223.177 106.559 223.012 111.781 222.03 117.398C218.14 115.421 212.666 116.661 208.211 116.238C208.211 116.204 207.025 105.314 207.25 101.063Z" fill="#FAE0B2"/>
<path d="M165.484 203.188C161.878 207.452 160.255 211.377 159.97 211.927C159.832 212.19 159.779 213.711 159.643 213.988C154.03 217.689 148.084 216.662 143.203 215.138C146.416 213.745 150.891 212.13 151.31 211.456C151.977 210.383 155.039 206.488 158.195 199.49C160.71 201.996 162.09 202.225 165.484 203.188Z" fill="#F7A491"/>
<path d="M159.911 212.13C160.402 214.375 160.205 219.811 159.761 219.911C159.23 220.03 140.386 221.943 137.973 219.518C136.521 218.06 139.26 216.939 143.203 215.136C148.085 216.661 159.731 213.653 159.911 212.13Z" fill="#F7CC7F"/>
<path d="M155.881 202.237L163.53 206.766C163.53 206.766 184.425 175.302 186.071 168.055C187.573 161.445 193.392 158.462 193.392 158.462L214.99 151.036C214.99 151.036 179.49 149.63 174.81 152.444C168.863 156.019 155.881 202.237 155.881 202.237Z" fill="#D42D2D"/>
<path d="M104.052 162.84L106.912 232.766L104.541 232.764L96.7929 162.031L104.052 162.84Z" fill="#184655"/>
<path d="M78.7744 162.752H196.662V161.639C196.662 154.761 191.098 149.187 184.236 149.187H91.2001C84.3368 149.187 78.7744 154.762 78.7744 161.639V162.752Z" fill="#184655"/>
<path d="M181.237 162.544L177.936 232.997L180.753 232.999L189.941 161.729L181.237 162.544Z" fill="#184655"/>
<path d="M92.7058 162.308L95.4579 232.762L92.4327 232.761L85.4468 161.492L92.7058 162.308Z" fill="#184655"/>
<path d="M141.458 148.663C141.554 148.663 141.65 148.653 141.748 148.63C142.579 148.443 143.126 147.498 142.966 146.518C142.966 146.518 135.012 116.029 134.495 115.833C134.331 115.771 133.942 114.987 133.927 114.988C133.848 114.99 133.768 115.002 133.687 115.02C132.855 115.208 132.309 116.153 132.468 117.132L139.952 147.197C140.094 148.061 140.736 148.663 141.458 148.663Z" fill="#355389"/>
<path d="M153.546 118.569L161.005 147.68L142.047 147.944L133.923 114.986L151.167 115.948C152.47 116.007 153.382 117.56 153.546 118.569Z" fill="#466EB6"/>
<path d="M180.615 146.883C180.616 146.905 180.616 146.926 180.616 146.948C180.619 148.14 179.585 149.108 178.307 149.11L142.242 149.186C140.964 149.189 139.927 148.225 139.925 147.034C139.925 146.983 139.927 146.934 139.931 146.885H180.615V146.883Z" fill="#355389"/>
<path d="M131.551 41.3633V101.057C131.551 105.263 128.149 108.672 123.952 108.672H112.32L122.732 119.703L99.6057 108.68L48.1177 108.672C43.9206 108.672 40.5186 105.263 40.5186 101.057V41.3633C40.5186 37.1573 43.9218 33.7482 48.1177 33.7482H123.953C128.149 33.7469 131.551 37.1573 131.551 41.3633Z" fill="#FAE0B2"/>
<path d="M94.8814 52.1153C94.2076 48.0309 93.506 43.9313 89.5731 40.8085C86.3911 38.2823 82.4569 37.7262 78.6378 38.8714C67.8176 42.1159 74.5165 48.3565 60.2109 55.2672C45.4136 62.4149 48.6158 76.1427 52.9646 80.3905C73.7719 100.715 92.1128 76.9434 93.4466 70.6559C94.4402 65.9811 95.3163 54.7453 94.8814 52.1153Z" fill="#FF3B3B"/>
<path d="M92.6324 75.2546C100.685 84.1468 109.058 93.4367 109.058 93.4367L128.132 86.6628C128.132 86.6628 130.04 83.7313 131.123 83.4665C132.208 83.203 134.439 82.4099 134.489 83.094C134.537 83.7781 132.329 84.0062 132.037 84.4635C131.745 84.9221 134.233 85.2452 135.137 85.1806C136.041 85.1159 140.162 81.0126 140.911 80.5844C141.314 80.3538 141.132 80.9087 140.734 81.5776C141.305 80.9568 141.937 80.3931 142.325 80.4222C143.174 80.4868 140.548 83.7351 140.548 83.7351C140.548 83.7351 144.295 79.8458 142.965 82.1274C142.965 82.1274 140.027 87.6509 136.563 88.2084C133.099 88.7671 132.284 89.1167 131.166 89.3676C130.841 89.441 110.94 102.172 108.685 101.911C104.32 101.404 92.817 89.3612 87.3468 82.0577C89.726 78.9856 89.1672 77.3108 92.6324 75.2546Z" fill="#F7A491"/>
<path d="M93.1431 72.3129C96.052 73.7039 105.681 87.3076 105.681 87.3076L97.2657 94.2247L91.4643 87.9283C91.4655 87.9283 89.5642 70.6014 93.1431 72.3129Z" fill="#355389"/>
<path d="M58.1794 83.2473C52.933 96.9928 50.4678 109.852 50.4678 109.852C51.7952 113.589 55.5461 113.674 55.5461 113.674C60.5181 94.5858 65.6622 85.6341 65.6622 85.6341C60.7887 81.399 58.1794 83.2473 58.1794 83.2473Z" fill="#F7A491"/>
<path d="M70.6684 70.8661C70.6684 70.8661 68.7354 71.288 66.9048 72.2672C60.8342 75.518 55.785 85.3578 55.785 85.3578L63.5333 93.5443L67.9845 86.2446C67.9845 86.2459 73.2903 70.8661 70.6684 70.8661Z" fill="#355389"/>
<path d="M93.9295 113.748C89.4467 116.135 73.2524 115.749 73.2524 115.749C72.8251 111.256 68.7152 97.3817 67.7165 87.718C66.4611 80.9922 69.303 80.9086 70.6684 70.8661C70.6772 70.799 77.6252 70.3125 77.6252 70.3125L84.8551 70.4911C84.8551 70.4911 91.1445 70.9979 93.1444 72.3116C93.2835 72.4028 94.0799 83.7527 93.4567 91.7936C93.0319 97.2766 92.4112 101.702 92.4517 105.326C92.5085 110.594 93.9295 113.748 93.9295 113.748Z" fill="#466EB6"/>
<path d="M94.7562 85.7924C94.9964 92.8932 87.9612 94.8404 80.1156 94.8404C72.27 94.8404 65.9112 91.3616 65.9112 87.0719C65.9112 82.7811 71.126 77.0054 78.9677 76.7444C88.7804 76.4163 94.5717 80.3537 94.7562 85.7924Z" fill="#466EB6"/>
<path d="M86.0346 71.2336C86.1698 69.6348 86.5428 64.5153 86.8285 60.868C86.9827 58.8942 87.0952 57.4551 87.0952 57.4551L79.4545 58.6206C79.4545 58.6206 79.2889 59.8051 79.0335 61.4394C78.567 64.4292 78.3293 69.3358 77.7301 70.8256C77.2029 72.1381 78.1195 81.5408 81.8855 81.5408C86.2242 81.5408 85.8412 73.2035 85.9764 71.5896L86.0346 71.2336Z" fill="#F7A491"/>
<path d="M86.8424 60.8022C86.989 58.8714 87.0952 57.4551 87.0952 57.4551L79.4545 58.6206C79.4545 58.6206 79.2623 59.7354 79.0487 61.3114C82.1459 63.1117 84.9309 62.5441 86.8424 60.8022Z" fill="#F47458"/>
<path d="M81.8501 41.2899C81.8501 41.2899 78.8388 41.9702 76.9792 44.8143C75.1196 47.6585 73.844 56.0299 79.969 59.9382C86.094 63.8465 90.8575 58.3179 90.9358 52.9261C91.0142 47.5356 89.8613 40.3398 81.8501 41.2899Z" fill="#F7A491"/>
<path d="M92.3366 51.2399C91.8145 52.541 90.7779 53.348 90.0206 53.0427C89.2646 52.7373 89.075 51.435 89.5971 50.1352C90.1192 48.8354 91.1559 48.0271 91.9131 48.3324C92.6703 48.6365 92.86 49.9388 92.3366 51.2399Z" fill="#F7A491"/>
<path d="M82.754 41.1137C82.754 41.1137 78.9147 49.7436 75.5405 50.5152C72.1677 51.2854 72.2157 55.6282 72.2157 55.6282C72.2157 55.6282 72.2916 45.5997 75.452 43.2991C78.6151 40.9997 82.754 41.1137 82.754 41.1137Z" fill="#FF3B3B"/>
<path d="M76.9501 53.861C77.3584 55.1481 76.9842 56.4162 76.117 56.6924C75.2485 56.9686 74.2144 56.1489 73.806 54.8618C73.3977 53.5747 73.7719 52.3065 74.6404 52.0303C75.5076 51.7542 76.543 52.5738 76.9501 53.861Z" fill="#F7A491"/>
</g>
<defs>
<clipPath id="clip0">
<rect width="317" height="236" fill="white"/>
</clipPath>
</defs>
</svg>
