<svg width="20" height="33" viewBox="0 0 20 33" fill="none" xmlns="http://www.w3.org/2000/svg">
<path d="M19.0549 20.1829C18.7054 19.5774 18.2477 19.0798 17.6912 18.6831C16.2792 19.9858 15.0351 20.9105 12.5975 21.4316C12.6688 21.6945 12.7079 21.9832 12.7079 22.3047C12.7079 23.3257 12.4112 24.1003 11.8156 24.626C11.2223 25.1541 10.4473 25.417 9.49066 25.417C9.11812 25.417 8.5938 25.3771 7.9177 25.2926C7.40488 25.2292 6.94495 25.1236 6.54021 24.9758C6.50801 24.9664 6.47582 24.957 6.43672 24.9476V24.9499C6.43672 24.9499 6.42983 24.9476 6.42063 24.9429C5.55136 24.7223 3.12063 24.3937 1.49707 25.6024C1.01415 25.9639 0.648502 26.4404 0.39554 27.0225C0.361045 27.1046 0.32885 27.1891 0.298955 27.2783C0.289756 27.3065 0.278258 27.3346 0.269059 27.3628C0.098885 27.8932 0 28.5035 0 29.2029C0.876167 29.4142 1.92481 29.5855 2.91826 29.717V32.1603H6.30794V30.0714C6.37463 30.0761 6.41143 30.0784 6.41833 30.0808C7.61875 30.177 8.70878 30.2286 9.69763 30.2357V32.1627H13.0873V29.8695C13.7427 29.7029 14.3682 29.4799 14.9569 29.2006C16.408 28.5082 17.5509 27.5905 18.3788 26.4474C19.209 25.3067 19.6229 24.0768 19.6229 22.7601C19.6252 21.7015 19.4344 20.8425 19.0549 20.1829Z" fill="white"/>
<path d="M0.958955 24.0792C2.73199 22.7578 5.22941 22.9526 6.44132 23.2178V19.1667C6.99094 19.3638 7.71303 19.5422 8.21895 19.6713C8.91115 19.8473 9.69303 19.9365 10.5692 19.9365C11.0889 19.9365 11.5971 19.8919 12.0962 19.8121C12.6343 19.7088 13.108 19.5915 13.5334 19.453C13.6139 19.4272 13.6921 19.4014 13.768 19.3732C13.7864 19.3662 13.8048 19.3591 13.8232 19.3521C14.1613 19.2253 14.4924 19.0798 14.8213 18.9132C14.9316 18.8568 15.0351 18.7958 15.1432 18.7348C15.8308 18.3264 16.4149 17.8311 17.0542 17.242C17.4268 16.8477 17.7671 16.4111 18.0707 15.9323C18.9008 14.625 19.3171 13.0665 19.3171 11.2545C19.3171 9.86733 19.0457 8.621 18.5053 7.51316C17.9626 6.40766 17.2428 5.46646 16.3436 4.68956C15.4445 3.91266 14.4372 3.32588 13.3196 2.92452V0H9.92759V2.32835C9.9115 2.32835 9.8931 2.32835 9.877 2.32835H6.53791V0H3.14822V2.74145C2.05819 2.88462 1.00725 3.05361 0 3.25781V25.0673C0.26446 24.6894 0.584111 24.3585 0.958955 24.0792ZM6.44132 8.5013H9.11812C10.1323 8.5013 10.9785 8.71958 11.6592 9.1538C12.3376 9.59037 12.678 10.2898 12.678 11.2545C12.678 12.1018 12.3376 12.8482 11.6592 13.496C10.9785 14.1438 10.1323 14.4654 9.11812 14.4654C8.60989 14.4654 8.13387 14.4184 7.68314 14.3245C7.37958 14.2612 6.86446 14.1696 6.44132 14.0734V8.5013Z" fill="white"/>
</svg>
