<svg width="576" height="115" viewBox="0 0 576 115" fill="none" xmlns="http://www.w3.org/2000/svg">
<path d="M55.4315 60.7504C54.4148 58.94 53.0837 57.4523 51.4649 56.2664C47.3579 60.161 43.7392 62.9258 36.6489 64.4836C36.8562 65.2696 36.9699 66.1327 36.9699 67.094C36.9699 70.1465 36.1071 72.4622 34.3746 74.0341C32.6489 75.613 30.3947 76.3989 27.6121 76.3989C26.5285 76.3989 25.0034 76.2796 23.0368 76.027C21.5452 75.8375 20.2074 75.5218 19.0301 75.0797C18.9365 75.0516 18.8428 75.0235 18.7291 74.9955V75.0025C18.7291 75.0025 18.7091 74.9955 18.6823 74.9814C16.1539 74.3218 9.08362 73.3394 4.36121 76.9533C2.95653 78.0339 1.89298 79.4584 1.15719 81.1987C1.05686 81.4443 0.963212 81.6969 0.876255 81.9636C0.849499 82.0478 0.816054 82.132 0.789299 82.2162C0.287626 83.7951 0 85.6196 0 87.7177C2.5485 88.3493 5.59867 88.8616 8.4883 89.2545V96.5595H18.3478V90.3141C18.5418 90.3282 18.6489 90.3352 18.6689 90.3422C22.1606 90.6299 25.3311 90.7843 28.2074 90.8053V96.5665H38.0669V89.7106C39.9733 89.2124 41.7927 88.5458 43.5051 87.7107C47.7258 85.6406 51.0502 82.8969 53.4583 79.4795C55.873 76.0691 57.077 72.3921 57.077 68.4554C57.0971 65.2906 56.5419 62.7223 55.4315 60.7504Z" fill="#141DF0"/>
<path d="M2.79757 72.3992C7.95476 68.4484 15.219 69.0309 18.7441 69.8238V57.7121C20.3427 58.3015 22.4431 58.8348 23.9146 59.2208C25.928 59.7471 28.2023 60.0137 30.7507 60.0137C32.2625 60.0137 33.7407 59.8804 35.1922 59.6418C36.7574 59.333 38.1354 58.9822 39.3728 58.5682C39.6069 58.491 39.8344 58.4138 40.0551 58.3296C40.1086 58.3085 40.1621 58.2875 40.2156 58.2664C41.1989 57.8875 42.1621 57.4524 43.1186 56.9542C43.4397 56.7858 43.7407 56.6033 44.0551 56.4209C46.0551 55.1999 47.7541 53.7192 49.6136 51.9579C50.6972 50.779 51.6872 49.4738 52.5701 48.0423C54.9849 44.1407 56.1889 39.4812 56.1889 34.0639C56.1889 29.9167 55.3996 26.1906 53.8277 22.8784C52.2491 19.5733 50.1554 16.7594 47.54 14.4367C44.9247 12.114 41.9949 10.3596 38.7441 9.15969V0.40918H28.8845V7.37029C28.8377 7.37029 28.7842 7.37029 28.7374 7.37029H19.025V0.416197H9.16546V8.61235C5.99489 9.03338 2.93804 9.54564 0.00827026 10.1491V75.3534C0.777501 74.2236 1.70727 73.2342 2.79757 72.3992ZM18.7441 25.8257H26.53C29.4798 25.8257 31.9414 26.4783 33.9213 27.7765C35.8946 29.0817 36.8845 31.1728 36.8845 34.0569C36.8845 36.5901 35.8946 38.8216 33.9213 40.7584C31.9414 42.6951 29.4798 43.6565 26.53 43.6565C25.0518 43.6565 23.6671 43.5162 22.3561 43.2355C21.4732 43.046 19.9748 42.7723 18.7441 42.4846V25.8257Z" fill="#231F20"/>
<path d="M92.4213 34.7095V88.644H75.0835V49.5159H66.7156V34.7095H92.4213ZM82.642 4.46515C84.5885 4.46515 86.3879 4.95636 88.0334 5.94579C89.6789 6.93522 91.01 8.25446 92.0133 9.91053C93.0233 11.5666 93.525 13.4192 93.525 15.4612C93.525 17.433 93.0233 19.2645 92.0133 20.9627C91.0033 22.6539 89.6789 23.9941 88.0334 24.9836C86.3879 25.973 84.5885 26.4642 82.642 26.4642C79.7524 26.4642 77.2307 25.3906 75.0835 23.2363C72.9296 21.089 71.8594 18.4926 71.8594 15.4612C71.8594 12.3596 72.9363 9.74914 75.0835 7.63694C77.2307 5.52475 79.7524 4.46515 82.642 4.46515Z" fill="#141DF0"/>
<path d="M129.612 18.8435V34.7025H143.117V48.9756H129.612V64.0978C129.612 66.7082 130.134 68.7713 131.177 70.287C132.221 71.8027 133.679 72.5606 135.565 72.5606C138.522 72.5606 141.244 71.7887 143.732 70.2308V84.3987C142.656 85.9495 140.963 87.3038 138.642 88.4687C136.321 89.6336 133.485 90.216 130.127 90.216C126.903 90.216 123.947 89.4371 121.258 87.8863C118.569 86.3355 116.401 84.118 114.756 81.2269C113.11 78.3358 112.288 74.8482 112.288 70.7571V48.9756H103.619V37.8743C106.91 36.962 110.154 34.9691 113.345 31.9026C116.535 28.8361 118.87 24.4854 120.348 18.8435H129.612Z" fill="#141DF0"/>
<path d="M172.654 12.5V56.3859L189.083 34.7096H210.053L189.29 57.9718L210.962 88.6372H189.089L178.2 70.4485L172.654 76.5815V88.6372H155.317V12.5H172.654Z" fill="#141DF0"/>
<path d="M235.86 12.5V56.3859L252.289 34.7096H273.259L252.496 57.9718L274.168 88.6372H252.295L241.406 70.4485L235.86 76.5815V88.6372H218.523V12.5H235.86Z" fill="#141DF0"/>
<path d="M297.35 33.1235C300.039 33.1235 302.675 33.741 305.263 34.9761C307.852 36.2111 309.986 37.7759 311.665 39.6846V34.7164H329.003V88.651H311.665V79.6619C310.387 82.6232 308.441 85.1284 305.819 87.1704C303.196 89.2124 300.039 90.2369 296.34 90.2369C292.507 90.2369 288.915 89.2124 285.551 87.1704C282.186 85.1284 279.451 81.9706 277.337 77.7041C275.216 73.4376 274.16 68.0624 274.16 61.5785C274.16 55.5156 275.216 50.3719 277.337 46.1405C279.457 41.9091 282.273 38.6812 285.805 36.4637C289.337 34.2322 293.183 33.1235 297.35 33.1235ZM300.976 50.8912C298.487 50.8912 296.421 51.9508 294.775 54.063C293.13 56.1752 292.307 58.6803 292.307 61.5714C292.307 64.4625 293.143 66.8975 294.829 68.8694C296.507 70.8412 298.728 71.8307 301.484 71.8307C302.962 71.8307 304.474 71.4237 306.019 70.6167C307.564 69.8097 308.889 68.5747 309.999 66.9186C311.11 65.2625 311.665 63.1293 311.665 60.5189V55.3401C310.186 54.07 308.521 53.0104 306.675 52.1683C304.829 51.3122 302.929 50.8912 300.976 50.8912Z" fill="#141DF0"/>
<path d="M374.969 33.1236C380.214 33.1236 384.494 34.9902 387.819 38.7304C391.143 42.4706 392.809 48.0002 392.809 55.3332V88.6441H375.471L375.371 58.1893C375.371 55.5087 374.662 53.628 373.25 52.5333C371.839 51.4387 370.26 50.8913 368.515 50.8913C366.635 50.8913 365.05 51.4036 363.779 52.4211C362.501 53.4456 361.391 54.6596 360.454 56.07V88.6441H343.117V12.5069H360.454V41.6917C362.066 39.362 364.033 37.355 366.354 35.6639C368.668 33.9657 371.545 33.1236 374.969 33.1236Z" fill="#141DF0"/>
<path d="M432.682 17.791C436.582 17.791 440.308 18.7242 443.873 20.5908C447.431 22.4574 450.374 25.138 452.696 28.6256C455.017 32.1132 456.174 36.2954 456.174 41.1584C456.174 45.3196 455.063 49.1581 452.849 52.6877C450.629 56.2174 447.625 59.0524 443.826 61.1997C440.027 63.354 435.813 64.4276 431.177 64.4276C427.752 64.4276 424.609 64.0557 421.752 63.3189C418.896 62.5821 416.595 61.7821 414.849 60.94V88.6441H405.779V17.791H432.682ZM414.843 26.7801V52.2667C416.655 53.0456 419.023 53.7684 421.953 54.435C424.876 55.1087 427.853 55.4385 430.876 55.4385C435.98 55.4385 439.933 54.0491 442.722 51.2632C445.512 48.4774 446.903 45.1161 446.903 41.1654C446.903 38.134 446.114 35.5586 444.535 33.4464C442.956 31.3342 440.889 29.6922 438.334 28.5273C435.779 27.3625 433.057 26.7801 430.167 26.7801H414.843Z" fill="#231F20"/>
<path d="M486.514 34.7094C489.404 34.7094 492.34 35.4322 495.337 36.8778C498.327 38.3233 500.895 40.3162 503.049 42.8495V35.762H511.317V88.6371H503.049V79.6479C501.303 82.4689 498.929 84.939 495.946 87.0512C492.956 89.1633 489.544 90.223 485.711 90.223C481.41 90.223 477.477 89.0791 473.919 86.7845C470.354 84.4969 467.518 81.304 465.404 77.213C463.283 73.1219 462.227 68.3993 462.227 63.0451C462.227 57.1927 463.283 52.1543 465.404 47.9229C467.524 43.6915 470.427 40.4355 474.126 38.1409C477.812 35.8533 481.946 34.7094 486.514 34.7094ZM488.033 43.1723C484.407 43.1723 481.31 44.1266 478.762 46.0283C476.206 47.93 474.24 50.386 472.862 53.3753C471.484 56.3717 470.795 59.5996 470.795 63.0521C470.795 66.4345 471.464 69.5571 472.808 72.4132C474.153 75.2692 476.053 77.5428 478.501 79.2339C480.956 80.9251 483.792 81.7742 487.016 81.7742C490.106 81.7742 492.862 80.9251 495.283 79.2339C497.705 77.5428 499.618 75.199 501.029 72.2026C502.441 69.2063 503.109 65.838 503.043 62.1048L502.942 51.9508C500.855 49.2001 498.621 47.0528 496.24 45.502C493.859 43.9442 491.123 43.1723 488.033 43.1723Z" fill="#231F20"/>
<path d="M531.278 35.769L548.917 74.6867L566.054 35.769H575.934L538.836 114.025H529.258L543.673 85.4722L521.398 35.769H531.278Z" fill="#231F20"/>
</svg>
