<svg width="465" height="546" viewBox="0 0 465 546" fill="none" xmlns="http://www.w3.org/2000/svg">
<g clip-path="url(#clip0)">
<path d="M379.989 128.648C369.294 108.909 334.699 59.9505 279.751 55.7309C239.125 52.6121 168.644 59.3467 143.282 136.482C117.92 213.617 137.847 199.756 96.1809 260.018C54.5148 320.28 46.6653 349.808 50.2884 395.607C58.1255 494.685 146.903 508.898 282.166 410.672C417.428 312.447 429.056 219.206 379.989 128.648Z" fill="#141DF0"/>
<path d="M399.739 204.515C399.398 203.976 381.811 199.711 381.811 199.711L383.56 208.357L368.521 207.415L389.35 215.366L389.166 206.07L402.261 210.648L399.739 204.515Z" fill="url(#paint0_linear)"/>
<path d="M401.938 165.322C401.315 164.973 381.753 170.151 381.753 170.151L388.097 177.716L372.817 184.801L397.535 181.518L392.382 172.481L407.696 170.003L401.938 165.322Z" fill="url(#paint1_linear)"/>
<path d="M352.793 134.009C353.495 134.765 352.785 163.901 352.785 163.901L340.016 157.56L335.186 181.34L331.497 145.621L345.936 149.8L344.275 127.519L352.793 134.009Z" fill="url(#paint2_linear)"/>
<path d="M266.665 70.6321C266.665 70.6321 266.623 65.4685 259.145 68.0031C265.469 74.3138 262.906 83.8519 262.906 83.8519C262.906 83.8519 266.706 75.972 266.665 70.6321Z" fill="url(#paint3_linear)"/>
<path d="M194.762 99.585C194.762 99.585 265.267 95.0465 265.544 68.0013C273.099 86.611 314.133 160.275 265.544 178.594C226.296 193.39 194.762 105.561 194.762 99.585Z" fill="url(#paint4_linear)"/>
<path d="M230.929 128.789C230.844 129.001 230.924 129.243 231.118 129.362C231.313 129.482 231.566 129.443 231.716 129.27C241.358 118.154 248.704 120.622 252.085 122.904C252.267 123.027 252.511 123.005 252.67 122.854C252.829 122.701 252.859 122.459 252.743 122.272C242.132 105.258 233.717 121.926 230.929 128.789Z" fill="url(#paint5_linear)"/>
<path d="M282.999 110.824L282.394 110.186C281.37 109.107 280.145 108.27 278.769 107.698C268.919 103.612 267.743 112.596 267.759 117.242C267.759 117.466 267.919 117.657 268.141 117.698C268.362 117.739 268.58 117.617 268.662 117.409C272.085 108.66 279.285 110.174 282.594 111.431C282.758 111.494 282.942 111.435 283.04 111.289C283.135 111.145 283.119 110.951 282.999 110.824Z" fill="url(#paint6_linear)"/>
<path d="M272.847 151.878C281.212 150.721 283.784 142.42 285.373 138.658C286.022 137.121 285.596 135.344 284.318 134.268C283.04 133.194 281.211 133.075 279.804 133.974C276.256 136.243 276.784 138.748 270.182 141.343C266.648 142.732 254.572 140.632 250.696 144.896C246.819 149.16 261.835 153.403 272.847 151.878Z" fill="url(#paint7_linear)"/>
<path d="M241.883 169.287C241.834 169.287 241.786 169.273 241.745 169.243C236.307 165.215 231.111 159.948 226.303 153.586C226.226 153.485 226.246 153.34 226.348 153.264C226.45 153.187 226.594 153.207 226.671 153.308C231.454 159.635 236.618 164.872 242.02 168.872C242.122 168.949 242.143 169.091 242.068 169.194C242.024 169.255 241.954 169.287 241.883 169.287Z" fill="white"/>
<path d="M221.559 146.574C221.482 146.574 221.409 146.536 221.365 146.467C209.248 127.467 203.849 106.923 203.795 106.718C203.763 106.596 203.838 106.469 203.961 106.439C204.086 106.407 204.211 106.482 204.241 106.604C204.295 106.809 209.678 127.286 221.754 146.221C221.822 146.328 221.791 146.471 221.682 146.538C221.645 146.561 221.602 146.574 221.559 146.574Z" fill="white"/>
<path d="M176.222 108.222C176.222 108.222 176.263 103.058 183.741 105.593C177.418 111.903 179.981 121.442 179.981 121.442C179.981 121.442 176.183 113.562 176.222 108.222Z" fill="url(#paint8_linear)"/>
<path d="M248.124 137.175C248.124 137.175 180.352 130.1 177.343 105.591C169.788 124.201 128.753 197.864 177.343 216.184C216.59 230.98 248.124 143.15 248.124 137.175Z" fill="url(#paint9_linear)"/>
<path d="M218.002 168.304C217.925 168.089 217.706 167.96 217.481 167.999C202.972 170.548 198.835 164.008 197.655 160.109C197.591 159.899 197.39 159.762 197.168 159.779C196.949 159.797 196.772 159.966 196.743 160.185C194.213 180.063 211.282 172.436 217.786 168.869C217.986 168.758 218.077 168.52 218.002 168.304Z" fill="url(#paint10_linear)"/>
<path d="M174.591 150.882C162.202 152.067 162.886 139.276 162.886 139.276L161.306 143.663C160.84 157.325 170.393 154.026 174.848 151.762C175.047 151.661 175.147 151.431 175.083 151.216C175.021 151.002 174.814 150.861 174.591 150.882Z" fill="url(#paint11_linear)"/>
<path d="M177.071 176.513C170.316 171.457 161.635 174.082 157.851 175.637C156.305 176.271 155.354 177.835 155.502 179.495C155.65 181.155 156.866 182.527 158.501 182.876C162.622 183.757 169.199 182.63 171.208 183.574C174.644 185.188 181.114 195.88 186.875 195.577C192.637 195.274 185.967 183.17 177.071 176.513Z" fill="url(#paint12_linear)"/>
<path d="M192.383 211.284C192.278 211.284 192.183 211.211 192.158 211.104C192.13 210.979 192.208 210.856 192.333 210.83C200.249 209.054 208.607 202.691 217.174 191.917C217.252 191.817 217.399 191.801 217.499 191.88C217.599 191.958 217.615 192.104 217.536 192.204C208.901 203.062 200.456 209.481 192.435 211.278C192.417 211.282 192.401 211.284 192.383 211.284Z" fill="white"/>
<path d="M224.035 183.038C223.992 183.038 223.947 183.025 223.908 183C223.801 182.931 223.772 182.788 223.842 182.682C231.832 170.591 236.946 159.069 236.996 158.955C237.048 158.839 237.183 158.785 237.299 158.837C237.415 158.889 237.469 159.024 237.417 159.14C237.367 159.256 232.238 170.812 224.226 182.934C224.183 183.002 224.11 183.038 224.035 183.038Z" fill="white"/>
<path d="M176.945 265.492L193.149 229.934H193.142C199.196 217.983 194.941 203.404 183.249 196.414C176.231 192.22 168.26 191.349 160.803 194.587L140.506 182.457C139.846 174.367 135.314 167.768 128.295 163.573C116.601 156.586 101.66 159.817 93.9588 170.785L93.982 170.734L70.2371 201.753C67.4599 205.381 67.4028 210.384 70.0854 214.082L72.8768 217.917C75.4826 221.509 79.9999 223.198 84.2442 221.885L114.013 212.796L146.51 232.218L152.538 262.695C153.38 267.05 156.96 270.302 161.363 270.899L166.097 271.498C170.628 272.11 175.051 269.647 176.945 265.492Z" fill="#231F20"/>
<path d="M127.131 197.658C133.715 191.088 133.715 180.436 127.131 173.867C120.548 167.297 109.875 167.297 103.292 173.867C96.7086 180.436 96.7086 191.088 103.292 197.658C109.875 204.228 120.548 204.228 127.131 197.658Z" fill="#121112"/>
<path d="M182.831 230.946C189.414 224.376 189.414 213.725 182.831 207.155C176.248 200.585 165.575 200.585 158.991 207.155C152.408 213.725 152.408 224.376 158.991 230.946C165.575 237.516 176.248 237.516 182.831 230.946Z" fill="#121112"/>
<path d="M178.806 213.578C177.7 215.423 175.303 216.023 173.455 214.917C171.606 213.813 171.005 211.421 172.113 209.577C173.22 207.732 175.617 207.132 177.464 208.238C179.311 209.342 179.913 211.734 178.806 213.578Z" fill="url(#paint13_linear)"/>
<path d="M170.184 227.948C169.077 229.794 166.68 230.394 164.833 229.288C162.984 228.183 162.383 225.791 163.491 223.948C164.597 222.102 166.994 221.502 168.842 222.608C170.689 223.713 171.29 226.103 170.184 227.948Z" fill="url(#paint14_linear)"/>
<path d="M176.343 226.405C174.494 225.301 173.893 222.909 175.001 221.065C176.108 219.22 178.505 218.62 180.352 219.726C182.201 220.83 182.801 223.222 181.694 225.066C180.587 226.909 178.19 227.51 176.343 226.405Z" fill="url(#paint15_linear)"/>
<path d="M161.943 217.801C160.094 216.696 159.493 214.304 160.601 212.461C161.708 210.615 164.105 210.015 165.952 211.121C167.801 212.226 168.401 214.618 167.294 216.461C166.188 218.305 163.792 218.905 161.943 217.801Z" fill="#91B3FA"/>
<path d="M122.844 188.253L118.039 185.382L121.297 178.466C121.621 177.771 121.436 176.831 120.777 176.437L119.18 175.482C118.826 175.27 118.423 175.174 118.027 175.286C117.629 175.399 117.217 175.801 117.026 176.168L113.597 182.726L107.607 179.146C106.897 178.722 105.778 178.419 105.353 179.128L104.623 180.345C104.198 181.054 104.773 182.263 105.483 182.687L111.7 186.403L108.2 193.1C107.834 193.802 108.012 194.779 108.692 195.185L110.984 196.555C111.348 196.772 111.873 196.682 112.278 196.559C112.683 196.434 113.042 196.105 113.22 195.722L116.304 189.154L120.72 191.794C121.43 192.218 121.932 191.653 122.357 190.945L123.087 189.728C123.513 189.019 123.554 188.677 122.844 188.253Z" fill="black"/>
<path d="M142.825 195.385C142.591 195.777 142.082 195.903 141.69 195.668L137.433 193.125C137.04 192.891 136.913 192.384 137.149 191.994C137.383 191.602 137.892 191.475 138.282 191.71L142.539 194.254C142.932 194.487 143.06 194.995 142.825 195.385Z" fill="black"/>
<path d="M152.757 201.32C152.523 201.712 152.015 201.838 151.622 201.603L147.365 199.059C146.973 198.826 146.846 198.318 147.081 197.927C147.315 197.537 147.824 197.408 148.217 197.643L152.473 200.187C152.864 200.422 152.991 200.93 152.757 201.32Z" fill="black"/>
<path d="M269.213 154.472C235.716 154.472 207.607 181.725 207.607 215.345C207.607 248.964 235.716 274.335 269.213 272.089C301.479 269.927 326.778 242.766 326.778 211.351C326.778 179.939 301.481 154.472 269.213 154.472ZM269.213 161.673C279.06 161.632 286.961 169.451 286.961 179.137C286.961 188.821 279.06 196.865 269.213 197.104C259.256 197.346 251.099 189.53 251.099 179.645C251.099 169.761 259.256 161.714 269.213 161.673ZM273.44 213.14C273.44 215.446 271.55 217.384 269.213 217.468C266.87 217.552 264.967 215.742 264.967 213.425C264.967 211.107 266.872 209.169 269.213 209.096C271.55 209.022 273.44 210.833 273.44 213.14ZM234.229 232.522C223.869 232.975 215.382 225.17 215.382 215.085C215.382 205 223.869 196.627 234.229 196.384C244.471 196.144 252.688 203.958 252.688 213.834C252.688 223.711 244.471 232.075 234.229 232.522ZM269.213 264.89C259.256 265.517 251.099 258.016 251.099 248.131C251.099 238.245 259.256 229.884 269.213 229.459C279.06 229.038 286.961 236.551 286.961 246.237C286.961 255.921 279.06 264.27 269.213 264.89ZM302.857 229.53C293.278 229.949 285.433 222.432 285.433 212.737C285.433 203.044 293.278 195.002 302.857 194.778C312.33 194.555 319.934 202.08 319.934 211.581C319.934 221.082 312.33 229.117 302.857 229.53Z" fill="url(#paint16_linear)"/>
<path d="M300.64 212.228C300.64 229.379 286.71 243.998 269.213 244.9C251.36 245.819 236.619 232.159 236.619 214.372C236.619 196.586 251.36 181.937 269.213 181.661C286.711 181.39 300.64 195.077 300.64 212.228Z" fill="url(#paint17_linear)"/>
<path d="M312.052 212.03C312.052 232.396 295.541 249.816 274.73 250.959C253.414 252.131 235.752 235.858 235.752 214.588C235.752 193.317 253.416 175.86 274.73 175.603C295.541 175.352 312.052 191.664 312.052 212.03Z" fill="url(#paint18_linear)"/>
<path d="M306.159 212.228C306.159 229.379 292.228 243.998 274.732 244.9C256.879 245.819 242.138 232.159 242.138 214.372C242.138 196.586 256.879 181.937 274.732 181.661C292.228 181.39 306.159 195.077 306.159 212.228Z" fill="url(#paint19_linear)"/>
<path d="M273.75 154.472C240.253 154.472 212.144 181.725 212.144 215.345C212.144 248.964 240.253 274.335 273.75 272.089C306.016 269.927 331.315 242.766 331.315 211.351C331.315 179.939 306.016 154.472 273.75 154.472ZM273.75 161.673C283.597 161.632 291.498 169.451 291.498 179.137C291.498 188.821 283.597 196.865 273.75 197.104C263.793 197.346 255.636 189.53 255.636 179.645C255.636 169.761 263.793 161.714 273.75 161.673ZM277.977 213.14C277.977 215.446 276.087 217.384 273.75 217.468C271.407 217.552 269.504 215.742 269.504 213.425C269.504 211.107 271.409 209.169 273.75 209.096C276.087 209.022 277.977 210.833 277.977 213.14ZM238.766 232.522C228.406 232.975 219.919 225.17 219.919 215.085C219.919 205 228.406 196.627 238.766 196.384C249.008 196.144 257.225 203.958 257.225 213.834C257.225 223.711 249.008 232.075 238.766 232.522ZM273.75 264.89C263.793 265.517 255.636 258.016 255.636 248.131C255.636 238.245 263.793 229.884 273.75 229.459C283.597 229.038 291.498 236.551 291.498 246.237C291.498 255.921 283.597 264.27 273.75 264.89ZM307.394 229.53C297.815 229.949 289.97 222.432 289.97 212.737C289.97 203.044 297.815 195.002 307.394 194.778C316.867 194.555 324.471 202.08 324.471 211.581C324.471 221.082 316.867 229.117 307.394 229.53Z" fill="url(#paint20_linear)"/>
<path d="M401.265 135.351L400.672 136.182L404.501 138.906L405.093 138.076L401.265 135.351Z" fill="url(#paint21_linear)"/>
<path d="M406.527 138.336L405.311 140.039C405.188 140.211 404.949 140.251 404.776 140.128L404.235 139.743C404.062 139.62 404.022 139.381 404.146 139.209L405.361 137.506C405.484 137.333 405.723 137.294 405.897 137.417L406.437 137.801C406.609 137.926 406.65 138.165 406.527 138.336Z" fill="url(#paint22_linear)"/>
<path d="M403.922 130.226L403.328 131.056L407.158 133.78L407.751 132.95L403.922 130.226Z" fill="url(#paint23_linear)"/>
<path d="M409.182 133.211L407.967 134.914C407.844 135.087 407.605 135.126 407.431 135.003L406.891 134.619C406.717 134.496 406.678 134.257 406.801 134.084L408.017 132.381C408.14 132.209 408.379 132.169 408.552 132.292L409.093 132.677C409.266 132.8 409.305 133.039 409.182 133.211Z" fill="url(#paint24_linear)"/>
<path d="M407.053 124.438L406.461 125.268L410.289 127.991L410.881 127.161L407.053 124.438Z" fill="url(#paint25_linear)"/>
<path d="M412.315 127.423L411.099 129.126C410.976 129.298 410.737 129.337 410.564 129.215L410.023 128.83C409.85 128.707 409.811 128.468 409.934 128.295L411.149 126.593C411.272 126.42 411.511 126.381 411.685 126.504L412.225 126.888C412.397 127.011 412.436 127.25 412.315 127.423Z" fill="url(#paint26_linear)"/>
<path d="M395.273 131.088L394.679 131.918L390.851 129.195L391.445 128.365L395.273 131.088Z" fill="url(#paint27_linear)"/>
<path d="M390.879 127.205L389.664 128.908C389.541 129.081 389.582 129.32 389.753 129.443L390.294 129.827C390.467 129.95 390.706 129.909 390.829 129.738L392.045 128.035C392.168 127.863 392.127 127.624 391.955 127.501L391.415 127.116C391.241 126.993 391.002 127.034 390.879 127.205Z" fill="url(#paint28_linear)"/>
<path d="M399.261 126.911L398.668 127.741L394.84 125.018L395.432 124.186L399.261 126.911Z" fill="url(#paint29_linear)"/>
<path d="M394.866 123.029L393.651 124.731C393.528 124.904 393.569 125.143 393.74 125.266L394.281 125.651C394.454 125.773 394.693 125.732 394.816 125.561L396.032 123.859C396.155 123.686 396.114 123.447 395.943 123.324L395.402 122.94C395.229 122.817 394.99 122.856 394.866 123.029Z" fill="url(#paint30_linear)"/>
<path d="M403.724 122.069L403.13 122.899L399.302 120.175L399.896 119.345L403.724 122.069Z" fill="url(#paint31_linear)"/>
<path d="M399.33 118.186L398.115 119.889C397.992 120.061 398.033 120.3 398.204 120.423L398.745 120.808C398.918 120.931 399.157 120.89 399.28 120.719L400.496 119.016C400.619 118.843 400.578 118.604 400.406 118.481L399.866 118.097C399.693 117.974 399.453 118.013 399.33 118.186Z" fill="url(#paint32_linear)"/>
<path d="M357.687 191.468L356.367 193.379C356.226 193.584 356.167 193.834 356.204 194.079L357.32 201.562C357.45 202.433 357.371 203.322 357.091 204.157L335.167 269.594C334.858 270.516 334.039 271.177 333.07 271.284L332.038 271.4C331.367 271.475 330.694 271.275 330.171 270.848C329.648 270.42 329.322 269.8 329.264 269.129L326.146 232.75C326.13 232.57 326.038 232.407 325.889 232.301C325.297 231.879 324.551 231.737 323.842 231.908L288.475 240.507C287.268 240.801 286.028 240.167 285.56 239.016L285.109 237.905C284.675 236.838 285.03 235.613 285.965 234.939L344.783 192.63L350.941 189.504C352.967 188.476 355.397 188.656 357.248 189.972L357.445 190.113C357.885 190.424 357.991 191.026 357.687 191.468Z" fill="url(#paint33_linear)"/>
<path d="M353.384 205.68L338.522 245.142C338.351 245.594 337.98 245.943 337.516 246.084C337.052 246.225 336.548 246.143 336.152 245.863C335.028 245.063 334.467 243.688 334.713 242.333L336.061 224.001L331.769 222.104L312.475 227.407C311.44 227.692 310.333 227.496 309.459 226.874L309.444 226.863C308.877 226.459 308.538 225.811 308.529 225.114C308.522 224.42 308.846 223.762 309.403 223.345L343.131 198.181C344.346 197.275 346.008 197.257 347.243 198.135L352.14 201.619C353.431 202.538 353.939 204.203 353.384 205.68Z" fill="url(#paint34_linear)"/>
<path d="M353.234 203.651C353.038 203.927 352.654 203.989 352.379 203.794L347.885 200.596C347.61 200.4 347.544 200.017 347.742 199.743L390.933 139.274L396.426 143.182L353.234 203.651Z" fill="url(#paint35_linear)"/>
<path d="M409.953 122.606L402.236 138.721C401.811 139.609 400.901 140.165 399.914 140.138L398.64 140.281L396.425 143.184L395.646 142.693L390.933 139.276L392.955 135.652L392.373 131.719C392.253 130.91 392.537 130.096 393.135 129.537L404.797 118.611C405.698 117.767 407.098 117.753 408.017 118.577L409.4 119.819C410.184 120.522 410.409 121.657 409.953 122.606Z" fill="url(#paint36_linear)"/>
<path d="M362.099 179.643C362.007 179.577 361.88 179.598 361.814 179.691C361.748 179.783 361.769 179.91 361.862 179.976L367.522 184.001C367.613 184.067 367.741 184.046 367.807 183.953C367.873 183.861 367.852 183.734 367.759 183.668L362.099 179.643Z" fill="url(#paint37_linear)"/>
<path d="M371.591 166.352C371.5 166.286 371.371 166.307 371.305 166.4C371.239 166.491 371.261 166.619 371.354 166.685L377.013 170.71C377.106 170.776 377.233 170.755 377.299 170.662C377.365 170.57 377.343 170.443 377.251 170.377L371.591 166.352Z" fill="url(#paint38_linear)"/>
<path d="M381.084 153.063C380.993 152.997 380.865 153.018 380.799 153.111C380.733 153.202 380.754 153.33 380.847 153.396L386.507 157.421C386.599 157.487 386.726 157.466 386.792 157.373C386.858 157.28 386.837 157.154 386.744 157.088L381.084 153.063Z" fill="url(#paint39_linear)"/>
<path d="M336.645 224.418L336.811 224.536L400.53 135.33L400.362 135.21L336.645 224.418Z" fill="url(#paint40_linear)"/>
<path d="M335.977 223.944L336.145 224.062L402.948 130.536L402.782 130.417L335.977 223.944Z" fill="url(#paint41_linear)"/>
<path d="M335.145 223.351L335.311 223.47L406.4 124.473L406.234 124.354L335.145 223.351Z" fill="url(#paint42_linear)"/>
<path d="M334.314 222.76L334.48 222.879L405.015 123.645L404.849 123.526L334.314 222.76Z" fill="url(#paint43_linear)"/>
<path d="M333.648 222.286L333.814 222.405L400.617 128.878L400.451 128.759L333.648 222.286Z" fill="url(#paint44_linear)"/>
<path d="M332.982 221.812L333.148 221.931L396.867 132.724L396.701 132.604L332.982 221.812Z" fill="url(#paint45_linear)"/>
<path d="M400.933 135.114C400.472 134.786 399.835 134.893 399.507 135.353C399.178 135.812 399.286 136.448 399.746 136.776C400.207 137.103 400.844 136.997 401.172 136.537C401.499 136.079 401.392 135.442 400.933 135.114Z" fill="url(#paint46_linear)"/>
<path d="M403.541 129.704C403.08 129.377 402.443 129.484 402.114 129.943C401.786 130.403 401.893 131.039 402.354 131.366C402.814 131.694 403.451 131.587 403.78 131.128C404.108 130.67 404.001 130.032 403.541 129.704Z" fill="url(#paint47_linear)"/>
<path d="M406.316 125.435C406.881 125.435 407.339 124.978 407.339 124.414C407.339 123.851 406.881 123.394 406.316 123.394C405.751 123.394 405.293 123.851 405.293 124.414C405.293 124.978 405.751 125.435 406.316 125.435Z" fill="url(#paint48_linear)"/>
<path d="M405.031 121.996C404.57 121.668 403.933 121.775 403.605 122.234C403.276 122.694 403.383 123.33 403.844 123.657C404.304 123.985 404.942 123.878 405.27 123.419C405.598 122.961 405.491 122.323 405.031 121.996Z" fill="url(#paint49_linear)"/>
<path d="M399.834 129.59C400.398 129.59 400.856 129.133 400.856 128.57C400.856 128.006 400.398 127.549 399.834 127.549C399.269 127.549 398.811 128.006 398.811 128.57C398.811 129.133 399.269 129.59 399.834 129.59Z" fill="url(#paint50_linear)"/>
<path d="M396.937 132.273C396.476 131.945 395.839 132.052 395.511 132.512C395.182 132.971 395.289 133.607 395.75 133.935C396.21 134.262 396.848 134.156 397.176 133.696C397.504 133.237 397.397 132.599 396.937 132.273Z" fill="url(#paint51_linear)"/>
<path d="M331.792 219.963C331.424 219.701 330.914 219.787 330.651 220.154C330.389 220.521 330.475 221.03 330.842 221.292L337.833 226.265C338.201 226.527 338.711 226.441 338.974 226.074C339.236 225.707 339.15 225.198 338.783 224.936L331.792 219.963Z" fill="url(#paint52_linear)"/>
<path d="M316.655 221.472C316.194 221.144 315.557 221.251 315.229 221.71C314.901 222.17 315.008 222.806 315.468 223.134C315.929 223.461 316.566 223.354 316.894 222.895C317.222 222.437 317.115 221.799 316.655 221.472Z" fill="url(#paint53_linear)"/>
<path d="M338.701 239.428C339.266 239.428 339.723 238.971 339.723 238.407C339.723 237.843 339.266 237.386 338.701 237.386C338.136 237.386 337.678 237.843 337.678 238.407C337.678 238.971 338.136 239.428 338.701 239.428Z" fill="url(#paint54_linear)"/>
<path d="M327.673 212.023C327.212 211.695 326.575 211.802 326.246 212.261C325.918 212.721 326.025 213.357 326.486 213.685C326.946 214.012 327.583 213.905 327.912 213.446C328.24 212.986 328.133 212.35 327.673 212.023Z" fill="url(#paint55_linear)"/>
<path d="M344.153 223.746C343.693 223.419 343.056 223.526 342.727 223.985C342.399 224.445 342.506 225.08 342.966 225.408C343.427 225.736 344.064 225.629 344.392 225.17C344.719 224.71 344.612 224.074 344.153 223.746Z" fill="url(#paint56_linear)"/>
<path d="M350.131 210.252C349.725 209.964 349.161 210.058 348.871 210.462C348.581 210.868 348.676 211.43 349.081 211.72C349.488 212.008 350.05 211.914 350.341 211.51C350.63 211.104 350.536 210.541 350.131 210.252Z" fill="url(#paint57_linear)"/>
<path d="M340.143 203.147C339.738 202.859 339.174 202.953 338.883 203.357C338.594 203.763 338.688 204.325 339.093 204.615C339.499 204.903 340.063 204.809 340.353 204.405C340.643 203.999 340.548 203.436 340.143 203.147Z" fill="url(#paint58_linear)"/>
<path d="M289.066 236.234C288.992 236.48 289.012 236.754 289.139 236.996L289.424 237.541C289.642 237.96 290.115 238.174 290.574 238.062L300.715 235.6C300.824 235.573 300.892 235.463 300.865 235.354C300.838 235.246 300.727 235.178 300.618 235.205L290.477 237.666C290.202 237.732 289.919 237.604 289.787 237.353L289.501 236.808C289.362 236.542 289.435 236.216 289.676 236.035L306.599 223.278C306.689 223.21 306.706 223.082 306.639 222.993C306.571 222.902 306.442 222.886 306.353 222.954L289.43 235.71C289.249 235.846 289.126 236.031 289.066 236.234Z" fill="white"/>
<path d="M309.719 220.465C309.701 220.526 309.71 220.594 309.751 220.647C309.819 220.736 309.948 220.754 310.037 220.686L317.04 215.407C317.13 215.339 317.148 215.211 317.08 215.122C317.012 215.033 316.883 215.015 316.794 215.083L309.791 220.362C309.757 220.389 309.732 220.426 309.719 220.465Z" fill="white"/>
<path d="M329.125 244.454C329.118 244.477 329.116 244.5 329.116 244.525L330.516 266.818C330.523 266.931 330.619 267.016 330.732 267.009C330.844 267.002 330.93 266.906 330.923 266.792L329.523 244.499C329.516 244.386 329.42 244.301 329.307 244.308C329.22 244.313 329.148 244.374 329.125 244.454Z" fill="white"/>
<path d="M115.91 393.99C115.91 396.731 118.159 398.972 120.907 398.972H391.163C393.911 398.972 396.16 396.73 396.16 393.99L398.409 238.999C398.409 236.257 395.173 230.909 389.244 231.309L125.121 224.489C121.673 224.4 118.337 225.725 115.896 228.155C113.454 230.584 112.117 233.906 112.199 237.344L115.91 393.99Z" fill="url(#paint59_linear)"/>
<path d="M120.843 389.21C120.843 391.805 122.971 393.928 125.571 393.928H384.645C387.245 393.928 389.373 391.805 389.373 389.21L391.495 248.507C391.245 240.039 383.806 236.997 379.298 237.177L126.16 230.399C123.736 230.335 121.395 231.267 119.678 232.975C117.961 234.683 117.018 237.022 117.079 239.439L120.843 389.21Z" fill="url(#paint60_linear)"/>
<path d="M386.572 322.366C386.569 322.366 386.565 322.366 386.562 322.366C386.18 322.361 385.873 322.047 385.88 321.664L386.048 310.254C386.053 309.877 386.362 309.574 386.74 309.574C386.744 309.574 386.747 309.574 386.751 309.574C387.135 309.579 387.44 309.893 387.433 310.276L387.265 321.686C387.26 322.063 386.951 322.366 386.572 322.366Z" fill="white"/>
<path d="M386.985 294.404C386.981 294.404 386.978 294.404 386.974 294.404C386.592 294.398 386.285 294.083 386.292 293.702L386.935 249.998C386.922 247.402 386.133 245.329 384.588 243.851C381.704 241.093 377.124 241.234 376.929 241.243L296.021 239.077C295.639 239.068 295.337 238.749 295.346 238.368C295.357 237.987 295.65 237.661 296.058 237.697L376.919 239.863C377.422 239.832 382.298 239.749 385.546 242.853C387.374 244.601 388.307 247.007 388.32 250.005L387.677 293.722C387.672 294.101 387.363 294.404 386.985 294.404Z" fill="white"/>
<path d="M94.994 411.839H411.595C412.15 411.839 412.604 411.387 412.604 410.833V399.229C412.604 398.675 412.15 398.222 411.595 398.222H94.994C94.4389 398.222 93.9856 398.675 93.9856 399.229V410.833C93.9856 411.385 94.4389 411.839 94.994 411.839Z" fill="url(#paint61_linear)"/>
<path opacity="0.21" d="M384.645 393.928H124.457V250.136C124.457 242.995 130.356 237.26 137.51 237.445L372.392 243.535C379.18 243.711 384.591 249.251 384.593 256.028L384.645 393.928Z" fill="white"/>
<path opacity="0.69" d="M132.758 361.555L132.932 362.636C133.09 363.626 134.422 364.38 136.01 364.38H303.251C304.961 364.38 306.346 363.512 306.346 362.442C306.346 361.38 304.981 360.515 303.283 360.504L135.869 359.423C134.026 359.412 132.575 360.406 132.758 361.555Z" fill="white"/>
<path opacity="0.69" d="M130.176 372.459L130.285 373.54C130.385 374.531 131.22 375.284 132.216 375.284H237.151C238.224 375.284 239.093 374.417 239.093 373.346C239.093 372.285 238.236 371.419 237.171 371.408L132.127 370.327C130.97 370.317 130.06 371.31 130.176 372.459Z" fill="white"/>
<path opacity="0.69" d="M130.176 382.888L130.285 383.969C130.385 384.959 131.22 385.713 132.216 385.713H237.151C238.224 385.713 239.093 384.845 239.093 383.775C239.093 382.713 238.236 381.848 237.171 381.837L132.127 380.756C130.97 380.745 130.06 381.739 130.176 382.888Z" fill="white"/>
<path d="M199.908 363.659C199.785 362.05 199.635 360.42 199.49 358.785L134.704 357.72C133.547 357.701 132.637 359.289 132.751 361.126L132.86 362.854C132.96 364.437 133.795 365.641 134.791 365.641H200.088C200.02 364.946 199.954 364.278 199.908 363.659Z" fill="url(#paint62_linear)"/>
<path d="M200.427 365.639C202.366 365.639 203.938 364.071 203.938 362.136C203.938 360.201 202.366 358.632 200.427 358.632C198.488 358.632 196.917 360.201 196.917 362.136C196.917 364.071 198.488 365.639 200.427 365.639Z" fill="white"/>
<path d="M300.718 352.455H136.312C132.917 352.455 130.165 349.709 130.165 346.321V251.957C130.165 248.522 132.99 245.756 136.432 245.822L300.836 248.984C304.185 249.048 306.865 251.775 306.865 255.118V346.319C306.865 349.709 304.113 352.455 300.718 352.455Z" fill="url(#paint63_linear)"/>
<path fill-rule="evenodd" clip-rule="evenodd" d="M215.013 313.293V289.667C215.013 287.143 217.766 285.578 219.942 286.866L239.891 298.678C242.022 299.939 242.022 303.019 239.891 304.28L219.942 316.093C217.765 317.382 215.013 315.818 215.013 313.293Z" fill="white"/>
<path d="M372.005 282.94H321.206C320.157 282.94 319.307 282.092 319.307 281.045V251.889C319.307 250.827 320.18 249.972 321.244 249.994L372.043 250.971C373.078 250.991 373.906 251.833 373.906 252.867V281.046C373.904 282.092 373.055 282.94 372.005 282.94Z" fill="url(#paint64_linear)"/>
<path fill-rule="evenodd" clip-rule="evenodd" d="M345.524 270.84V263.541C345.524 262.761 346.375 262.278 347.046 262.676L353.209 266.325C353.868 266.715 353.868 267.666 353.209 268.056L347.046 271.706C346.375 272.103 345.524 271.621 345.524 270.84Z" fill="white"/>
<path d="M372.444 329.647H321.645C320.596 329.647 319.746 328.799 319.746 327.752V298.594C319.746 297.533 320.619 296.678 321.683 296.699L372.482 297.677C373.517 297.697 374.345 298.539 374.345 299.572V327.752C374.343 328.798 373.494 329.647 372.444 329.647Z" fill="url(#paint65_linear)"/>
<path fill-rule="evenodd" clip-rule="evenodd" d="M345.963 317.546V310.247C345.963 309.467 346.814 308.984 347.485 309.381L353.648 313.031C354.307 313.421 354.307 314.372 353.648 314.762L347.485 318.412C346.814 318.809 345.963 318.326 345.963 317.546Z" fill="white"/>
<path opacity="0.69" d="M320.548 379.94L320.601 380.273C320.651 380.579 321.063 380.813 321.556 380.813H373.385C373.915 380.813 374.343 380.546 374.343 380.214C374.343 379.887 373.92 379.619 373.394 379.616L321.511 379.283C320.94 379.279 320.49 379.586 320.548 379.94Z" fill="white"/>
<path opacity="0.69" d="M319.75 383.65L319.784 384.097C319.814 384.507 320.073 384.819 320.38 384.819H352.802C353.134 384.819 353.402 384.461 353.402 384.017C353.402 383.579 353.138 383.221 352.808 383.216L320.351 382.769C319.996 382.763 319.714 383.175 319.75 383.65Z" fill="white"/>
<path d="M341.296 380.59C341.258 380.093 341.212 379.589 341.167 379.085L321.149 378.756C320.792 378.75 320.51 379.24 320.546 379.808L320.58 380.343C320.61 380.832 320.869 381.205 321.176 381.205H341.351C341.332 380.987 341.31 380.783 341.296 380.59Z" fill="url(#paint66_linear)"/>
<path d="M341.707 381.139C342.291 381.001 342.652 380.418 342.514 379.836C342.376 379.254 341.792 378.893 341.209 379.031C340.625 379.168 340.264 379.752 340.402 380.334C340.54 380.916 341.124 381.276 341.707 381.139Z" fill="white"/>
<path d="M372.444 376.358H321.645C320.596 376.358 319.746 375.51 319.746 374.463V345.307C319.746 344.246 320.619 343.391 321.683 343.412L372.482 344.39C373.517 344.409 374.345 345.252 374.345 346.285V374.465C374.343 375.509 373.494 376.358 372.444 376.358Z" fill="url(#paint67_linear)"/>
<path fill-rule="evenodd" clip-rule="evenodd" d="M345.963 364.257V356.958C345.963 356.178 346.814 355.695 347.485 356.092L353.648 359.742C354.307 360.132 354.307 361.083 353.648 361.473L347.485 365.123C346.814 365.52 345.963 365.037 345.963 364.257Z" fill="white"/>
<path opacity="0.69" d="M321.054 333.975L321.104 334.284C321.149 334.567 321.531 334.781 321.986 334.781H369.847C370.336 334.781 370.732 334.533 370.732 334.228C370.732 333.926 370.342 333.678 369.856 333.676L321.945 333.368C321.417 333.363 321.003 333.648 321.054 333.975Z" fill="white"/>
<path opacity="0.69" d="M320.317 337.399L320.348 337.812C320.376 338.19 320.614 338.478 320.899 338.478H350.841C351.146 338.478 351.394 338.147 351.394 337.739C351.394 337.333 351.15 337.004 350.846 337L320.874 336.587C320.544 336.581 320.285 336.961 320.317 337.399Z" fill="white"/>
<path d="M340.214 334.574C340.178 334.114 340.136 333.649 340.095 333.183L321.61 332.878C321.279 332.873 321.019 333.325 321.053 333.851L321.083 334.344C321.112 334.796 321.349 335.14 321.634 335.14H340.266C340.246 334.942 340.228 334.752 340.214 334.574Z" fill="url(#paint68_linear)"/>
<path d="M341.066 334.848C341.457 334.457 341.457 333.825 341.066 333.435C340.675 333.044 340.041 333.044 339.65 333.435C339.259 333.825 339.259 334.457 339.65 334.848C340.041 335.238 340.675 335.238 341.066 334.848Z" fill="white"/>
<path opacity="0.69" d="M320.514 287.863L320.564 288.171C320.608 288.454 320.99 288.668 321.445 288.668H369.306C369.795 288.668 370.192 288.42 370.192 288.116C370.192 287.813 369.801 287.565 369.315 287.564L321.404 287.255C320.876 287.252 320.462 287.535 320.514 287.863Z" fill="white"/>
<path opacity="0.69" d="M319.776 291.288L319.807 291.701C319.835 292.079 320.073 292.367 320.358 292.367H350.3C350.605 292.367 350.853 292.036 350.853 291.628C350.853 291.222 350.609 290.892 350.305 290.889L320.333 290.476C320.003 290.47 319.744 290.85 319.776 291.288Z" fill="white"/>
<path d="M339.673 288.463C339.638 288.003 339.595 287.539 339.554 287.072L321.069 286.767C320.739 286.762 320.478 287.214 320.512 287.74L320.542 288.233C320.571 288.686 320.808 289.029 321.094 289.029H339.725C339.706 288.83 339.688 288.639 339.673 288.463Z" fill="url(#paint69_linear)"/>
<path d="M339.822 289.028C340.375 289.028 340.823 288.58 340.823 288.028C340.823 287.477 340.375 287.029 339.822 287.029C339.269 287.029 338.82 287.477 338.82 288.028C338.82 288.58 339.269 289.028 339.822 289.028Z" fill="white"/>
<path d="M106.763 326.023C106.763 326.023 93.2306 333.504 92.1097 346.166C90.9907 358.828 92.0169 411.383 119.153 424.318C146.291 437.253 182.212 434.273 195.96 432.859C209.71 431.445 217.333 422.118 219.035 415.699C220.738 409.28 223.489 385.36 209.025 377.644C194.561 369.928 179.368 358.109 164.189 346.599C149.011 335.091 122.994 316.301 106.763 326.023Z" fill="url(#paint70_linear)"/>
<path d="M204.762 382.01C204.762 382.01 201.111 382.202 200.663 389.703C200.663 389.703 209.132 397.28 220.574 399.084C221.433 399.22 219.373 393.233 219.064 392.423C217.588 388.561 212.948 386.076 204.762 382.01Z" fill="url(#paint71_linear)"/>
<path d="M163.626 373.192H171.335C171.335 373.192 194.992 347.117 210.508 344.486C210.508 344.486 221.309 358.246 209.933 383.953C209.017 386.021 206.458 386.94 204.55 385.724C203.979 385.36 203.568 384.872 203.32 384.26L204.236 362.309C204.236 362.309 184.057 379.923 180.548 383.321C177.039 386.721 159.209 384.65 163.626 373.192Z" fill="url(#paint72_linear)"/>
<path d="M238.143 427.935C234.913 425.111 229.767 421.942 222.337 421.033L219.824 422.567C219.824 422.567 221.427 424.925 224.354 427.417C227.044 428.976 231.199 431.088 234.642 431.546C237.99 431.989 238.484 429.971 238.143 427.935Z" fill="url(#paint73_linear)"/>
<path d="M219.062 392.419C217.072 393.062 216.198 395.875 211.148 394.015C206.263 392.214 202.631 389.893 200.765 388.556C200.723 388.919 200.688 389.297 200.663 389.701C200.663 389.701 209.594 398.178 221.034 399.982C221.893 400.117 222.575 399.262 222.264 398.45C221.707 396.995 220.706 394.788 219.062 392.419Z" fill="url(#paint74_linear)"/>
<path d="M240.578 430.347C239.941 429.626 239.129 428.796 238.145 427.936C238.486 429.971 237.992 431.99 234.644 431.546C231.201 431.088 227.046 428.976 224.356 427.417C227.727 430.287 232.857 433.333 239.332 433.154C240.769 433.114 241.528 431.425 240.578 430.347Z" fill="url(#paint75_linear)"/>
<path d="M163.908 378.758L200.004 379.148C200.004 379.148 220.617 396.167 224.356 422.118C224.356 422.118 224.977 424.028 221.25 424.354C221.25 424.354 208.789 416.232 200.663 401.87C190.698 384.261 170.96 392.188 170.96 392.188C164.474 387.521 155.309 386.572 148.406 385.017L163.908 378.758Z" fill="url(#paint76_linear)"/>
<path d="M164.762 349.741C164.762 349.741 168.647 369.175 187.686 376.863L194.457 376.066L196.054 378.61L180.17 379.116C180.17 379.116 166.591 373.749 159.397 359.124C159.159 358.638 155.197 350.475 164.762 349.741Z" fill="url(#paint77_linear)"/>
<path d="M166.843 378.44C166.843 378.44 162.424 366.453 161.474 354.806C161.474 354.806 164.706 352.033 166.727 350.838C167.382 350.451 167.628 349.632 167.298 348.948C165.813 345.877 156.828 333.819 156.155 333.651C152.498 332.741 137.497 325.622 126.931 340.044C122.398 346.233 127.831 365.287 148.4 385.018L152.645 385.829L166.843 378.44Z" fill="url(#paint78_linear)"/>
<path d="M149.818 357.432C149.818 357.432 162.093 371.937 177.789 374.059C177.789 374.059 181.846 370.368 184.862 371.686C187.878 373.004 192.014 378.82 192.014 378.82H171.862C171.862 378.82 152.805 378.15 143.283 366.619C144.049 362.583 146.344 360.173 149.818 357.432Z" fill="url(#paint79_linear)"/>
<path d="M142.655 323.474L139.969 332.415C139.846 332.825 139.998 333.268 140.351 333.51C141.645 334.394 145.024 336.152 149.66 334.444C150.191 334.248 150.555 333.754 150.599 333.192L151.236 325.403L142.655 323.474Z" fill="url(#paint80_linear)"/>
<path d="M153.973 308.562C153.973 308.562 158.806 316.584 157.838 321.043C156.871 325.499 150.121 328.21 143.883 324.267L139.962 312.051L153.973 308.562Z" fill="url(#paint81_linear)"/>
<path d="M144.44 318.382C144.706 318.278 144.817 317.965 144.672 317.721C144.231 316.976 143.41 315.46 143.187 314.155C143.187 314.155 142.154 313.426 145.97 312.698C149.784 311.971 155.475 310.831 156.807 307.68C158.104 304.609 155.44 296.61 150.315 302.648C150.121 302.878 149.76 302.868 149.587 302.62C148.843 301.555 146.858 299.321 143.906 300.484C141.143 301.571 140.747 303.537 140.738 304.536C140.736 304.83 140.462 305.046 140.176 304.978C138.82 304.654 135.546 304.28 133.858 307.57C132.468 310.281 133.215 311.886 133.927 312.687C134.158 312.947 134.033 313.351 133.697 313.437C132.785 313.67 131.589 314.377 131.607 316.486C131.634 319.4 134.902 319.295 135.835 319.204C135.989 319.19 136.139 319.249 136.237 319.366C136.992 320.28 140.401 324.174 144.256 324.803C144.59 324.858 144.865 324.539 144.77 324.215L143.317 319.27C143.249 319.041 143.369 318.798 143.594 318.711L144.44 318.382Z" fill="url(#paint82_linear)"/>
<path d="M145.082 319.103C145.082 319.103 141.001 316.023 140.581 318.438C140.16 320.855 144.213 322.134 146.289 321.322L145.082 319.103Z" fill="url(#paint83_linear)"/>
<path d="M191 379.945L200.049 349.831C200.418 348.602 201.512 347.731 202.794 347.644L215.011 346.81C216.253 346.725 217.176 347.936 216.763 349.108L206.647 377.867C206.321 378.793 205.487 379.448 204.509 379.546L192.478 380.881L191 379.945Z" fill="url(#paint84_linear)"/>
<path d="M207.688 360.037C207.013 361.398 205.846 362.196 205.082 361.819C204.318 361.441 204.247 360.032 204.923 358.671C205.599 357.31 206.765 356.512 207.529 356.89C208.291 357.268 208.362 358.677 207.688 360.037Z" fill="url(#paint85_linear)"/>
<path d="M192.478 380.879C192.458 380.879 192.438 380.879 192.419 380.877L166.784 379.584C166.15 379.552 165.663 379.014 165.695 378.382C165.727 377.749 166.27 377.252 166.9 377.295L192.535 378.588C193.168 378.62 193.656 379.158 193.624 379.79C193.593 380.403 193.086 380.879 192.478 380.879Z" fill="url(#paint86_linear)"/>
<path d="M161.476 355.09C161.319 355.09 161.192 354.961 161.192 354.806C161.21 349.472 159.147 342.39 159.125 342.319C159.081 342.169 159.168 342.012 159.318 341.968C159.468 341.925 159.627 342.011 159.67 342.16C159.691 342.231 161.777 349.393 161.76 354.81C161.758 354.963 161.631 355.09 161.476 355.09Z" fill="#E78456"/>
<path d="M149.817 357.715C149.734 357.715 149.652 357.678 149.594 357.608C149.537 357.537 143.924 350.416 141.993 345.53C141.936 345.384 142.007 345.22 142.152 345.163C142.298 345.104 142.462 345.177 142.519 345.322C144.422 350.131 149.983 357.186 150.039 357.257C150.135 357.38 150.114 357.558 149.992 357.655C149.941 357.696 149.878 357.715 149.817 357.715Z" fill="#E78456"/>
<path d="M141.955 368.608L141.745 368.518C133.606 365.041 128.584 355.351 128.534 355.253C128.462 355.114 128.518 354.943 128.657 354.872C128.796 354.801 128.968 354.856 129.039 354.995C129.087 355.09 133.935 364.433 141.757 367.905L142.555 366.779C142.646 366.653 142.823 366.621 142.95 366.712C143.078 366.802 143.108 366.979 143.017 367.105L141.955 368.608Z" fill="#E78456"/>
<path d="M0 8.64043C11.9028 30.2388 3.24654 0 3.24654 0L0 8.64043Z" fill="black"/>
<path d="M462.078 535.655C472.899 549.694 450.176 545.375 450.176 545.375L462.078 535.655Z" fill="black"/>
</g>
<defs>
<linearGradient id="paint0_linear" x1="380.083" y1="207.522" x2="425.725" y2="207.829" gradientUnits="userSpaceOnUse">
<stop stop-color="#FDF53F"/>
<stop offset="1" stop-color="#D93C65"/>
</linearGradient>
<linearGradient id="paint1_linear" x1="378.42" y1="181.601" x2="426.11" y2="157.16" gradientUnits="userSpaceOnUse">
<stop stop-color="#FDF53F"/>
<stop offset="1" stop-color="#D93C65"/>
</linearGradient>
<linearGradient id="paint2_linear" x1="347.738" y1="183.628" x2="338.519" y2="118.49" gradientUnits="userSpaceOnUse">
<stop stop-color="#FDF53F"/>
<stop offset="0.1183" stop-color="#FCEF40"/>
<stop offset="0.269" stop-color="#F9E043"/>
<stop offset="0.4372" stop-color="#F4C649"/>
<stop offset="0.6183" stop-color="#EDA150"/>
<stop offset="0.8091" stop-color="#E4725A"/>
<stop offset="1" stop-color="#D93C65"/>
</linearGradient>
<linearGradient id="paint3_linear" x1="303.566" y1="87.9789" x2="222.94" y2="63.0737" gradientUnits="userSpaceOnUse">
<stop stop-color="#E92556"/>
<stop offset="1" stop-color="#F9C342"/>
</linearGradient>
<linearGradient id="paint4_linear" x1="139.849" y1="208.185" x2="256.559" y2="119.905" gradientUnits="userSpaceOnUse">
<stop stop-color="#E92556"/>
<stop offset="1" stop-color="#F9C342"/>
</linearGradient>
<linearGradient id="paint5_linear" x1="270.656" y1="193.736" x2="242.555" y2="127.124" gradientUnits="userSpaceOnUse">
<stop stop-color="#F9C200"/>
<stop offset="0.9964" stop-color="#9B1E5F"/>
</linearGradient>
<linearGradient id="paint6_linear" x1="303.299" y1="179.965" x2="275.198" y2="113.353" gradientUnits="userSpaceOnUse">
<stop stop-color="#F9C200"/>
<stop offset="0.9964" stop-color="#9B1E5F"/>
</linearGradient>
<linearGradient id="paint7_linear" x1="287.059" y1="186.816" x2="258.958" y2="120.204" gradientUnits="userSpaceOnUse">
<stop stop-color="#F9C200"/>
<stop offset="0.9964" stop-color="#9B1E5F"/>
</linearGradient>
<linearGradient id="paint8_linear" x1="139.321" y1="125.569" x2="219.948" y2="100.663" gradientUnits="userSpaceOnUse">
<stop stop-color="#E92556"/>
<stop offset="1" stop-color="#F9C342"/>
</linearGradient>
<linearGradient id="paint9_linear" x1="15.8151" y1="161.726" x2="213.543" y2="161.726" gradientUnits="userSpaceOnUse">
<stop stop-color="#E92556"/>
<stop offset="1" stop-color="#F9C342"/>
</linearGradient>
<linearGradient id="paint10_linear" x1="146.604" y1="218.734" x2="199.272" y2="171.418" gradientUnits="userSpaceOnUse">
<stop stop-color="#F9C200"/>
<stop offset="0.9964" stop-color="#9B1E5F"/>
</linearGradient>
<linearGradient id="paint11_linear" x1="120.065" y1="189.193" x2="172.733" y2="141.877" gradientUnits="userSpaceOnUse">
<stop stop-color="#F9C200"/>
<stop offset="0.9964" stop-color="#9B1E5F"/>
</linearGradient>
<linearGradient id="paint12_linear" x1="141.711" y1="213.288" x2="194.379" y2="165.971" gradientUnits="userSpaceOnUse">
<stop stop-color="#F9C200"/>
<stop offset="0.9964" stop-color="#9B1E5F"/>
</linearGradient>
<linearGradient id="paint13_linear" x1="134.347" y1="226.734" x2="244.338" y2="186.017" gradientUnits="userSpaceOnUse">
<stop stop-color="#FE7062"/>
<stop offset="1" stop-color="#FF928E"/>
</linearGradient>
<linearGradient id="paint14_linear" x1="137.992" y1="236.58" x2="247.982" y2="195.863" gradientUnits="userSpaceOnUse">
<stop stop-color="#4042E2"/>
<stop offset="1" stop-color="#4F52FF"/>
</linearGradient>
<linearGradient id="paint15_linear" x1="157.137" y1="241.902" x2="109.909" y2="284.067" gradientUnits="userSpaceOnUse">
<stop stop-color="#FE7062"/>
<stop offset="1" stop-color="#FF928E"/>
</linearGradient>
<linearGradient id="paint16_linear" x1="313.901" y1="255.259" x2="252.243" y2="199.78" gradientUnits="userSpaceOnUse">
<stop stop-color="#CB236D"/>
<stop offset="1" stop-color="#4C246D"/>
</linearGradient>
<linearGradient id="paint17_linear" x1="259.89" y1="187.451" x2="289.838" y2="276.466" gradientUnits="userSpaceOnUse">
<stop offset="0.003597" stop-color="#26264F"/>
<stop offset="1" stop-color="#444B8C"/>
</linearGradient>
<linearGradient id="paint18_linear" x1="263.485" y1="182.503" x2="299.174" y2="288.584" gradientUnits="userSpaceOnUse">
<stop stop-color="#444B8C"/>
<stop offset="0.9964" stop-color="#26264F"/>
</linearGradient>
<linearGradient id="paint19_linear" x1="265.407" y1="187.451" x2="295.355" y2="276.466" gradientUnits="userSpaceOnUse">
<stop offset="0.003597" stop-color="#26264F"/>
<stop offset="1" stop-color="#444B8C"/>
</linearGradient>
<linearGradient id="paint20_linear" x1="255.454" y1="165.248" x2="311.18" y2="330.885" gradientUnits="userSpaceOnUse">
<stop stop-color="#CB236D"/>
<stop offset="1" stop-color="#4C246D"/>
</linearGradient>
<linearGradient id="paint21_linear" x1="1157.65" y1="735.099" x2="1172.86" y2="747.192" gradientUnits="userSpaceOnUse">
<stop stop-color="#FDF53F"/>
<stop offset="1" stop-color="#D93C65"/>
</linearGradient>
<linearGradient id="paint22_linear" x1="1157.83" y1="734.926" x2="1173.03" y2="747.02" gradientUnits="userSpaceOnUse">
<stop stop-color="#FDF53F"/>
<stop offset="1" stop-color="#D93C65"/>
</linearGradient>
<linearGradient id="paint23_linear" x1="1161.18" y1="730.673" x2="1176.39" y2="742.766" gradientUnits="userSpaceOnUse">
<stop stop-color="#FDF53F"/>
<stop offset="1" stop-color="#D93C65"/>
</linearGradient>
<linearGradient id="paint24_linear" x1="1161.33" y1="730.491" x2="1176.53" y2="742.584" gradientUnits="userSpaceOnUse">
<stop stop-color="#FDF53F"/>
<stop offset="1" stop-color="#D93C65"/>
</linearGradient>
<linearGradient id="paint25_linear" x1="1165.22" y1="725.603" x2="1180.42" y2="737.696" gradientUnits="userSpaceOnUse">
<stop stop-color="#FDF53F"/>
<stop offset="1" stop-color="#D93C65"/>
</linearGradient>
<linearGradient id="paint26_linear" x1="1165.38" y1="725.419" x2="1180.58" y2="737.512" gradientUnits="userSpaceOnUse">
<stop stop-color="#FDF53F"/>
<stop offset="1" stop-color="#D93C65"/>
</linearGradient>
<linearGradient id="paint27_linear" x1="-866.215" y1="-670.907" x2="-882.589" y2="-681.365" gradientUnits="userSpaceOnUse">
<stop stop-color="#FDF53F"/>
<stop offset="1" stop-color="#D93C65"/>
</linearGradient>
<linearGradient id="paint28_linear" x1="-866.065" y1="-671.089" x2="-882.438" y2="-681.547" gradientUnits="userSpaceOnUse">
<stop stop-color="#FDF53F"/>
<stop offset="1" stop-color="#D93C65"/>
</linearGradient>
<linearGradient id="paint29_linear" x1="-863.16" y1="-675.676" x2="-879.534" y2="-686.134" gradientUnits="userSpaceOnUse">
<stop stop-color="#FDF53F"/>
<stop offset="1" stop-color="#D93C65"/>
</linearGradient>
<linearGradient id="paint30_linear" x1="-863" y1="-675.866" x2="-879.374" y2="-686.323" gradientUnits="userSpaceOnUse">
<stop stop-color="#FDF53F"/>
<stop offset="1" stop-color="#D93C65"/>
</linearGradient>
<linearGradient id="paint31_linear" x1="-859.667" y1="-681.136" x2="-876.041" y2="-691.594" gradientUnits="userSpaceOnUse">
<stop stop-color="#FDF53F"/>
<stop offset="1" stop-color="#D93C65"/>
</linearGradient>
<linearGradient id="paint32_linear" x1="-859.492" y1="-681.329" x2="-875.865" y2="-691.786" gradientUnits="userSpaceOnUse">
<stop stop-color="#FDF53F"/>
<stop offset="1" stop-color="#D93C65"/>
</linearGradient>
<linearGradient id="paint33_linear" x1="374.182" y1="212.685" x2="209.553" y2="303.781" gradientUnits="userSpaceOnUse">
<stop stop-color="#FDF53F"/>
<stop offset="1" stop-color="#D93C65"/>
</linearGradient>
<linearGradient id="paint34_linear" x1="383.049" y1="238.46" x2="324.488" y2="214.978" gradientUnits="userSpaceOnUse">
<stop stop-color="#FDF53F"/>
<stop offset="1" stop-color="#D93C65"/>
</linearGradient>
<linearGradient id="paint35_linear" x1="358.27" y1="193.267" x2="455.937" y2="39.3059" gradientUnits="userSpaceOnUse">
<stop stop-color="#FDF53F"/>
<stop offset="1" stop-color="#D93C65"/>
</linearGradient>
<linearGradient id="paint36_linear" x1="403.791" y1="128.686" x2="367.635" y2="155.76" gradientUnits="userSpaceOnUse">
<stop stop-color="#FDF53F"/>
<stop offset="1" stop-color="#D93C65"/>
</linearGradient>
<linearGradient id="paint37_linear" x1="374.398" y1="188.634" x2="327.34" y2="155.025" gradientUnits="userSpaceOnUse">
<stop stop-color="#CB236D"/>
<stop offset="1" stop-color="#4C246D"/>
</linearGradient>
<linearGradient id="paint38_linear" x1="383.891" y1="175.345" x2="336.833" y2="141.735" gradientUnits="userSpaceOnUse">
<stop stop-color="#CB236D"/>
<stop offset="1" stop-color="#4C246D"/>
</linearGradient>
<linearGradient id="paint39_linear" x1="393.383" y1="162.055" x2="346.325" y2="128.446" gradientUnits="userSpaceOnUse">
<stop stop-color="#CB236D"/>
<stop offset="1" stop-color="#4C246D"/>
</linearGradient>
<linearGradient id="paint40_linear" x1="493.425" y1="230.993" x2="413.096" y2="197.948" gradientUnits="userSpaceOnUse">
<stop stop-color="#FDF53F"/>
<stop offset="1" stop-color="#D93C65"/>
</linearGradient>
<linearGradient id="paint41_linear" x1="494.478" y1="228.432" x2="414.15" y2="195.386" gradientUnits="userSpaceOnUse">
<stop stop-color="#FDF53F"/>
<stop offset="1" stop-color="#D93C65"/>
</linearGradient>
<linearGradient id="paint42_linear" x1="495.839" y1="225.125" x2="415.51" y2="192.08" gradientUnits="userSpaceOnUse">
<stop stop-color="#FDF53F"/>
<stop offset="1" stop-color="#D93C65"/>
</linearGradient>
<linearGradient id="paint43_linear" x1="495.929" y1="224.905" x2="415.6" y2="191.86" gradientUnits="userSpaceOnUse">
<stop stop-color="#FDF53F"/>
<stop offset="1" stop-color="#D93C65"/>
</linearGradient>
<linearGradient id="paint44_linear" x1="494.726" y1="227.83" x2="414.397" y2="194.785" gradientUnits="userSpaceOnUse">
<stop stop-color="#FDF53F"/>
<stop offset="1" stop-color="#D93C65"/>
</linearGradient>
<linearGradient id="paint45_linear" x1="493.814" y1="230.047" x2="413.485" y2="197.002" gradientUnits="userSpaceOnUse">
<stop stop-color="#FDF53F"/>
<stop offset="1" stop-color="#D93C65"/>
</linearGradient>
<linearGradient id="paint46_linear" x1="709.322" y1="246.668" x2="689.07" y2="239.38" gradientUnits="userSpaceOnUse">
<stop stop-color="#FDF53F"/>
<stop offset="1" stop-color="#D93C65"/>
</linearGradient>
<linearGradient id="paint47_linear" x1="711.327" y1="241.049" x2="691.076" y2="233.762" gradientUnits="userSpaceOnUse">
<stop stop-color="#FDF53F"/>
<stop offset="1" stop-color="#D93C65"/>
</linearGradient>
<linearGradient id="paint48_linear" x1="713.668" y1="234.556" x2="693.418" y2="227.269" gradientUnits="userSpaceOnUse">
<stop stop-color="#FDF53F"/>
<stop offset="1" stop-color="#D93C65"/>
</linearGradient>
<linearGradient id="paint49_linear" x1="713.959" y1="233.749" x2="693.708" y2="226.461" gradientUnits="userSpaceOnUse">
<stop stop-color="#FDF53F"/>
<stop offset="1" stop-color="#D93C65"/>
</linearGradient>
<linearGradient id="paint50_linear" x1="711.598" y1="240.298" x2="691.347" y2="233.01" gradientUnits="userSpaceOnUse">
<stop stop-color="#FDF53F"/>
<stop offset="1" stop-color="#D93C65"/>
</linearGradient>
<linearGradient id="paint51_linear" x1="709.773" y1="245.421" x2="689.521" y2="238.133" gradientUnits="userSpaceOnUse">
<stop stop-color="#FDF53F"/>
<stop offset="1" stop-color="#D93C65"/>
</linearGradient>
<linearGradient id="paint52_linear" x1="674.037" y1="344.681" x2="653.786" y2="337.394" gradientUnits="userSpaceOnUse">
<stop stop-color="#FDF53F"/>
<stop offset="1" stop-color="#D93C65"/>
</linearGradient>
<linearGradient id="paint53_linear" x1="291.632" y1="224.786" x2="311.946" y2="222.694" gradientUnits="userSpaceOnUse">
<stop stop-color="#CB236D"/>
<stop offset="1" stop-color="#4C246D"/>
</linearGradient>
<linearGradient id="paint54_linear" x1="314.269" y1="240.89" x2="334.584" y2="238.798" gradientUnits="userSpaceOnUse">
<stop stop-color="#CB236D"/>
<stop offset="1" stop-color="#4C246D"/>
</linearGradient>
<linearGradient id="paint55_linear" x1="302.647" y1="215.336" x2="322.962" y2="213.244" gradientUnits="userSpaceOnUse">
<stop stop-color="#CB236D"/>
<stop offset="1" stop-color="#4C246D"/>
</linearGradient>
<linearGradient id="paint56_linear" x1="319.126" y1="227.059" x2="339.442" y2="224.967" gradientUnits="userSpaceOnUse">
<stop stop-color="#CB236D"/>
<stop offset="1" stop-color="#4C246D"/>
</linearGradient>
<linearGradient id="paint57_linear" x1="328.023" y1="213.177" x2="345.967" y2="211.329" gradientUnits="userSpaceOnUse">
<stop stop-color="#CB236D"/>
<stop offset="1" stop-color="#4C246D"/>
</linearGradient>
<linearGradient id="paint58_linear" x1="318.034" y1="206.072" x2="335.979" y2="204.224" gradientUnits="userSpaceOnUse">
<stop stop-color="#CB236D"/>
<stop offset="1" stop-color="#4C246D"/>
</linearGradient>
<linearGradient id="paint59_linear" x1="280.719" y1="387.057" x2="217.124" y2="195.884" gradientUnits="userSpaceOnUse">
<stop stop-color="#2B3582"/>
<stop offset="1" stop-color="#150E42"/>
</linearGradient>
<linearGradient id="paint60_linear" x1="121.324" y1="421.477" x2="509.935" y2="101.292" gradientUnits="userSpaceOnUse">
<stop stop-color="#53D8FF"/>
<stop offset="1" stop-color="#3840F7"/>
</linearGradient>
<linearGradient id="paint61_linear" x1="253.436" y1="408.981" x2="247.642" y2="246.408" gradientUnits="userSpaceOnUse">
<stop stop-color="#2B3582"/>
<stop offset="1" stop-color="#150E42"/>
</linearGradient>
<linearGradient id="paint62_linear" x1="162.953" y1="367.396" x2="224.249" y2="280.868" gradientUnits="userSpaceOnUse">
<stop stop-color="#A737D5"/>
<stop offset="1" stop-color="#EF497A"/>
</linearGradient>
<linearGradient id="paint63_linear" x1="118.382" y1="395.569" x2="382.826" y2="139.864" gradientUnits="userSpaceOnUse">
<stop stop-color="#A737D5"/>
<stop offset="1" stop-color="#EF497A"/>
</linearGradient>
<linearGradient id="paint64_linear" x1="163.787" y1="442.526" x2="428.231" y2="186.82" gradientUnits="userSpaceOnUse">
<stop stop-color="#A737D5"/>
<stop offset="1" stop-color="#EF497A"/>
</linearGradient>
<linearGradient id="paint65_linear" x1="187.385" y1="466.93" x2="451.83" y2="211.225" gradientUnits="userSpaceOnUse">
<stop stop-color="#A737D5"/>
<stop offset="1" stop-color="#EF497A"/>
</linearGradient>
<linearGradient id="paint66_linear" x1="320.596" y1="406.941" x2="370.667" y2="277.645" gradientUnits="userSpaceOnUse">
<stop stop-color="#A737D5"/>
<stop offset="1" stop-color="#EF497A"/>
</linearGradient>
<linearGradient id="paint67_linear" x1="210.773" y1="491.117" x2="475.218" y2="235.412" gradientUnits="userSpaceOnUse">
<stop stop-color="#A737D5"/>
<stop offset="1" stop-color="#EF497A"/>
</linearGradient>
<linearGradient id="paint68_linear" x1="324.733" y1="349.563" x2="374.802" y2="220.269" gradientUnits="userSpaceOnUse">
<stop stop-color="#A737D5"/>
<stop offset="1" stop-color="#EF497A"/>
</linearGradient>
<linearGradient id="paint69_linear" x1="318.295" y1="318.615" x2="368.367" y2="189.319" gradientUnits="userSpaceOnUse">
<stop stop-color="#A737D5"/>
<stop offset="1" stop-color="#EF497A"/>
</linearGradient>
<linearGradient id="paint70_linear" x1="175.031" y1="348.692" x2="139.29" y2="405.627" gradientUnits="userSpaceOnUse">
<stop stop-color="#808184"/>
<stop offset="1" stop-color="#121112"/>
</linearGradient>
<linearGradient id="paint71_linear" x1="208.453" y1="389.137" x2="221.666" y2="402.966" gradientUnits="userSpaceOnUse">
<stop stop-color="#2B3582"/>
<stop offset="1" stop-color="#150E42"/>
</linearGradient>
<linearGradient id="paint72_linear" x1="188.015" y1="375.447" x2="201.75" y2="323.608" gradientUnits="userSpaceOnUse">
<stop stop-color="#2B3582"/>
<stop offset="1" stop-color="#150E42"/>
</linearGradient>
<linearGradient id="paint73_linear" x1="226.018" y1="423.779" x2="251.029" y2="442.173" gradientUnits="userSpaceOnUse">
<stop stop-color="#2B3582"/>
<stop offset="1" stop-color="#150E42"/>
</linearGradient>
<linearGradient id="paint74_linear" x1="237.986" y1="414.023" x2="185.375" y2="370.96" gradientUnits="userSpaceOnUse">
<stop stop-color="#FDF53F"/>
<stop offset="0.6645" stop-color="#E57A58"/>
<stop offset="1" stop-color="#D93C65"/>
</linearGradient>
<linearGradient id="paint75_linear" x1="252.281" y1="444.825" x2="199.669" y2="401.761" gradientUnits="userSpaceOnUse">
<stop stop-color="#FDF53F"/>
<stop offset="0.6645" stop-color="#E57A58"/>
<stop offset="1" stop-color="#D93C65"/>
</linearGradient>
<linearGradient id="paint76_linear" x1="226.378" y1="388.984" x2="174.014" y2="408.776" gradientUnits="userSpaceOnUse">
<stop stop-color="#2B3582"/>
<stop offset="1" stop-color="#150E42"/>
</linearGradient>
<linearGradient id="paint77_linear" x1="185.553" y1="355.98" x2="168.589" y2="376.193" gradientUnits="userSpaceOnUse">
<stop stop-color="#F9B776"/>
<stop offset="1" stop-color="#F47960"/>
</linearGradient>
<linearGradient id="paint78_linear" x1="137.733" y1="318.586" x2="164.875" y2="414.001" gradientUnits="userSpaceOnUse">
<stop stop-color="#FDF53F"/>
<stop offset="0.6645" stop-color="#E57A58"/>
<stop offset="1" stop-color="#D93C65"/>
</linearGradient>
<linearGradient id="paint79_linear" x1="165.725" y1="374.341" x2="199.623" y2="327.872" gradientUnits="userSpaceOnUse">
<stop stop-color="#F9B776"/>
<stop offset="1" stop-color="#F47960"/>
</linearGradient>
<linearGradient id="paint80_linear" x1="144.934" y1="335.886" x2="146.181" y2="324.641" gradientUnits="userSpaceOnUse">
<stop stop-color="#F9B776"/>
<stop offset="1" stop-color="#F47960"/>
</linearGradient>
<linearGradient id="paint81_linear" x1="154.939" y1="320.463" x2="139.197" y2="309.813" gradientUnits="userSpaceOnUse">
<stop stop-color="#F9B776"/>
<stop offset="1" stop-color="#F47960"/>
</linearGradient>
<linearGradient id="paint82_linear" x1="129.996" y1="297.719" x2="152.395" y2="317.194" gradientUnits="userSpaceOnUse">
<stop stop-color="#2B3582"/>
<stop offset="1" stop-color="#150E42"/>
</linearGradient>
<linearGradient id="paint83_linear" x1="151.597" y1="325.403" x2="135.855" y2="314.753" gradientUnits="userSpaceOnUse">
<stop stop-color="#F9B776"/>
<stop offset="1" stop-color="#F47960"/>
</linearGradient>
<linearGradient id="paint84_linear" x1="186.138" y1="384.43" x2="218.53" y2="345.403" gradientUnits="userSpaceOnUse">
<stop stop-color="#53D8FF"/>
<stop offset="1" stop-color="#3840F7"/>
</linearGradient>
<linearGradient id="paint85_linear" x1="212.683" y1="352.896" x2="196.975" y2="368.865" gradientUnits="userSpaceOnUse">
<stop stop-color="#FDF53F"/>
<stop offset="1" stop-color="#D93C65"/>
</linearGradient>
<linearGradient id="paint86_linear" x1="176.264" y1="391.727" x2="190.512" y2="338.477" gradientUnits="userSpaceOnUse">
<stop stop-color="#53D8FF"/>
<stop offset="1" stop-color="#3840F7"/>
</linearGradient>
<clipPath id="clip0">
<rect width="465" height="546" fill="white"/>
</clipPath>
</defs>
</svg>
