<svg width="526" height="97" viewBox="0 0 526 97" fill="none" xmlns="http://www.w3.org/2000/svg">
<path d="M1.8 36V2.976H5.928V32.016H21.336V36H1.8ZM33.5321 36.384C30.7161 36.384 28.6681 35.872 27.3881 34.848C26.1081 33.792 25.4681 31.936 25.4681 29.28C25.4681 27.392 25.6921 25.92 26.1401 24.864C26.5881 23.808 27.3401 23.04 28.3961 22.56C29.4841 22.08 31.0041 21.84 32.9561 21.84C33.8841 21.84 36.9401 21.92 42.1241 22.08V20.64C42.1241 18.72 41.9321 17.36 41.5481 16.56C41.1961 15.76 40.5241 15.248 39.5321 15.024C38.5721 14.8 36.9241 14.688 34.5881 14.688C33.5641 14.688 32.2681 14.752 30.7001 14.88C29.1641 14.976 27.9641 15.088 27.1001 15.216V11.808C29.6281 11.36 32.5881 11.136 35.9801 11.136C38.8601 11.136 41.0041 11.44 42.4121 12.048C43.8521 12.624 44.8121 13.584 45.2921 14.928C45.7721 16.24 46.0121 18.16 46.0121 20.688V36H42.5081L42.3161 32.592H42.0281C41.3561 34.128 40.2681 35.152 38.7641 35.664C37.2921 36.144 35.5481 36.384 33.5321 36.384ZM35.0201 32.88C36.6201 32.88 37.9161 32.736 38.9081 32.448C39.9321 32.16 40.6681 31.6 41.1161 30.768C41.7881 29.616 42.1241 28.016 42.1241 25.968V24.864H33.9641C32.6201 24.864 31.6281 24.96 30.9881 25.152C30.3801 25.344 29.9481 25.728 29.6921 26.304C29.4361 26.848 29.3081 27.712 29.3081 28.896C29.3081 30.048 29.4521 30.896 29.7401 31.44C30.0281 31.984 30.5561 32.368 31.3241 32.592C32.1241 32.784 33.3561 32.88 35.0201 32.88ZM65.676 11.52H69.132L69.324 14.976H69.612C70.252 13.504 71.26 12.496 72.636 11.952C74.044 11.408 75.724 11.136 77.676 11.136C80.108 11.136 81.964 11.504 83.244 12.24C84.524 12.976 85.42 14.24 85.932 16.032C86.476 17.792 86.748 20.352 86.748 23.712C86.748 27.104 86.476 29.696 85.932 31.488C85.42 33.28 84.524 34.544 83.244 35.28C81.996 36.016 80.172 36.384 77.772 36.384C75.692 36.384 73.996 36.128 72.684 35.616C71.404 35.104 70.444 34.208 69.804 32.928H69.564V45.6H65.676V11.52ZM76.14 32.592C78.22 32.592 79.692 32.4 80.556 32.016C81.452 31.632 82.044 30.848 82.332 29.664C82.652 28.48 82.812 26.512 82.812 23.76C82.812 21.008 82.652 19.04 82.332 17.856C82.044 16.672 81.452 15.888 80.556 15.504C79.692 15.088 78.22 14.88 76.14 14.88C74.508 14.88 73.212 15.104 72.252 15.552C71.292 16 70.62 16.688 70.236 17.616C69.948 18.32 69.756 19.136 69.66 20.064C69.596 20.992 69.564 22.224 69.564 23.76C69.564 25.328 69.596 26.56 69.66 27.456C69.724 28.352 69.884 29.104 70.14 29.712C70.556 30.736 71.244 31.472 72.204 31.92C73.164 32.368 74.476 32.592 76.14 32.592ZM94.0354 11.52H97.4914L97.6834 16.176H97.9714C98.5474 14.256 99.5074 12.944 100.851 12.24C102.195 11.504 103.955 11.136 106.131 11.136V15.312C103.923 15.312 102.227 15.648 101.043 16.32C99.8594 16.992 99.0434 18.032 98.5954 19.44C98.1474 20.816 97.9234 22.688 97.9234 25.056V36H94.0354V11.52ZM111.516 4.8V0.335999H115.644V4.8H111.516ZM111.66 36V11.52H115.548V36H111.66ZM153.992 22.224C153.992 19.92 153.864 18.288 153.608 17.328C153.384 16.368 152.92 15.728 152.216 15.408C151.512 15.088 150.328 14.928 148.664 14.928C146.872 14.928 145.56 15.232 144.728 15.84C143.896 16.448 143.368 17.312 143.144 18.432C142.92 19.552 142.808 21.2 142.808 23.376V36H138.92V22.224C138.92 19.92 138.792 18.288 138.536 17.328C138.312 16.368 137.848 15.728 137.144 15.408C136.44 15.088 135.256 14.928 133.592 14.928C131.8 14.928 130.488 15.248 129.656 15.888C128.824 16.496 128.296 17.376 128.072 18.528C127.848 19.648 127.736 21.264 127.736 23.376V36H123.848V11.52H127.304L127.496 14.976H127.784C128.264 13.728 129.08 12.784 130.232 12.144C131.416 11.472 133.08 11.136 135.224 11.136C137.336 11.136 138.936 11.44 140.024 12.048C141.112 12.656 141.864 13.632 142.28 14.976H142.616C143.64 12.416 146.184 11.136 150.248 11.136C152.392 11.136 154.008 11.472 155.096 12.144C156.184 12.816 156.92 13.824 157.304 15.168C157.688 16.48 157.88 18.32 157.88 20.688V36H153.992V22.224ZM185.807 25.152H169.055C169.055 27.488 169.215 29.152 169.535 30.144C169.855 31.136 170.543 31.84 171.599 32.256C172.687 32.64 174.495 32.832 177.023 32.832C179.487 32.832 182.095 32.656 184.847 32.304V35.712C183.823 35.904 182.495 36.064 180.863 36.192C179.231 36.32 177.679 36.384 176.207 36.384C172.911 36.384 170.479 36 168.911 35.232C167.375 34.464 166.367 33.232 165.887 31.536C165.407 29.84 165.167 27.264 165.167 23.808C165.167 20.416 165.375 17.872 165.791 16.176C166.239 14.48 167.215 13.216 168.719 12.384C170.255 11.552 172.671 11.136 175.967 11.136C179.039 11.136 181.263 11.552 182.639 12.384C184.015 13.184 184.879 14.416 185.231 16.08C185.615 17.712 185.807 20.272 185.807 23.76V25.152ZM175.871 14.688C173.791 14.688 172.287 14.88 171.359 15.264C170.463 15.616 169.855 16.304 169.535 17.328C169.247 18.32 169.087 19.936 169.055 22.176H182.063V21.792C182.063 19.68 181.871 18.128 181.487 17.136C181.135 16.144 180.543 15.488 179.711 15.168C178.879 14.848 177.599 14.688 175.871 14.688ZM193.082 11.52H196.538L196.73 16.176H197.018C197.594 14.256 198.554 12.944 199.898 12.24C201.242 11.504 203.002 11.136 205.178 11.136V15.312C202.97 15.312 201.274 15.648 200.09 16.32C198.906 16.992 198.09 18.032 197.642 19.44C197.194 20.816 196.97 22.688 196.97 25.056V36H193.082V11.52ZM222.004 11.52H225.46L225.652 14.976H225.94C226.58 13.504 227.588 12.496 228.964 11.952C230.372 11.408 232.052 11.136 234.004 11.136C236.436 11.136 238.292 11.504 239.572 12.24C240.852 12.976 241.748 14.24 242.26 16.032C242.804 17.792 243.076 20.352 243.076 23.712C243.076 27.104 242.804 29.696 242.26 31.488C241.748 33.28 240.852 34.544 239.572 35.28C238.324 36.016 236.5 36.384 234.1 36.384C232.02 36.384 230.324 36.128 229.012 35.616C227.732 35.104 226.772 34.208 226.132 32.928H225.892V45.6H222.004V11.52ZM232.468 32.592C234.548 32.592 236.02 32.4 236.884 32.016C237.78 31.632 238.372 30.848 238.66 29.664C238.98 28.48 239.14 26.512 239.14 23.76C239.14 21.008 238.98 19.04 238.66 17.856C238.372 16.672 237.78 15.888 236.884 15.504C236.02 15.088 234.548 14.88 232.468 14.88C230.836 14.88 229.54 15.104 228.58 15.552C227.62 16 226.948 16.688 226.564 17.616C226.276 18.32 226.084 19.136 225.988 20.064C225.924 20.992 225.892 22.224 225.892 23.76C225.892 25.328 225.924 26.56 225.988 27.456C226.052 28.352 226.212 29.104 226.468 29.712C226.884 30.736 227.572 31.472 228.532 31.92C229.492 32.368 230.804 32.592 232.468 32.592ZM250.364 36V0.335999H254.252V36H250.364ZM269.079 36.384C266.263 36.384 264.215 35.872 262.935 34.848C261.655 33.792 261.015 31.936 261.015 29.28C261.015 27.392 261.239 25.92 261.687 24.864C262.135 23.808 262.887 23.04 263.943 22.56C265.031 22.08 266.551 21.84 268.503 21.84C269.431 21.84 272.487 21.92 277.671 22.08V20.64C277.671 18.72 277.479 17.36 277.095 16.56C276.743 15.76 276.071 15.248 275.079 15.024C274.119 14.8 272.471 14.688 270.135 14.688C269.111 14.688 267.815 14.752 266.247 14.88C264.711 14.976 263.511 15.088 262.647 15.216V11.808C265.175 11.36 268.135 11.136 271.527 11.136C274.407 11.136 276.551 11.44 277.959 12.048C279.399 12.624 280.359 13.584 280.839 14.928C281.319 16.24 281.559 18.16 281.559 20.688V36H278.055L277.863 32.592H277.575C276.903 34.128 275.815 35.152 274.311 35.664C272.839 36.144 271.095 36.384 269.079 36.384ZM270.567 32.88C272.167 32.88 273.463 32.736 274.455 32.448C275.479 32.16 276.215 31.6 276.663 30.768C277.335 29.616 277.671 28.016 277.671 25.968V24.864H269.511C268.167 24.864 267.175 24.96 266.535 25.152C265.927 25.344 265.495 25.728 265.239 26.304C264.983 26.848 264.855 27.712 264.855 28.896C264.855 30.048 264.999 30.896 265.287 31.44C265.575 31.984 266.103 32.368 266.871 32.592C267.671 32.784 268.903 32.88 270.567 32.88ZM291.708 36V15.072H286.764V11.52H291.708V4.416H295.596V11.52H301.452V15.072H295.596V36H291.708ZM313.001 36.384C310.185 36.384 308.137 35.872 306.857 34.848C305.577 33.792 304.937 31.936 304.937 29.28C304.937 27.392 305.161 25.92 305.609 24.864C306.057 23.808 306.809 23.04 307.865 22.56C308.953 22.08 310.473 21.84 312.425 21.84C313.353 21.84 316.409 21.92 321.593 22.08V20.64C321.593 18.72 321.401 17.36 321.017 16.56C320.665 15.76 319.993 15.248 319.001 15.024C318.041 14.8 316.393 14.688 314.057 14.688C313.033 14.688 311.737 14.752 310.169 14.88C308.633 14.976 307.433 15.088 306.569 15.216V11.808C309.097 11.36 312.057 11.136 315.449 11.136C318.329 11.136 320.473 11.44 321.881 12.048C323.321 12.624 324.281 13.584 324.761 14.928C325.241 16.24 325.481 18.16 325.481 20.688V36H321.977L321.785 32.592H321.497C320.825 34.128 319.737 35.152 318.233 35.664C316.761 36.144 315.017 36.384 313.001 36.384ZM314.489 32.88C316.089 32.88 317.385 32.736 318.377 32.448C319.401 32.16 320.137 31.6 320.585 30.768C321.257 29.616 321.593 28.016 321.593 25.968V24.864H313.433C312.089 24.864 311.097 24.96 310.457 25.152C309.849 25.344 309.417 25.728 309.161 26.304C308.905 26.848 308.777 27.712 308.777 28.896C308.777 30.048 308.921 30.896 309.209 31.44C309.497 31.984 310.025 32.368 310.793 32.592C311.593 32.784 312.825 32.88 314.489 32.88ZM335.912 15.072H330.92V11.52H335.912V7.872C335.912 5.568 336.232 3.888 336.872 2.832C337.512 1.776 338.504 1.104 339.848 0.815998C341.192 0.527998 343.288 0.383998 346.136 0.383998V3.6C344.28 3.6 342.92 3.696 342.056 3.888C341.192 4.048 340.6 4.368 340.28 4.848C339.96 5.328 339.8 6.096 339.8 7.152V11.52H346.136V15.072H339.8V36H335.912V15.072ZM361.169 36.384C357.745 36.384 355.297 36.048 353.825 35.376C352.353 34.672 351.409 33.504 350.993 31.872C350.609 30.208 350.417 27.504 350.417 23.76C350.417 20.016 350.609 17.328 350.993 15.696C351.409 14.032 352.353 12.864 353.825 12.192C355.297 11.488 357.745 11.136 361.169 11.136C364.561 11.136 366.993 11.488 368.465 12.192C369.937 12.864 370.865 14.032 371.249 15.696C371.665 17.328 371.873 20.016 371.873 23.76C371.873 27.504 371.665 30.208 371.249 31.872C370.865 33.504 369.937 34.672 368.465 35.376C366.993 36.048 364.561 36.384 361.169 36.384ZM361.169 32.832C363.505 32.832 365.121 32.624 366.017 32.208C366.913 31.792 367.457 31.04 367.649 29.952C367.873 28.832 367.985 26.768 367.985 23.76C367.985 20.752 367.873 18.704 367.649 17.616C367.457 16.496 366.913 15.728 366.017 15.312C365.121 14.896 363.505 14.688 361.169 14.688C358.833 14.688 357.201 14.896 356.273 15.312C355.377 15.728 354.817 16.496 354.593 17.616C354.401 18.704 354.305 20.752 354.305 23.76C354.305 26.768 354.401 28.832 354.593 29.952C354.817 31.04 355.377 31.792 356.273 32.208C357.201 32.624 358.833 32.832 361.169 32.832ZM379.176 11.52H382.632L382.824 16.176H383.112C383.688 14.256 384.648 12.944 385.992 12.24C387.336 11.504 389.096 11.136 391.272 11.136V15.312C389.064 15.312 387.368 15.648 386.184 16.32C385 16.992 384.184 18.032 383.736 19.44C383.288 20.816 383.064 22.688 383.064 25.056V36H379.176V11.52ZM426.945 22.224C426.945 19.92 426.817 18.288 426.561 17.328C426.337 16.368 425.873 15.728 425.169 15.408C424.465 15.088 423.281 14.928 421.617 14.928C419.825 14.928 418.513 15.232 417.681 15.84C416.849 16.448 416.321 17.312 416.097 18.432C415.873 19.552 415.761 21.2 415.761 23.376V36H411.873V22.224C411.873 19.92 411.745 18.288 411.489 17.328C411.265 16.368 410.801 15.728 410.097 15.408C409.393 15.088 408.209 14.928 406.545 14.928C404.753 14.928 403.441 15.248 402.609 15.888C401.777 16.496 401.249 17.376 401.025 18.528C400.801 19.648 400.689 21.264 400.689 23.376V36H396.801V11.52H400.257L400.449 14.976H400.737C401.217 13.728 402.033 12.784 403.185 12.144C404.369 11.472 406.033 11.136 408.177 11.136C410.289 11.136 411.889 11.44 412.977 12.048C414.065 12.656 414.817 13.632 415.233 14.976H415.569C416.593 12.416 419.137 11.136 423.201 11.136C425.345 11.136 426.961 11.472 428.049 12.144C429.137 12.816 429.873 13.824 430.257 15.168C430.641 16.48 430.833 18.32 430.833 20.688V36H426.945V22.224ZM445.704 36.384C442.888 36.384 440.84 35.872 439.56 34.848C438.28 33.792 437.64 31.936 437.64 29.28C437.64 27.392 437.864 25.92 438.312 24.864C438.76 23.808 439.512 23.04 440.568 22.56C441.656 22.08 443.176 21.84 445.128 21.84C446.056 21.84 449.112 21.92 454.296 22.08V20.64C454.296 18.72 454.104 17.36 453.72 16.56C453.368 15.76 452.696 15.248 451.704 15.024C450.744 14.8 449.096 14.688 446.76 14.688C445.736 14.688 444.44 14.752 442.872 14.88C441.336 14.976 440.136 15.088 439.272 15.216V11.808C441.8 11.36 444.76 11.136 448.152 11.136C451.032 11.136 453.176 11.44 454.584 12.048C456.024 12.624 456.984 13.584 457.464 14.928C457.944 16.24 458.184 18.16 458.184 20.688V36H454.68L454.488 32.592H454.2C453.528 34.128 452.44 35.152 450.936 35.664C449.464 36.144 447.72 36.384 445.704 36.384ZM447.192 32.88C448.792 32.88 450.088 32.736 451.08 32.448C452.104 32.16 452.84 31.6 453.288 30.768C453.96 29.616 454.296 28.016 454.296 25.968V24.864H446.136C444.792 24.864 443.8 24.96 443.16 25.152C442.552 25.344 442.12 25.728 441.864 26.304C441.608 26.848 441.48 27.712 441.48 28.896C441.48 30.048 441.624 30.896 441.912 31.44C442.2 31.984 442.728 32.368 443.496 32.592C444.296 32.784 445.528 32.88 447.192 32.88ZM485.864 36.384C483.432 36.384 481.576 36.016 480.296 35.28C479.016 34.544 478.104 33.296 477.56 31.536C477.048 29.744 476.792 27.168 476.792 23.808C476.792 20.416 477.048 17.824 477.56 16.032C478.072 14.24 478.952 12.976 480.2 12.24C481.48 11.504 483.32 11.136 485.72 11.136C487.832 11.136 489.528 11.392 490.808 11.904C492.12 12.416 493.08 13.312 493.688 14.592H493.976V0.335999H497.864V36H494.36L494.216 32.592H493.928C493.256 34.064 492.232 35.072 490.856 35.616C489.48 36.128 487.816 36.384 485.864 36.384ZM487.352 32.64C489.016 32.64 490.328 32.432 491.288 32.016C492.248 31.568 492.904 30.88 493.256 29.952C493.576 29.216 493.768 28.384 493.832 27.456C493.928 26.496 493.976 25.184 493.976 23.52C493.976 22.144 493.928 21.008 493.832 20.112C493.736 19.216 493.56 18.448 493.304 17.808C492.92 16.816 492.232 16.096 491.24 15.648C490.28 15.168 488.952 14.928 487.256 14.928C485.24 14.928 483.784 15.136 482.888 15.552C482.024 15.936 481.432 16.72 481.112 17.904C480.824 19.088 480.68 21.04 480.68 23.76C480.68 26.544 480.824 28.528 481.112 29.712C481.432 30.896 482.024 31.68 482.888 32.064C483.784 32.448 485.272 32.64 487.352 32.64ZM525.791 25.152H509.039C509.039 27.488 509.199 29.152 509.519 30.144C509.839 31.136 510.527 31.84 511.583 32.256C512.671 32.64 514.479 32.832 517.007 32.832C519.471 32.832 522.079 32.656 524.831 32.304V35.712C523.807 35.904 522.479 36.064 520.847 36.192C519.215 36.32 517.663 36.384 516.191 36.384C512.895 36.384 510.463 36 508.895 35.232C507.359 34.464 506.351 33.232 505.871 31.536C505.391 29.84 505.151 27.264 505.151 23.808C505.151 20.416 505.359 17.872 505.775 16.176C506.223 14.48 507.199 13.216 508.703 12.384C510.239 11.552 512.655 11.136 515.951 11.136C519.023 11.136 521.247 11.552 522.623 12.384C523.999 13.184 524.863 14.416 525.215 16.08C525.599 17.712 525.791 20.272 525.791 23.76V25.152ZM515.855 14.688C513.775 14.688 512.271 14.88 511.343 15.264C510.447 15.616 509.839 16.304 509.519 17.328C509.231 18.32 509.071 19.936 509.039 22.176H522.047V21.792C522.047 19.68 521.855 18.128 521.471 17.136C521.119 16.144 520.527 15.488 519.695 15.168C518.863 14.848 517.583 14.688 515.855 14.688ZM16.728 86.76C15.864 86.92 14.808 87.064 13.56 87.192C12.344 87.32 11.176 87.384 10.056 87.384C7.048 87.384 4.84 86.952 3.432 86.088C2.024 85.224 1.112 83.944 0.696 82.248C0.312 80.552 0.12 78.056 0.12 74.76C0.12 71.528 0.36 69.032 0.84 67.272C1.32 65.512 2.264 64.216 3.672 63.384C5.08 62.552 7.16 62.136 9.912 62.136C11 62.136 12.152 62.2 13.368 62.328C14.616 62.456 15.672 62.6 16.536 62.76V66.216C14.616 65.864 12.728 65.688 10.872 65.688C8.824 65.688 7.32 65.928 6.36 66.408C5.432 66.888 4.808 67.736 4.488 68.952C4.168 70.168 4.008 72.104 4.008 74.76C4.008 77.448 4.168 79.416 4.488 80.664C4.84 81.88 5.48 82.712 6.408 83.16C7.368 83.608 8.904 83.832 11.016 83.832C12.584 83.832 14.488 83.672 16.728 83.352V86.76ZM23.2541 62.52H26.7101L26.9021 67.176H27.1901C27.7661 65.256 28.7261 63.944 30.0701 63.24C31.4141 62.504 33.1741 62.136 35.3501 62.136V66.312C33.1421 66.312 31.4461 66.648 30.2621 67.32C29.0781 67.992 28.2621 69.032 27.8141 70.44C27.3661 71.816 27.1421 73.688 27.1421 76.056V87H23.2541V62.52ZM40.7351 55.8V51.336H44.8631V55.8H40.7351ZM40.8791 87V62.52H44.7671V87H40.8791ZM53.0666 62.52H56.5226L56.7146 65.976H57.0026C57.6426 64.504 58.6506 63.496 60.0266 62.952C61.4346 62.408 63.1146 62.136 65.0666 62.136C67.4986 62.136 69.3546 62.504 70.6346 63.24C71.9146 63.976 72.8106 65.24 73.3226 67.032C73.8666 68.792 74.1386 71.352 74.1386 74.712C74.1386 78.104 73.8666 80.696 73.3226 82.488C72.8106 84.28 71.9146 85.544 70.6346 86.28C69.3866 87.016 67.5626 87.384 65.1626 87.384C63.0826 87.384 61.3866 87.128 60.0746 86.616C58.7946 86.104 57.8346 85.208 57.1946 83.928H56.9546V96.6H53.0666V62.52ZM63.5306 83.592C65.6106 83.592 67.0826 83.4 67.9466 83.016C68.8426 82.632 69.4346 81.848 69.7226 80.664C70.0426 79.48 70.2026 77.512 70.2026 74.76C70.2026 72.008 70.0426 70.04 69.7226 68.856C69.4346 67.672 68.8426 66.888 67.9466 66.504C67.0826 66.088 65.6106 65.88 63.5306 65.88C61.8986 65.88 60.6026 66.104 59.6426 66.552C58.6826 67 58.0106 67.688 57.6266 68.616C57.3386 69.32 57.1466 70.136 57.0506 71.064C56.9866 71.992 56.9546 73.224 56.9546 74.76C56.9546 76.328 56.9866 77.56 57.0506 78.456C57.1146 79.352 57.2746 80.104 57.5306 80.712C57.9466 81.736 58.6346 82.472 59.5946 82.92C60.5546 83.368 61.8666 83.592 63.5306 83.592ZM83.2076 87V66.072H78.2636V62.52H83.2076V55.416H87.0956V62.52H92.9516V66.072H87.0956V87H83.2076ZM107.903 87.384C104.479 87.384 102.031 87.048 100.559 86.376C99.0873 85.672 98.1433 84.504 97.7273 82.872C97.3433 81.208 97.1513 78.504 97.1513 74.76C97.1513 71.016 97.3433 68.328 97.7273 66.696C98.1433 65.032 99.0873 63.864 100.559 63.192C102.031 62.488 104.479 62.136 107.903 62.136C111.295 62.136 113.727 62.488 115.199 63.192C116.671 63.864 117.599 65.032 117.983 66.696C118.399 68.328 118.607 71.016 118.607 74.76C118.607 78.504 118.399 81.208 117.983 82.872C117.599 84.504 116.671 85.672 115.199 86.376C113.727 87.048 111.295 87.384 107.903 87.384ZM107.903 83.832C110.239 83.832 111.855 83.624 112.751 83.208C113.647 82.792 114.191 82.04 114.383 80.952C114.607 79.832 114.719 77.768 114.719 74.76C114.719 71.752 114.607 69.704 114.383 68.616C114.191 67.496 113.647 66.728 112.751 66.312C111.855 65.896 110.239 65.688 107.903 65.688C105.567 65.688 103.935 65.896 103.007 66.312C102.111 66.728 101.551 67.496 101.327 68.616C101.135 69.704 101.039 71.752 101.039 74.76C101.039 77.768 101.135 79.832 101.327 80.952C101.551 82.04 102.111 82.792 103.007 83.208C103.935 83.624 105.567 83.832 107.903 83.832ZM124.566 75.192V71.4H136.278V75.192H124.566ZM143.301 62.52H146.757L146.949 65.976H147.237C147.877 64.504 148.885 63.496 150.261 62.952C151.669 62.408 153.349 62.136 155.301 62.136C157.733 62.136 159.589 62.504 160.869 63.24C162.149 63.976 163.045 65.24 163.557 67.032C164.101 68.792 164.373 71.352 164.373 74.712C164.373 78.104 164.101 80.696 163.557 82.488C163.045 84.28 162.149 85.544 160.869 86.28C159.621 87.016 157.797 87.384 155.397 87.384C153.317 87.384 151.621 87.128 150.309 86.616C149.029 86.104 148.069 85.208 147.429 83.928H147.189V96.6H143.301V62.52ZM153.765 83.592C155.845 83.592 157.317 83.4 158.181 83.016C159.077 82.632 159.669 81.848 159.957 80.664C160.277 79.48 160.437 77.512 160.437 74.76C160.437 72.008 160.277 70.04 159.957 68.856C159.669 67.672 159.077 66.888 158.181 66.504C157.317 66.088 155.845 65.88 153.765 65.88C152.133 65.88 150.837 66.104 149.877 66.552C148.917 67 148.245 67.688 147.861 68.616C147.573 69.32 147.381 70.136 147.285 71.064C147.221 71.992 147.189 73.224 147.189 74.76C147.189 76.328 147.221 77.56 147.285 78.456C147.349 79.352 147.509 80.104 147.765 80.712C148.181 81.736 148.869 82.472 149.829 82.92C150.789 83.368 152.101 83.592 153.765 83.592ZM178.188 87.384C175.372 87.384 173.324 86.872 172.044 85.848C170.764 84.792 170.124 82.936 170.124 80.28C170.124 78.392 170.348 76.92 170.796 75.864C171.244 74.808 171.996 74.04 173.052 73.56C174.14 73.08 175.66 72.84 177.612 72.84C178.54 72.84 181.596 72.92 186.78 73.08V71.64C186.78 69.72 186.588 68.36 186.204 67.56C185.852 66.76 185.18 66.248 184.188 66.024C183.228 65.8 181.58 65.688 179.244 65.688C178.22 65.688 176.924 65.752 175.356 65.88C173.82 65.976 172.62 66.088 171.756 66.216V62.808C174.284 62.36 177.244 62.136 180.636 62.136C183.516 62.136 185.66 62.44 187.068 63.048C188.508 63.624 189.468 64.584 189.948 65.928C190.428 67.24 190.668 69.16 190.668 71.688V87H187.164L186.972 83.592H186.684C186.012 85.128 184.924 86.152 183.42 86.664C181.948 87.144 180.204 87.384 178.188 87.384ZM179.676 83.88C181.276 83.88 182.572 83.736 183.564 83.448C184.588 83.16 185.324 82.6 185.772 81.768C186.444 80.616 186.78 79.016 186.78 76.968V75.864H178.62C177.276 75.864 176.284 75.96 175.644 76.152C175.036 76.344 174.604 76.728 174.348 77.304C174.092 77.848 173.964 78.712 173.964 79.896C173.964 81.048 174.108 81.896 174.396 82.44C174.684 82.984 175.212 83.368 175.98 83.592C176.78 83.784 178.012 83.88 179.676 83.88ZM207.963 96.888C204.571 96.888 201.691 96.744 199.323 96.456V93.048C202.395 93.24 205.003 93.336 207.147 93.336C209.611 93.336 211.387 93.112 212.475 92.664C213.595 92.216 214.315 91.416 214.635 90.264C214.987 89.144 215.163 87.336 215.163 84.84V83.784H214.923C214.315 85.032 213.355 85.928 212.043 86.472C210.763 86.984 209.099 87.24 207.051 87.24C204.587 87.24 202.715 86.888 201.435 86.184C200.155 85.448 199.259 84.2 198.747 82.44C198.235 80.68 197.979 78.12 197.979 74.76C197.979 71.368 198.235 68.792 198.747 67.032C199.291 65.24 200.203 63.976 201.483 63.24C202.763 62.504 204.619 62.136 207.051 62.136C209.003 62.136 210.667 62.408 212.043 62.952C213.451 63.496 214.475 64.504 215.115 65.976H215.403L215.547 62.52H219.051V83.88C219.051 87.336 218.795 89.944 218.283 91.704C217.803 93.464 216.779 94.76 215.211 95.592C213.643 96.456 211.227 96.888 207.963 96.888ZM208.539 83.496C210.139 83.496 211.403 83.304 212.331 82.92C213.291 82.504 213.963 81.88 214.347 81.048C214.667 80.344 214.875 79.512 214.971 78.552C215.099 77.592 215.163 76.312 215.163 74.712C215.163 73.08 215.115 71.816 215.019 70.92C214.955 69.992 214.763 69.208 214.443 68.568C214.027 67.608 213.339 66.92 212.379 66.504C211.419 66.088 210.139 65.88 208.539 65.88C206.491 65.88 205.019 66.088 204.123 66.504C203.227 66.888 202.619 67.672 202.299 68.856C202.011 70.008 201.867 71.96 201.867 74.712C201.867 77.432 202.011 79.384 202.299 80.568C202.619 81.72 203.227 82.504 204.123 82.92C205.019 83.304 206.491 83.496 208.539 83.496ZM237.091 87.384C233.667 87.384 231.219 87.048 229.747 86.376C228.275 85.672 227.331 84.504 226.915 82.872C226.531 81.208 226.339 78.504 226.339 74.76C226.339 71.016 226.531 68.328 226.915 66.696C227.331 65.032 228.275 63.864 229.747 63.192C231.219 62.488 233.667 62.136 237.091 62.136C240.483 62.136 242.915 62.488 244.387 63.192C245.859 63.864 246.787 65.032 247.171 66.696C247.587 68.328 247.795 71.016 247.795 74.76C247.795 78.504 247.587 81.208 247.171 82.872C246.787 84.504 245.859 85.672 244.387 86.376C242.915 87.048 240.483 87.384 237.091 87.384ZM237.091 83.832C239.427 83.832 241.043 83.624 241.939 83.208C242.835 82.792 243.379 82.04 243.571 80.952C243.795 79.832 243.907 77.768 243.907 74.76C243.907 71.752 243.795 69.704 243.571 68.616C243.379 67.496 242.835 66.728 241.939 66.312C241.043 65.896 239.427 65.688 237.091 65.688C234.755 65.688 233.123 65.896 232.195 66.312C231.299 66.728 230.739 67.496 230.515 68.616C230.323 69.704 230.227 71.752 230.227 74.76C230.227 77.768 230.323 79.832 230.515 80.952C230.739 82.04 231.299 82.792 232.195 83.208C233.123 83.624 234.755 83.832 237.091 83.832ZM263.21 87.384C261.898 87.384 260.41 87.32 258.746 87.192C257.082 87.064 255.61 86.92 254.33 86.76V83.304C257.498 83.656 260.394 83.832 263.018 83.832C264.65 83.832 265.85 83.72 266.618 83.496C267.386 83.272 267.882 82.92 268.106 82.44C268.362 81.928 268.49 81.176 268.49 80.184C268.49 79.192 268.394 78.488 268.202 78.072C268.042 77.624 267.77 77.32 267.386 77.16C267.002 77 266.33 76.872 265.37 76.776L258.986 76.056C257.514 75.896 256.378 75.56 255.578 75.048C254.81 74.536 254.282 73.832 253.994 72.936C253.706 72.04 253.562 70.84 253.562 69.336C253.562 67.256 253.93 65.704 254.666 64.68C255.434 63.624 256.474 62.936 257.786 62.616C259.13 62.296 260.922 62.136 263.162 62.136C264.41 62.136 265.754 62.2 267.194 62.328C268.634 62.456 269.85 62.616 270.842 62.808V66.264C268.346 65.88 265.77 65.688 263.114 65.688C261.642 65.688 260.522 65.768 259.754 65.928C258.986 66.056 258.394 66.376 257.978 66.888C257.562 67.368 257.354 68.136 257.354 69.192C257.354 70.12 257.434 70.792 257.594 71.208C257.754 71.624 258.026 71.912 258.41 72.072C258.794 72.232 259.434 72.36 260.33 72.456L266.954 73.224C268.362 73.384 269.418 73.656 270.122 74.04C270.858 74.392 271.386 75.032 271.706 75.96C272.058 76.888 272.234 78.264 272.234 80.088C272.234 82.104 271.898 83.64 271.226 84.696C270.586 85.752 269.626 86.472 268.346 86.856C267.098 87.208 265.386 87.384 263.21 87.384Z" fill="black"/>
</svg>
